M48
; DRILL file {KiCad (6.0.7)} date Tue Mar 19 21:13:09 2024
; FORMAT={-:-/ absolute / inch / decimal}
; #@! TF.CreationDate,2024-03-19T21:13:09-04:00
; #@! TF.GenerationSoftware,Kicad,Pcbnew,(6.0.7)
; #@! TF.FileFunction,Plated,1,2,PTH
FMAT,2
INCH
; #@! TA.AperFunction,Plated,PTH,ViaDrill
T1C0.0157
; #@! TA.AperFunction,Plated,PTH,ComponentDrill
T2C0.0236
; #@! TA.AperFunction,Plated,PTH,ComponentDrill
T3C0.0374
; #@! TA.AperFunction,Plated,PTH,ComponentDrill
T4C0.1457
; #@! TA.AperFunction,Plated,PTH,ComponentDrill
T5C0.1969
%
G90
G05
T1
X4.9744Y-2.437
X5.1014Y-2.1646
X5.2717Y-2.3898
X5.2953Y-2.6447
X5.4035Y-2.628
X5.4488Y-2.3484
X5.6142Y-2.2008
X6.3287Y-2.5079
X6.5354Y-2.1299
X6.7323Y-2.6457
X6.9724Y-2.2677
X7.5276Y-2.5354
X7.5315Y-2.2992
X7.748Y-2.5177
X7.9567Y-2.1496
X8.1555Y-2.6457
X8.3502Y-2.2825
X8.4724Y-2.2756
X8.4803Y-2.5551
X8.825Y-2.375
X8.825Y-2.75
X8.925Y-2.525
X8.95Y-2.3849
X8.9855Y-2.2795
X8.997Y-2.625
X9.075Y-2.25
X9.3Y-2.2
X9.3Y-2.4762
T2
X5.0482Y-2.3293
X5.4843Y-2.5376
X6.4709Y-2.2915
X6.9134Y-2.5472
X7.8898Y-2.311
X8.3307Y-2.5669
T3
X9.4705Y-2.1555
X9.4705Y-2.2539
X9.4705Y-2.3524
X9.4705Y-2.4508
T4
X4.2717Y-1.4843
X4.2817Y-3.458
X9.748Y-1.4843
X9.7559Y-3.4567
T5
X4.9252Y-1.8799
X4.9488Y-2.9528
X5.4134Y-2.9488
X5.4783Y-1.8858
X6.3824Y-2.9409
X6.4075Y-1.9055
X6.8504Y-2.9448
X6.9193Y-1.8917
X7.8091Y-1.8917
X7.815Y-2.9252
X8.2795Y-2.9291
X8.3465Y-1.8799
T0
M30
