%TF.GenerationSoftware,KiCad,Pcbnew,7.0.7*%
%TF.CreationDate,2024-01-12T20:40:26-05:00*%
%TF.ProjectId,new current sensor,6e657720-6375-4727-9265-6e742073656e,rev?*%
%TF.SameCoordinates,Original*%
%TF.FileFunction,Copper,L2,Bot*%
%TF.FilePolarity,Positive*%
%FSLAX46Y46*%
G04 Gerber Fmt 4.6, Leading zero omitted, Abs format (unit mm)*
G04 Created by KiCad (PCBNEW 7.0.7) date 2024-01-12 20:40:26*
%MOMM*%
%LPD*%
G01*
G04 APERTURE LIST*
G04 Aperture macros list*
%AMRoundRect*
0 Rectangle with rounded corners*
0 $1 Rounding radius*
0 $2 $3 $4 $5 $6 $7 $8 $9 X,Y pos of 4 corners*
0 Add a 4 corners polygon primitive as box body*
4,1,4,$2,$3,$4,$5,$6,$7,$8,$9,$2,$3,0*
0 Add four circle primitives for the rounded corners*
1,1,$1+$1,$2,$3*
1,1,$1+$1,$4,$5*
1,1,$1+$1,$6,$7*
1,1,$1+$1,$8,$9*
0 Add four rect primitives between the rounded corners*
20,1,$1+$1,$2,$3,$4,$5,0*
20,1,$1+$1,$4,$5,$6,$7,0*
20,1,$1+$1,$6,$7,$8,$9,0*
20,1,$1+$1,$8,$9,$2,$3,0*%
G04 Aperture macros list end*
%TA.AperFunction,ComponentPad*%
%ADD10C,7.400000*%
%TD*%
%TA.AperFunction,ComponentPad*%
%ADD11RoundRect,0.250000X-0.550000X-0.550000X0.550000X-0.550000X0.550000X0.550000X-0.550000X0.550000X0*%
%TD*%
%TA.AperFunction,ComponentPad*%
%ADD12C,9.000000*%
%TD*%
%TA.AperFunction,ComponentPad*%
%ADD13RoundRect,0.250000X0.725000X-0.600000X0.725000X0.600000X-0.725000X0.600000X-0.725000X-0.600000X0*%
%TD*%
%TA.AperFunction,ComponentPad*%
%ADD14O,1.950000X1.700000*%
%TD*%
%TA.AperFunction,ViaPad*%
%ADD15C,0.800000*%
%TD*%
%TA.AperFunction,Conductor*%
%ADD16C,0.250000*%
%TD*%
G04 APERTURE END LIST*
D10*
%TO.P,REF\u002A\u002A,1*%
%TO.N,N/C*%
X241300000Y-38100000D03*
%TD*%
%TO.P,REF\u002A\u002A,1*%
%TO.N,N/C*%
X107950000Y-38100000D03*
%TD*%
%TO.P,REF\u002A\u002A,1*%
%TO.N,N/C*%
X107950000Y-82550000D03*
%TD*%
%TO.P,REF\u002A\u002A,1*%
%TO.N,N/C*%
X241300000Y-82550000D03*
%TD*%
D11*
%TO.P,TP1,1,1*%
%TO.N,Net-(U1-~{FAULT})*%
X137949139Y-64454800D03*
%TD*%
D12*
%TO.P,H6.1,1,1*%
%TO.N,/M3+*%
X162113397Y-74698097D03*
%TD*%
%TO.P,H5.2,1,1*%
%TO.N,/M2-*%
X210850000Y-74400000D03*
%TD*%
%TO.P,H6.2,1,1*%
%TO.N,/M3-*%
X174413397Y-74798097D03*
%TD*%
D11*
%TO.P,TP4,1,1*%
%TO.N,Net-(U4-~{FAULT})*%
X164360000Y-58205000D03*
%TD*%
D12*
%TO.P,H4.1,1,1*%
%TO.N,/M1+*%
X124699139Y-74954800D03*
%TD*%
%TO.P,H2.2,1,1*%
%TO.N,/M5-*%
X198350000Y-48050000D03*
%TD*%
D11*
%TO.P,TP3,1,1*%
%TO.N,Net-(U3-~{FAULT})*%
X174763397Y-64598097D03*
%TD*%
D12*
%TO.P,H1.1,1,1*%
%TO.N,/M4+*%
X175750000Y-48050000D03*
%TD*%
D13*
%TO.P,J1,1,Pin_1*%
%TO.N,Net-(J1-Pin_1)*%
X240550000Y-62250000D03*
D14*
%TO.P,J1,2,Pin_2*%
%TO.N,Net-(J1-Pin_2)*%
X240550000Y-59750000D03*
%TO.P,J1,3,Pin_3*%
%TO.N,+3V3*%
X240550000Y-57250000D03*
%TO.P,J1,4,Pin_4*%
%TO.N,Earth*%
X240550000Y-54750000D03*
%TD*%
D12*
%TO.P,H3.2,1,1*%
%TO.N,/M6-*%
X125100000Y-47750000D03*
%TD*%
%TO.P,H1.2,1,1*%
%TO.N,/M4-*%
X162750000Y-48400000D03*
%TD*%
D11*
%TO.P,TP5,1,1*%
%TO.N,Net-(U5-~{FAULT})*%
X200500000Y-58150000D03*
%TD*%
D12*
%TO.P,H2.1,1,1*%
%TO.N,/M5+*%
X212000000Y-47750000D03*
%TD*%
%TO.P,H3.1,1,1*%
%TO.N,/M6+*%
X139150000Y-47900000D03*
%TD*%
D11*
%TO.P,TP2,1,1*%
%TO.N,Net-(U2-~{FAULT})*%
X210505000Y-65127500D03*
%TD*%
D12*
%TO.P,H5.1,1,1*%
%TO.N,/M2+*%
X198550000Y-74300000D03*
%TD*%
%TO.P,H4.2,1,1*%
%TO.N,/M1-*%
X138949139Y-75154800D03*
%TD*%
D11*
%TO.P,TP6,1,1*%
%TO.N,Net-(U6-~{FAULT})*%
X128224895Y-59165105D03*
%TD*%
D15*
%TO.N,+3.3V*%
X142600000Y-55900000D03*
X191200000Y-64400000D03*
X137250000Y-66750000D03*
X191300000Y-58400000D03*
X226695000Y-64135000D03*
X228525000Y-66675000D03*
X133900000Y-60700000D03*
X227330000Y-60325000D03*
X224155000Y-60325000D03*
X215200000Y-57800000D03*
X215400000Y-64900000D03*
%TO.N,Earth*%
X202100000Y-55025500D03*
X236220000Y-62894500D03*
X166100000Y-55200000D03*
X138400000Y-59650000D03*
X134500000Y-67174500D03*
X236220000Y-55880000D03*
X196800000Y-63950000D03*
X171300000Y-67174500D03*
X126350000Y-61900000D03*
X174072500Y-59370000D03*
X129574895Y-54980395D03*
X212095000Y-57975000D03*
X160750000Y-63700000D03*
X207150000Y-67200000D03*
X224155000Y-69850000D03*
%TO.N,Net-(J1-Pin_2)*%
X230505000Y-57150000D03*
X227965000Y-58420000D03*
%TD*%
D16*
%TO.N,+3.3V*%
X149800000Y-61300000D02*
X148000000Y-61300000D01*
X228525000Y-66675000D02*
X226695000Y-64845000D01*
X194300000Y-61300000D02*
X195000000Y-61300000D01*
X195000000Y-61300000D02*
X198200000Y-61300000D01*
X224155000Y-60325000D02*
X217725000Y-60325000D01*
X198200000Y-61300000D02*
X194200000Y-61300000D01*
X227330000Y-60325000D02*
X224155000Y-60325000D01*
X215400000Y-64900000D02*
X212250000Y-61750000D01*
X153300000Y-61300000D02*
X149800000Y-61300000D01*
X195000000Y-61300000D02*
X153300000Y-61300000D01*
X226695000Y-64845000D02*
X226695000Y-64135000D01*
X198200000Y-61300000D02*
X211800000Y-61300000D01*
X153300000Y-61300000D02*
X147850000Y-66750000D01*
X215400000Y-64900000D02*
X215400000Y-58000000D01*
X148000000Y-61300000D02*
X142600000Y-55900000D01*
X134500000Y-61300000D02*
X133900000Y-60700000D01*
X217725000Y-60325000D02*
X215200000Y-57800000D01*
X215400000Y-58000000D02*
X215200000Y-57800000D01*
X191200000Y-64400000D02*
X194300000Y-61300000D01*
X149800000Y-61300000D02*
X134500000Y-61300000D01*
X147850000Y-66750000D02*
X137250000Y-66750000D01*
X194200000Y-61300000D02*
X191300000Y-58400000D01*
X211800000Y-61300000D02*
X212250000Y-61750000D01*
%TO.N,Net-(J1-Pin_2)*%
X230505000Y-57150000D02*
X229235000Y-58420000D01*
X229235000Y-58420000D02*
X227965000Y-58420000D01*
%TD*%
%TA.AperFunction,Conductor*%
%TO.N,Earth*%
G36*
X243148004Y-47010078D02*
G01*
X243194568Y-47063671D01*
X243206020Y-47115138D01*
X243398961Y-70772653D01*
X243379515Y-70840935D01*
X243326240Y-70887864D01*
X243272650Y-70899681D01*
X214417302Y-70827573D01*
X214349232Y-70807400D01*
X214326544Y-70788646D01*
X214314681Y-70776238D01*
X214314679Y-70776236D01*
X214314676Y-70776233D01*
X214200224Y-70676239D01*
X213975900Y-70480252D01*
X213682317Y-70266953D01*
X213611948Y-70215827D01*
X213611938Y-70215821D01*
X213611922Y-70215810D01*
X213225787Y-69985105D01*
X213225761Y-69985091D01*
X212820454Y-69789905D01*
X212820448Y-69789902D01*
X212399264Y-69631830D01*
X211965625Y-69512153D01*
X211522992Y-69431827D01*
X211522989Y-69431826D01*
X211522985Y-69431826D01*
X211074932Y-69391500D01*
X210625068Y-69391500D01*
X210177015Y-69431826D01*
X210177011Y-69431826D01*
X210177007Y-69431827D01*
X209734374Y-69512153D01*
X209300735Y-69631830D01*
X208879551Y-69789902D01*
X208879545Y-69789905D01*
X208474238Y-69985091D01*
X208474212Y-69985105D01*
X208088077Y-70215810D01*
X208088042Y-70215834D01*
X207724099Y-70480252D01*
X207385269Y-70776281D01*
X207386655Y-70774958D01*
X207323557Y-70807503D01*
X207299372Y-70809785D01*
X202183682Y-70797002D01*
X202115612Y-70776829D01*
X202092927Y-70758078D01*
X202026934Y-70689054D01*
X202014681Y-70676238D01*
X202014679Y-70676236D01*
X202014676Y-70676233D01*
X201915233Y-70589353D01*
X201675900Y-70380252D01*
X201409395Y-70186626D01*
X201311948Y-70115827D01*
X201311938Y-70115821D01*
X201311922Y-70115810D01*
X200925787Y-69885105D01*
X200925761Y-69885091D01*
X200520454Y-69689905D01*
X200520448Y-69689902D01*
X200099264Y-69531830D01*
X199665625Y-69412153D01*
X199222992Y-69331827D01*
X199222989Y-69331826D01*
X199222985Y-69331826D01*
X198774932Y-69291500D01*
X198325068Y-69291500D01*
X197877015Y-69331826D01*
X197877011Y-69331826D01*
X197877007Y-69331827D01*
X197434374Y-69412153D01*
X197000735Y-69531830D01*
X196579551Y-69689902D01*
X196579545Y-69689905D01*
X196174238Y-69885091D01*
X196174212Y-69885105D01*
X195788077Y-70115810D01*
X195788042Y-70115834D01*
X195424099Y-70380252D01*
X195085326Y-70676231D01*
X195085317Y-70676239D01*
X195024396Y-70739957D01*
X194962863Y-70775371D01*
X194933010Y-70778882D01*
X177382650Y-70735024D01*
X177314580Y-70714851D01*
X177308904Y-70710960D01*
X177261103Y-70676231D01*
X177175345Y-70613924D01*
X177175335Y-70613918D01*
X177175319Y-70613907D01*
X176789184Y-70383202D01*
X176789158Y-70383188D01*
X176383851Y-70188002D01*
X176383845Y-70187999D01*
X175962661Y-70029927D01*
X175529022Y-69910250D01*
X175086389Y-69829924D01*
X175086386Y-69829923D01*
X175086382Y-69829923D01*
X174638329Y-69789597D01*
X174188465Y-69789597D01*
X173740412Y-69829923D01*
X173740408Y-69829923D01*
X173740404Y-69829924D01*
X173297771Y-69910250D01*
X172864132Y-70029927D01*
X172442948Y-70187999D01*
X172442942Y-70188002D01*
X172037635Y-70383188D01*
X172037609Y-70383202D01*
X171651458Y-70613917D01*
X171651429Y-70613936D01*
X171538244Y-70696170D01*
X171471377Y-70720029D01*
X171463869Y-70720234D01*
X165178312Y-70704526D01*
X165110242Y-70684353D01*
X165104566Y-70680462D01*
X164982601Y-70591850D01*
X164875345Y-70513924D01*
X164875335Y-70513918D01*
X164875319Y-70513907D01*
X164489184Y-70283202D01*
X164489158Y-70283188D01*
X164288654Y-70186630D01*
X164083847Y-70088000D01*
X164083845Y-70087999D01*
X163662661Y-69929927D01*
X163229022Y-69810250D01*
X162786389Y-69729924D01*
X162786386Y-69729923D01*
X162786382Y-69729923D01*
X162338329Y-69689597D01*
X161888465Y-69689597D01*
X161440412Y-69729923D01*
X161440408Y-69729923D01*
X161440404Y-69729924D01*
X160997771Y-69810250D01*
X160564132Y-69929927D01*
X160142948Y-70087999D01*
X160142942Y-70088002D01*
X159737635Y-70283188D01*
X159737609Y-70283202D01*
X159351458Y-70513917D01*
X159351440Y-70513929D01*
X159143240Y-70665195D01*
X159076372Y-70689054D01*
X159068864Y-70689259D01*
X141155251Y-70644494D01*
X141100897Y-70632016D01*
X140919602Y-70544708D01*
X140919587Y-70544702D01*
X140498403Y-70386630D01*
X140064764Y-70266953D01*
X139622131Y-70186627D01*
X139622128Y-70186626D01*
X139622124Y-70186626D01*
X139174071Y-70146300D01*
X138724207Y-70146300D01*
X138276154Y-70186626D01*
X138276150Y-70186626D01*
X138276146Y-70186627D01*
X137833513Y-70266953D01*
X137399874Y-70386630D01*
X136978687Y-70544703D01*
X136820161Y-70621045D01*
X136765177Y-70633523D01*
X127226176Y-70609685D01*
X127161867Y-70591850D01*
X127074911Y-70539897D01*
X127074898Y-70539890D01*
X126669593Y-70344705D01*
X126669587Y-70344702D01*
X126248403Y-70186630D01*
X125814764Y-70066953D01*
X125372131Y-69986627D01*
X125372128Y-69986626D01*
X125372124Y-69986626D01*
X124924071Y-69946300D01*
X124474207Y-69946300D01*
X124026154Y-69986626D01*
X124026150Y-69986626D01*
X124026146Y-69986627D01*
X123583520Y-70066951D01*
X123498773Y-70090340D01*
X123427786Y-70089180D01*
X123368694Y-70049827D01*
X123340259Y-69984773D01*
X123339271Y-69971029D01*
X123338570Y-69929927D01*
X123181130Y-60699999D01*
X132986496Y-60699999D01*
X133006457Y-60889927D01*
X133029532Y-60960941D01*
X133065473Y-61071556D01*
X133065476Y-61071561D01*
X133160958Y-61236941D01*
X133160965Y-61236951D01*
X133288744Y-61378864D01*
X133288747Y-61378866D01*
X133443248Y-61491118D01*
X133617712Y-61568794D01*
X133804513Y-61608500D01*
X133860406Y-61608500D01*
X133928527Y-61628502D01*
X133949501Y-61645405D01*
X133992753Y-61688657D01*
X134002720Y-61701097D01*
X134002947Y-61700910D01*
X134007999Y-61707017D01*
X134059095Y-61754999D01*
X134080225Y-61776130D01*
X134085768Y-61780430D01*
X134090281Y-61784285D01*
X134124679Y-61816586D01*
X134124680Y-61816586D01*
X134124682Y-61816588D01*
X134142429Y-61826344D01*
X134158959Y-61837202D01*
X134174959Y-61849613D01*
X134206136Y-61863104D01*
X134218251Y-61868347D01*
X134223585Y-61870959D01*
X134264940Y-61893695D01*
X134284562Y-61898733D01*
X134303263Y-61905135D01*
X134315814Y-61910567D01*
X134321852Y-61913180D01*
X134321853Y-61913180D01*
X134321855Y-61913181D01*
X134368477Y-61920564D01*
X134374262Y-61921763D01*
X134419970Y-61933500D01*
X134440224Y-61933500D01*
X134459934Y-61935051D01*
X134462141Y-61935400D01*
X134479943Y-61938220D01*
X134513870Y-61935012D01*
X134526917Y-61933780D01*
X134532850Y-61933500D01*
X147919970Y-61933500D01*
X147940224Y-61933500D01*
X147959934Y-61935051D01*
X147962141Y-61935400D01*
X147979943Y-61938220D01*
X148013870Y-61935012D01*
X148026917Y-61933780D01*
X148032850Y-61933500D01*
X149719970Y-61933500D01*
X151466406Y-61933500D01*
X151534527Y-61953502D01*
X151581020Y-62007158D01*
X151591124Y-62077432D01*
X151561630Y-62142012D01*
X151555501Y-62148594D01*
X149569095Y-64135000D01*
X147624500Y-66079595D01*
X147562188Y-66113621D01*
X147535405Y-66116500D01*
X137958200Y-66116500D01*
X137890079Y-66096498D01*
X137864563Y-66074810D01*
X137861252Y-66071133D01*
X137751282Y-65991235D01*
X137707928Y-65935013D01*
X137701853Y-65864276D01*
X137734984Y-65801485D01*
X137796805Y-65766573D01*
X137825337Y-65763299D01*
X138549683Y-65763299D01*
X138653565Y-65752687D01*
X138821877Y-65696915D01*
X138972791Y-65603830D01*
X139098169Y-65478452D01*
X139191254Y-65327538D01*
X139247026Y-65159226D01*
X139257639Y-65055345D01*
X139257638Y-63854256D01*
X139254036Y-63819000D01*
X139247026Y-63750374D01*
X139200141Y-63608882D01*
X139191254Y-63582062D01*
X139098169Y-63431148D01*
X139098168Y-63431147D01*
X139098163Y-63431141D01*
X138972797Y-63305775D01*
X138972791Y-63305770D01*
X138946572Y-63289598D01*
X138821877Y-63212685D01*
X138737721Y-63184798D01*
X138653566Y-63156913D01*
X138653559Y-63156912D01*
X138549692Y-63146300D01*
X137348594Y-63146300D01*
X137244713Y-63156912D01*
X137076400Y-63212685D01*
X136925486Y-63305770D01*
X136925480Y-63305775D01*
X136800114Y-63431141D01*
X136800109Y-63431147D01*
X136707024Y-63582062D01*
X136651252Y-63750372D01*
X136651251Y-63750379D01*
X136640639Y-63854246D01*
X136640639Y-65055344D01*
X136651251Y-65159225D01*
X136707024Y-65327538D01*
X136800109Y-65478452D01*
X136800114Y-65478458D01*
X136925480Y-65603824D01*
X136925486Y-65603829D01*
X136925487Y-65603830D01*
X137003084Y-65651692D01*
X137050561Y-65704477D01*
X137061964Y-65774552D01*
X137033672Y-65839667D01*
X136974667Y-65879150D01*
X136971385Y-65880012D01*
X136967716Y-65881203D01*
X136793247Y-65958882D01*
X136638744Y-66071135D01*
X136510965Y-66213048D01*
X136510958Y-66213058D01*
X136415476Y-66378438D01*
X136415473Y-66378445D01*
X136356457Y-66560072D01*
X136336496Y-66750000D01*
X136356457Y-66939927D01*
X136386526Y-67032470D01*
X136415473Y-67121556D01*
X136415476Y-67121561D01*
X136510958Y-67286941D01*
X136510965Y-67286951D01*
X136638744Y-67428864D01*
X136638747Y-67428866D01*
X136793248Y-67541118D01*
X136967712Y-67618794D01*
X137154513Y-67658500D01*
X137345487Y-67658500D01*
X137532288Y-67618794D01*
X137706752Y-67541118D01*
X137861253Y-67428866D01*
X137864562Y-67425190D01*
X137925009Y-67387950D01*
X137958200Y-67383500D01*
X147766147Y-67383500D01*
X147781988Y-67385249D01*
X147782016Y-67384956D01*
X147789902Y-67385700D01*
X147789909Y-67385702D01*
X147859958Y-67383500D01*
X147889856Y-67383500D01*
X147896818Y-67382619D01*
X147902719Y-67382154D01*
X147949889Y-67380673D01*
X147969347Y-67375019D01*
X147988694Y-67371013D01*
X148008797Y-67368474D01*
X148052679Y-67351099D01*
X148058274Y-67349183D01*
X148086816Y-67340891D01*
X148103591Y-67336019D01*
X148103595Y-67336017D01*
X148121026Y-67325708D01*
X148138780Y-67317009D01*
X148157617Y-67309552D01*
X148195786Y-67281818D01*
X148200744Y-67278562D01*
X148241362Y-67254542D01*
X148255685Y-67240218D01*
X148270724Y-67227374D01*
X148287107Y-67215472D01*
X148317193Y-67179103D01*
X148321161Y-67174741D01*
X150297262Y-65198641D01*
X173454897Y-65198641D01*
X173465509Y-65302522D01*
X173521282Y-65470835D01*
X173614367Y-65621749D01*
X173614372Y-65621755D01*
X173739738Y-65747121D01*
X173739744Y-65747126D01*
X173739745Y-65747127D01*
X173890659Y-65840212D01*
X174058971Y-65895984D01*
X174162852Y-65906597D01*
X175363941Y-65906596D01*
X175467823Y-65895984D01*
X175636135Y-65840212D01*
X175787049Y-65747127D01*
X175806132Y-65728044D01*
X209196500Y-65728044D01*
X209207112Y-65831925D01*
X209262885Y-66000238D01*
X209355970Y-66151152D01*
X209355975Y-66151158D01*
X209481341Y-66276524D01*
X209481347Y-66276529D01*
X209481348Y-66276530D01*
X209632262Y-66369615D01*
X209800574Y-66425387D01*
X209904455Y-66436000D01*
X211105544Y-66435999D01*
X211209426Y-66425387D01*
X211377738Y-66369615D01*
X211528652Y-66276530D01*
X211654030Y-66151152D01*
X211747115Y-66000238D01*
X211802887Y-65831926D01*
X211813500Y-65728045D01*
X211813499Y-64526956D01*
X211802887Y-64423074D01*
X211747115Y-64254762D01*
X211654030Y-64103848D01*
X211654029Y-64103847D01*
X211654024Y-64103841D01*
X211528658Y-63978475D01*
X211528652Y-63978470D01*
X211528651Y-63978469D01*
X211377738Y-63885385D01*
X211283765Y-63854246D01*
X211209427Y-63829613D01*
X211209420Y-63829612D01*
X211105553Y-63819000D01*
X209904455Y-63819000D01*
X209800574Y-63829612D01*
X209632261Y-63885385D01*
X209481347Y-63978470D01*
X209481341Y-63978475D01*
X209355975Y-64103841D01*
X209355970Y-64103847D01*
X209262885Y-64254762D01*
X209207113Y-64423072D01*
X209207112Y-64423079D01*
X209196500Y-64526946D01*
X209196500Y-65728044D01*
X175806132Y-65728044D01*
X175912427Y-65621749D01*
X176005512Y-65470835D01*
X176061284Y-65302523D01*
X176071897Y-65198642D01*
X176071896Y-63997553D01*
X176061284Y-63893671D01*
X176005512Y-63725359D01*
X175912427Y-63574445D01*
X175912426Y-63574444D01*
X175912421Y-63574438D01*
X175787055Y-63449072D01*
X175787049Y-63449067D01*
X175757986Y-63431141D01*
X175636135Y-63355982D01*
X175538568Y-63323652D01*
X175467824Y-63300210D01*
X175467817Y-63300209D01*
X175363950Y-63289597D01*
X174162852Y-63289597D01*
X174058971Y-63300209D01*
X173890658Y-63355982D01*
X173739744Y-63449067D01*
X173739738Y-63449072D01*
X173614372Y-63574438D01*
X173614367Y-63574444D01*
X173521282Y-63725359D01*
X173465510Y-63893669D01*
X173465509Y-63893676D01*
X173454897Y-63997543D01*
X173454897Y-65198641D01*
X150297262Y-65198641D01*
X153525499Y-61970405D01*
X153587812Y-61936379D01*
X153614595Y-61933500D01*
X192466406Y-61933500D01*
X192534527Y-61953502D01*
X192581020Y-62007158D01*
X192591124Y-62077432D01*
X192561630Y-62142012D01*
X192555501Y-62148595D01*
X191249500Y-63454595D01*
X191187188Y-63488621D01*
X191160405Y-63491500D01*
X191104513Y-63491500D01*
X190917711Y-63531206D01*
X190743247Y-63608882D01*
X190588744Y-63721135D01*
X190460965Y-63863048D01*
X190460958Y-63863058D01*
X190365476Y-64028438D01*
X190365473Y-64028445D01*
X190306457Y-64210072D01*
X190286496Y-64400000D01*
X190306457Y-64589927D01*
X190309236Y-64598479D01*
X190365473Y-64771556D01*
X190365476Y-64771561D01*
X190460958Y-64936941D01*
X190460965Y-64936951D01*
X190588744Y-65078864D01*
X190588747Y-65078866D01*
X190743248Y-65191118D01*
X190917712Y-65268794D01*
X191104513Y-65308500D01*
X191295487Y-65308500D01*
X191482288Y-65268794D01*
X191656752Y-65191118D01*
X191811253Y-65078866D01*
X191832424Y-65055353D01*
X191939034Y-64936951D01*
X191939035Y-64936949D01*
X191939040Y-64936944D01*
X192034527Y-64771556D01*
X192093542Y-64589928D01*
X192110907Y-64424704D01*
X192137920Y-64359049D01*
X192147113Y-64348790D01*
X194525499Y-61970405D01*
X194587812Y-61936379D01*
X194614595Y-61933500D01*
X194919970Y-61933500D01*
X198119970Y-61933500D01*
X211485405Y-61933500D01*
X211553526Y-61953502D01*
X211574501Y-61970405D01*
X211831788Y-62227693D01*
X211831802Y-62227706D01*
X213801569Y-64197474D01*
X214452877Y-64848782D01*
X214486903Y-64911094D01*
X214489092Y-64924706D01*
X214506457Y-65089927D01*
X214528974Y-65159225D01*
X214565473Y-65271556D01*
X214565476Y-65271561D01*
X214660958Y-65436941D01*
X214660965Y-65436951D01*
X214788744Y-65578864D01*
X214823105Y-65603829D01*
X214943248Y-65691118D01*
X215117712Y-65768794D01*
X215304513Y-65808500D01*
X215495487Y-65808500D01*
X215682288Y-65768794D01*
X215856752Y-65691118D01*
X216011253Y-65578866D01*
X216101666Y-65478452D01*
X216139034Y-65436951D01*
X216139035Y-65436949D01*
X216139040Y-65436944D01*
X216234527Y-65271556D01*
X216293542Y-65089928D01*
X216313504Y-64900000D01*
X216293542Y-64710072D01*
X216234527Y-64528444D01*
X216139040Y-64363056D01*
X216065863Y-64281784D01*
X216035146Y-64217776D01*
X216033500Y-64197474D01*
X216033500Y-64135000D01*
X225781496Y-64135000D01*
X225801457Y-64324927D01*
X225831526Y-64417470D01*
X225860473Y-64506556D01*
X225860476Y-64506561D01*
X225924495Y-64617446D01*
X225955960Y-64671944D01*
X226028504Y-64752512D01*
X226059220Y-64816517D01*
X226060805Y-64832858D01*
X226061500Y-64854956D01*
X226061500Y-64884851D01*
X226061501Y-64884872D01*
X226062378Y-64891820D01*
X226062844Y-64897732D01*
X226064326Y-64944888D01*
X226064327Y-64944893D01*
X226069977Y-64964339D01*
X226073986Y-64983697D01*
X226076525Y-65003793D01*
X226076526Y-65003799D01*
X226093893Y-65047662D01*
X226095816Y-65053279D01*
X226108982Y-65098593D01*
X226119294Y-65116031D01*
X226127988Y-65133779D01*
X226135444Y-65152609D01*
X226135450Y-65152620D01*
X226163177Y-65190783D01*
X226166437Y-65195746D01*
X226190460Y-65236365D01*
X226204779Y-65250684D01*
X226217617Y-65265714D01*
X226227156Y-65278843D01*
X226229528Y-65282107D01*
X226254200Y-65302517D01*
X226265886Y-65312185D01*
X226270267Y-65316171D01*
X227257533Y-66303438D01*
X227577877Y-66623782D01*
X227611903Y-66686094D01*
X227614092Y-66699706D01*
X227631457Y-66864927D01*
X227655827Y-66939927D01*
X227690473Y-67046556D01*
X227690476Y-67046561D01*
X227785958Y-67211941D01*
X227785965Y-67211951D01*
X227913744Y-67353864D01*
X227956942Y-67385249D01*
X228068248Y-67466118D01*
X228242712Y-67543794D01*
X228429513Y-67583500D01*
X228620487Y-67583500D01*
X228807288Y-67543794D01*
X228981752Y-67466118D01*
X229136253Y-67353866D01*
X229140473Y-67349179D01*
X229264034Y-67211951D01*
X229264035Y-67211949D01*
X229264040Y-67211944D01*
X229359527Y-67046556D01*
X229418542Y-66864928D01*
X229438504Y-66675000D01*
X229418542Y-66485072D01*
X229359527Y-66303444D01*
X229264040Y-66138056D01*
X229264038Y-66138054D01*
X229264034Y-66138048D01*
X229136255Y-65996135D01*
X228981752Y-65883882D01*
X228807288Y-65806206D01*
X228620487Y-65766500D01*
X228564594Y-65766500D01*
X228496473Y-65746498D01*
X228475499Y-65729595D01*
X227496479Y-64750574D01*
X227462453Y-64688262D01*
X227467518Y-64617446D01*
X227476455Y-64598479D01*
X227481392Y-64589928D01*
X227529527Y-64506556D01*
X227588542Y-64324928D01*
X227608504Y-64135000D01*
X227588542Y-63945072D01*
X227529527Y-63763444D01*
X227434040Y-63598056D01*
X227434038Y-63598054D01*
X227434034Y-63598048D01*
X227306255Y-63456135D01*
X227151752Y-63343882D01*
X226977288Y-63266206D01*
X226790487Y-63226500D01*
X226599513Y-63226500D01*
X226412711Y-63266206D01*
X226238247Y-63343882D01*
X226083744Y-63456135D01*
X225955965Y-63598048D01*
X225955958Y-63598058D01*
X225860476Y-63763438D01*
X225860473Y-63763445D01*
X225801457Y-63945072D01*
X225781496Y-64135000D01*
X216033500Y-64135000D01*
X216033500Y-62077432D01*
X216033500Y-59833589D01*
X216053501Y-59765472D01*
X216107157Y-59718979D01*
X216177431Y-59708875D01*
X216242011Y-59738369D01*
X216248594Y-59744498D01*
X217217753Y-60713657D01*
X217227720Y-60726097D01*
X217227947Y-60725910D01*
X217232999Y-60732017D01*
X217233000Y-60732018D01*
X217265708Y-60762733D01*
X217284095Y-60779999D01*
X217305225Y-60801130D01*
X217310768Y-60805430D01*
X217315281Y-60809285D01*
X217349679Y-60841586D01*
X217349680Y-60841586D01*
X217349682Y-60841588D01*
X217367429Y-60851344D01*
X217383959Y-60862202D01*
X217399959Y-60874613D01*
X217425749Y-60885773D01*
X217443251Y-60893347D01*
X217448585Y-60895959D01*
X217489940Y-60918695D01*
X217509562Y-60923733D01*
X217528263Y-60930135D01*
X217540814Y-60935567D01*
X217546852Y-60938180D01*
X217546853Y-60938180D01*
X217546855Y-60938181D01*
X217593477Y-60945564D01*
X217599262Y-60946763D01*
X217644970Y-60958500D01*
X217665224Y-60958500D01*
X217684934Y-60960051D01*
X217687141Y-60960400D01*
X217704943Y-60963220D01*
X217738870Y-60960012D01*
X217751917Y-60958780D01*
X217757850Y-60958500D01*
X223446800Y-60958500D01*
X223514921Y-60978502D01*
X223540437Y-61000190D01*
X223543747Y-61003866D01*
X223698248Y-61116118D01*
X223872712Y-61193794D01*
X224059513Y-61233500D01*
X224250487Y-61233500D01*
X224437288Y-61193794D01*
X224611752Y-61116118D01*
X224766253Y-61003866D01*
X224769562Y-61000190D01*
X224830009Y-60962950D01*
X224863200Y-60958500D01*
X226621800Y-60958500D01*
X226689921Y-60978502D01*
X226715437Y-61000190D01*
X226718747Y-61003866D01*
X226873248Y-61116118D01*
X227047712Y-61193794D01*
X227234513Y-61233500D01*
X227425487Y-61233500D01*
X227612288Y-61193794D01*
X227786752Y-61116118D01*
X227941253Y-61003866D01*
X227982101Y-60958500D01*
X228069034Y-60861951D01*
X228069035Y-60861949D01*
X228069040Y-60861944D01*
X228164527Y-60696556D01*
X228223542Y-60514928D01*
X228243504Y-60325000D01*
X228223542Y-60135072D01*
X228164527Y-59953444D01*
X228069040Y-59788056D01*
X228069038Y-59788054D01*
X228069034Y-59788048D01*
X227982682Y-59692144D01*
X239062815Y-59692144D01*
X239072630Y-59923178D01*
X239121351Y-60149240D01*
X239207575Y-60363815D01*
X239207577Y-60363819D01*
X239328819Y-60560727D01*
X239328822Y-60560731D01*
X239479571Y-60732017D01*
X239481602Y-60734324D01*
X239509023Y-60756465D01*
X239549458Y-60814820D01*
X239551925Y-60885773D01*
X239515639Y-60946797D01*
X239496015Y-60961738D01*
X239351347Y-61050970D01*
X239351341Y-61050975D01*
X239225975Y-61176341D01*
X239225970Y-61176347D01*
X239132885Y-61327262D01*
X239077113Y-61495572D01*
X239077112Y-61495579D01*
X239066500Y-61599446D01*
X239066500Y-62900544D01*
X239077112Y-63004425D01*
X239132885Y-63172738D01*
X239225970Y-63323652D01*
X239225975Y-63323658D01*
X239351341Y-63449024D01*
X239351347Y-63449029D01*
X239351348Y-63449030D01*
X239502262Y-63542115D01*
X239670574Y-63597887D01*
X239774455Y-63608500D01*
X241325544Y-63608499D01*
X241429426Y-63597887D01*
X241597738Y-63542115D01*
X241748652Y-63449030D01*
X241874030Y-63323652D01*
X241967115Y-63172738D01*
X242022887Y-63004426D01*
X242033500Y-62900545D01*
X242033499Y-61599456D01*
X242022887Y-61495574D01*
X241967115Y-61327262D01*
X241874030Y-61176348D01*
X241874029Y-61176347D01*
X241874024Y-61176341D01*
X241748658Y-61050975D01*
X241748652Y-61050970D01*
X241602693Y-60960941D01*
X241555215Y-60908155D01*
X241543812Y-60838080D01*
X241572105Y-60772964D01*
X241581642Y-60762747D01*
X241698476Y-60650772D01*
X241835985Y-60464847D01*
X241940095Y-60258357D01*
X242007811Y-60037243D01*
X242037184Y-59807865D01*
X242036342Y-59788056D01*
X242027369Y-59576821D01*
X241999415Y-59447115D01*
X241978649Y-59350762D01*
X241976496Y-59345405D01*
X241953748Y-59288793D01*
X241892426Y-59136187D01*
X241869446Y-59098866D01*
X241812278Y-59006019D01*
X241771179Y-58939270D01*
X241618398Y-58765676D01*
X241438476Y-58620400D01*
X241417264Y-58608550D01*
X241367552Y-58557869D01*
X241353131Y-58488352D01*
X241378582Y-58422074D01*
X241408161Y-58394161D01*
X241531523Y-58310783D01*
X241698476Y-58150772D01*
X241835985Y-57964847D01*
X241940095Y-57758357D01*
X242007811Y-57537243D01*
X242037184Y-57307865D01*
X242035280Y-57263056D01*
X242027369Y-57076821D01*
X242008913Y-56991190D01*
X241978649Y-56850762D01*
X241976496Y-56845405D01*
X241949587Y-56778438D01*
X241892426Y-56636187D01*
X241771179Y-56439270D01*
X241618398Y-56265676D01*
X241438476Y-56120400D01*
X241416777Y-56108278D01*
X241367063Y-56057596D01*
X241352642Y-55988080D01*
X241378093Y-55921802D01*
X241407672Y-55893888D01*
X241531200Y-55810397D01*
X241531213Y-55810387D01*
X241698096Y-55650443D01*
X241698102Y-55650435D01*
X241835556Y-55464586D01*
X241939630Y-55258165D01*
X242007320Y-55037135D01*
X242011563Y-55004000D01*
X241138788Y-55004000D01*
X241070667Y-54983998D01*
X241024174Y-54930342D01*
X241014070Y-54860068D01*
X241017890Y-54842508D01*
X241025000Y-54818295D01*
X241025000Y-54681705D01*
X241017891Y-54657497D01*
X241017892Y-54586502D01*
X241056275Y-54526776D01*
X241120856Y-54497283D01*
X241138788Y-54496000D01*
X242009439Y-54496000D01*
X241978168Y-54350906D01*
X241891977Y-54136412D01*
X241770772Y-53939564D01*
X241618048Y-53766038D01*
X241618045Y-53766035D01*
X241438199Y-53620819D01*
X241236382Y-53508077D01*
X241018428Y-53431068D01*
X240804000Y-53394300D01*
X240804000Y-54161223D01*
X240783998Y-54229344D01*
X240730342Y-54275837D01*
X240660069Y-54285940D01*
X240660068Y-54285940D01*
X240583981Y-54275000D01*
X240583975Y-54275000D01*
X240516025Y-54275000D01*
X240516018Y-54275000D01*
X240439932Y-54285940D01*
X240369658Y-54275837D01*
X240316002Y-54229344D01*
X240296000Y-54161223D01*
X240296000Y-53398069D01*
X240194666Y-53406694D01*
X240194660Y-53406695D01*
X239970966Y-53464940D01*
X239760321Y-53560157D01*
X239760315Y-53560160D01*
X239568794Y-53689606D01*
X239568786Y-53689612D01*
X239401903Y-53849556D01*
X239401897Y-53849564D01*
X239264443Y-54035413D01*
X239160369Y-54241834D01*
X239092679Y-54462864D01*
X239088437Y-54496000D01*
X239961212Y-54496000D01*
X240029333Y-54516002D01*
X240075826Y-54569658D01*
X240085930Y-54639932D01*
X240082109Y-54657491D01*
X240075000Y-54681705D01*
X240075000Y-54818295D01*
X240082107Y-54842502D01*
X240082108Y-54913498D01*
X240043725Y-54973224D01*
X239979144Y-55002717D01*
X239961212Y-55004000D01*
X239090561Y-55004000D01*
X239121831Y-55149093D01*
X239208022Y-55363587D01*
X239329227Y-55560435D01*
X239481951Y-55733961D01*
X239481954Y-55733964D01*
X239661802Y-55879182D01*
X239683197Y-55891134D01*
X239732912Y-55941819D01*
X239747332Y-56011335D01*
X239721880Y-56077613D01*
X239692303Y-56105525D01*
X239568478Y-56189216D01*
X239568477Y-56189217D01*
X239401521Y-56349230D01*
X239264013Y-56535154D01*
X239159903Y-56741647D01*
X239114011Y-56891500D01*
X239092189Y-56962757D01*
X239064198Y-57181347D01*
X239062815Y-57192144D01*
X239072630Y-57423178D01*
X239121351Y-57649240D01*
X239207575Y-57863815D01*
X239207577Y-57863819D01*
X239328819Y-58060727D01*
X239328822Y-58060731D01*
X239481601Y-58234323D01*
X239608691Y-58336941D01*
X239661524Y-58379600D01*
X239682733Y-58391448D01*
X239732446Y-58442129D01*
X239746869Y-58511645D01*
X239721418Y-58577923D01*
X239691839Y-58605838D01*
X239568478Y-58689216D01*
X239568477Y-58689217D01*
X239401521Y-58849230D01*
X239264013Y-59035154D01*
X239159903Y-59241647D01*
X239121611Y-59366686D01*
X239092189Y-59462757D01*
X239077583Y-59576822D01*
X239062815Y-59692144D01*
X227982682Y-59692144D01*
X227941255Y-59646135D01*
X227817795Y-59556436D01*
X227774441Y-59500214D01*
X227768366Y-59429477D01*
X227801498Y-59366686D01*
X227863318Y-59331774D01*
X227891856Y-59328500D01*
X228060487Y-59328500D01*
X228247288Y-59288794D01*
X228421752Y-59211118D01*
X228576253Y-59098866D01*
X228579562Y-59095190D01*
X228640009Y-59057950D01*
X228673200Y-59053500D01*
X229151147Y-59053500D01*
X229166988Y-59055249D01*
X229167016Y-59054956D01*
X229174902Y-59055700D01*
X229174909Y-59055702D01*
X229244958Y-59053500D01*
X229274856Y-59053500D01*
X229281818Y-59052619D01*
X229287719Y-59052154D01*
X229334889Y-59050673D01*
X229354347Y-59045019D01*
X229373694Y-59041013D01*
X229393797Y-59038474D01*
X229437679Y-59021099D01*
X229443274Y-59019183D01*
X229471816Y-59010891D01*
X229488591Y-59006019D01*
X229488595Y-59006017D01*
X229506026Y-58995708D01*
X229523780Y-58987009D01*
X229542617Y-58979552D01*
X229580786Y-58951818D01*
X229585744Y-58948562D01*
X229626362Y-58924542D01*
X229640685Y-58910218D01*
X229655724Y-58897374D01*
X229672107Y-58885472D01*
X229702188Y-58849108D01*
X229706166Y-58844736D01*
X230455499Y-58095404D01*
X230517812Y-58061379D01*
X230544595Y-58058500D01*
X230600487Y-58058500D01*
X230787288Y-58018794D01*
X230961752Y-57941118D01*
X231116253Y-57828866D01*
X231152235Y-57788904D01*
X231244034Y-57686951D01*
X231244035Y-57686949D01*
X231244040Y-57686944D01*
X231339527Y-57521556D01*
X231398542Y-57339928D01*
X231418504Y-57150000D01*
X231398542Y-56960072D01*
X231339527Y-56778444D01*
X231244040Y-56613056D01*
X231244038Y-56613054D01*
X231244034Y-56613048D01*
X231116255Y-56471135D01*
X230961752Y-56358882D01*
X230787288Y-56281206D01*
X230600487Y-56241500D01*
X230409513Y-56241500D01*
X230222711Y-56281206D01*
X230048247Y-56358882D01*
X229893744Y-56471135D01*
X229765965Y-56613048D01*
X229765958Y-56613058D01*
X229670476Y-56778438D01*
X229670473Y-56778445D01*
X229611457Y-56960072D01*
X229594093Y-57125290D01*
X229567080Y-57190947D01*
X229557879Y-57201215D01*
X229009500Y-57749595D01*
X228947187Y-57783620D01*
X228920404Y-57786500D01*
X228673200Y-57786500D01*
X228605079Y-57766498D01*
X228579563Y-57744810D01*
X228576252Y-57741133D01*
X228421752Y-57628882D01*
X228247288Y-57551206D01*
X228060487Y-57511500D01*
X227869513Y-57511500D01*
X227682711Y-57551206D01*
X227508247Y-57628882D01*
X227353744Y-57741135D01*
X227225965Y-57883048D01*
X227225958Y-57883058D01*
X227130476Y-58048438D01*
X227130473Y-58048445D01*
X227071457Y-58230072D01*
X227051496Y-58419999D01*
X227071457Y-58609927D01*
X227091695Y-58672211D01*
X227130473Y-58791556D01*
X227130476Y-58791561D01*
X227225958Y-58956941D01*
X227225965Y-58956951D01*
X227353744Y-59098864D01*
X227477205Y-59188564D01*
X227520559Y-59244786D01*
X227526634Y-59315523D01*
X227493502Y-59378314D01*
X227431682Y-59413226D01*
X227403144Y-59416500D01*
X227234513Y-59416500D01*
X227047711Y-59456206D01*
X226873247Y-59533882D01*
X226718747Y-59646133D01*
X226715437Y-59649810D01*
X226654991Y-59687050D01*
X226621800Y-59691500D01*
X224863200Y-59691500D01*
X224795079Y-59671498D01*
X224769563Y-59649810D01*
X224766252Y-59646133D01*
X224611752Y-59533882D01*
X224437288Y-59456206D01*
X224250487Y-59416500D01*
X224059513Y-59416500D01*
X223872711Y-59456206D01*
X223698247Y-59533882D01*
X223543747Y-59646133D01*
X223540437Y-59649810D01*
X223479991Y-59687050D01*
X223446800Y-59691500D01*
X218039595Y-59691500D01*
X217971474Y-59671498D01*
X217950500Y-59654595D01*
X216147121Y-57851216D01*
X216113095Y-57788904D01*
X216110908Y-57775306D01*
X216093542Y-57610072D01*
X216034527Y-57428444D01*
X215939040Y-57263056D01*
X215939038Y-57263054D01*
X215939034Y-57263048D01*
X215811255Y-57121135D01*
X215656752Y-57008882D01*
X215482288Y-56931206D01*
X215295487Y-56891500D01*
X215104513Y-56891500D01*
X214917711Y-56931206D01*
X214743247Y-57008882D01*
X214588744Y-57121135D01*
X214460965Y-57263048D01*
X214460958Y-57263058D01*
X214368513Y-57423178D01*
X214365473Y-57428444D01*
X214350999Y-57472986D01*
X214306457Y-57610072D01*
X214286496Y-57799999D01*
X214306457Y-57989927D01*
X214329462Y-58060727D01*
X214365473Y-58171556D01*
X214365476Y-58171561D01*
X214460958Y-58336941D01*
X214460965Y-58336951D01*
X214588744Y-58478864D01*
X214714560Y-58570275D01*
X214757914Y-58626497D01*
X214766499Y-58672211D01*
X214766500Y-63066404D01*
X214746498Y-63134525D01*
X214692842Y-63181018D01*
X214622568Y-63191122D01*
X214557988Y-63161628D01*
X214551405Y-63155499D01*
X212668114Y-61272208D01*
X212668083Y-61272179D01*
X212307242Y-60911337D01*
X212297280Y-60898901D01*
X212297053Y-60899090D01*
X212292000Y-60892982D01*
X212240920Y-60845015D01*
X212219777Y-60823871D01*
X212219772Y-60823866D01*
X212214225Y-60819563D01*
X212209717Y-60815712D01*
X212175325Y-60783417D01*
X212175319Y-60783413D01*
X212157563Y-60773651D01*
X212141047Y-60762802D01*
X212125041Y-60750386D01*
X212094289Y-60737078D01*
X212081740Y-60731648D01*
X212076408Y-60729036D01*
X212035061Y-60706305D01*
X212015436Y-60701266D01*
X211996736Y-60694864D01*
X211978145Y-60686819D01*
X211978143Y-60686818D01*
X211978142Y-60686818D01*
X211931542Y-60679437D01*
X211925729Y-60678233D01*
X211880030Y-60666500D01*
X211859776Y-60666500D01*
X211840066Y-60664949D01*
X211820057Y-60661780D01*
X211820056Y-60661780D01*
X211773083Y-60666220D01*
X211767150Y-60666500D01*
X194514595Y-60666500D01*
X194446474Y-60646498D01*
X194425500Y-60629595D01*
X192546449Y-58750544D01*
X199191500Y-58750544D01*
X199202112Y-58854425D01*
X199257885Y-59022738D01*
X199350970Y-59173652D01*
X199350975Y-59173658D01*
X199476341Y-59299024D01*
X199476347Y-59299029D01*
X199476348Y-59299030D01*
X199627262Y-59392115D01*
X199795574Y-59447887D01*
X199899455Y-59458500D01*
X201100544Y-59458499D01*
X201204426Y-59447887D01*
X201372738Y-59392115D01*
X201523652Y-59299030D01*
X201649030Y-59173652D01*
X201742115Y-59022738D01*
X201797887Y-58854426D01*
X201808500Y-58750545D01*
X201808499Y-57549456D01*
X201803505Y-57500574D01*
X201797887Y-57445574D01*
X201762880Y-57339928D01*
X201742115Y-57277262D01*
X201649030Y-57126348D01*
X201649029Y-57126347D01*
X201649024Y-57126341D01*
X201523658Y-57000975D01*
X201523652Y-57000970D01*
X201523651Y-57000969D01*
X201372738Y-56907885D01*
X201288581Y-56879998D01*
X201204427Y-56852113D01*
X201204420Y-56852112D01*
X201100553Y-56841500D01*
X199899455Y-56841500D01*
X199795574Y-56852112D01*
X199627261Y-56907885D01*
X199476347Y-57000970D01*
X199476341Y-57000975D01*
X199350975Y-57126341D01*
X199350970Y-57126347D01*
X199257885Y-57277262D01*
X199202113Y-57445572D01*
X199202112Y-57445579D01*
X199191500Y-57549446D01*
X199191500Y-58750544D01*
X192546449Y-58750544D01*
X192247121Y-58451216D01*
X192213095Y-58388904D01*
X192210908Y-58375306D01*
X192193542Y-58210072D01*
X192134527Y-58028444D01*
X192039040Y-57863056D01*
X192039038Y-57863054D01*
X192039034Y-57863048D01*
X191911255Y-57721135D01*
X191756752Y-57608882D01*
X191582288Y-57531206D01*
X191395487Y-57491500D01*
X191204513Y-57491500D01*
X191017711Y-57531206D01*
X190843247Y-57608882D01*
X190688744Y-57721135D01*
X190560965Y-57863048D01*
X190560958Y-57863058D01*
X190465476Y-58028438D01*
X190465473Y-58028445D01*
X190406457Y-58210072D01*
X190386496Y-58400000D01*
X190406457Y-58589927D01*
X190412956Y-58609927D01*
X190465473Y-58771556D01*
X190465476Y-58771561D01*
X190560958Y-58936941D01*
X190560965Y-58936951D01*
X190688744Y-59078864D01*
X190749999Y-59123368D01*
X190843248Y-59191118D01*
X191017712Y-59268794D01*
X191204513Y-59308500D01*
X191260406Y-59308500D01*
X191328527Y-59328502D01*
X191349501Y-59345405D01*
X192455501Y-60451405D01*
X192489527Y-60513717D01*
X192484462Y-60584532D01*
X192441915Y-60641368D01*
X192375395Y-60666179D01*
X192366406Y-60666500D01*
X153383853Y-60666500D01*
X153368011Y-60664750D01*
X153367984Y-60665044D01*
X153360091Y-60664297D01*
X153290028Y-60666500D01*
X148314595Y-60666500D01*
X148246474Y-60646498D01*
X148225500Y-60629595D01*
X146401449Y-58805544D01*
X163051500Y-58805544D01*
X163062112Y-58909425D01*
X163117885Y-59077738D01*
X163210970Y-59228652D01*
X163210975Y-59228658D01*
X163336341Y-59354024D01*
X163336347Y-59354029D01*
X163336348Y-59354030D01*
X163487262Y-59447115D01*
X163655574Y-59502887D01*
X163759455Y-59513500D01*
X164960544Y-59513499D01*
X165064426Y-59502887D01*
X165232738Y-59447115D01*
X165383652Y-59354030D01*
X165509030Y-59228652D01*
X165602115Y-59077738D01*
X165657887Y-58909426D01*
X165668500Y-58805545D01*
X165668499Y-57604456D01*
X165662879Y-57549446D01*
X165657887Y-57500574D01*
X165604655Y-57339928D01*
X165602115Y-57332262D01*
X165509030Y-57181348D01*
X165509029Y-57181347D01*
X165509024Y-57181341D01*
X165383658Y-57055975D01*
X165383652Y-57055970D01*
X165383651Y-57055970D01*
X165232738Y-56962885D01*
X165137135Y-56931206D01*
X165064427Y-56907113D01*
X165064420Y-56907112D01*
X164960553Y-56896500D01*
X163759455Y-56896500D01*
X163655574Y-56907112D01*
X163487261Y-56962885D01*
X163336347Y-57055970D01*
X163336341Y-57055975D01*
X163210975Y-57181341D01*
X163210970Y-57181347D01*
X163117885Y-57332262D01*
X163062113Y-57500572D01*
X163062112Y-57500579D01*
X163051500Y-57604446D01*
X163051500Y-58805544D01*
X146401449Y-58805544D01*
X143547121Y-55951216D01*
X143513095Y-55888904D01*
X143510908Y-55875306D01*
X143493542Y-55710072D01*
X143434527Y-55528444D01*
X143339040Y-55363056D01*
X143339038Y-55363054D01*
X143339034Y-55363048D01*
X143211255Y-55221135D01*
X143056752Y-55108882D01*
X142882288Y-55031206D01*
X142695487Y-54991500D01*
X142504513Y-54991500D01*
X142317711Y-55031206D01*
X142143247Y-55108882D01*
X141988744Y-55221135D01*
X141860965Y-55363048D01*
X141860958Y-55363058D01*
X141765476Y-55528438D01*
X141765473Y-55528444D01*
X141750999Y-55572986D01*
X141706457Y-55710072D01*
X141686496Y-55899999D01*
X141706457Y-56089927D01*
X141716359Y-56120400D01*
X141765473Y-56271556D01*
X141793841Y-56320691D01*
X141860958Y-56436941D01*
X141860965Y-56436951D01*
X141988744Y-56578864D01*
X141988747Y-56578866D01*
X142143248Y-56691118D01*
X142317712Y-56768794D01*
X142504513Y-56808500D01*
X142560406Y-56808500D01*
X142628527Y-56828502D01*
X142649501Y-56845405D01*
X146255501Y-60451405D01*
X146289527Y-60513717D01*
X146284462Y-60584532D01*
X146241915Y-60641368D01*
X146175395Y-60666179D01*
X146166406Y-60666500D01*
X134923434Y-60666500D01*
X134855313Y-60646498D01*
X134808820Y-60592842D01*
X134798124Y-60553669D01*
X134793542Y-60510072D01*
X134781693Y-60473605D01*
X134734527Y-60328444D01*
X134639040Y-60163056D01*
X134639038Y-60163054D01*
X134639034Y-60163048D01*
X134511255Y-60021135D01*
X134356752Y-59908882D01*
X134182288Y-59831206D01*
X133995487Y-59791500D01*
X133804513Y-59791500D01*
X133617711Y-59831206D01*
X133443247Y-59908882D01*
X133288744Y-60021135D01*
X133160965Y-60163048D01*
X133160958Y-60163058D01*
X133065476Y-60328438D01*
X133065473Y-60328445D01*
X133006457Y-60510072D01*
X132986496Y-60699999D01*
X123181130Y-60699999D01*
X123165192Y-59765649D01*
X126916395Y-59765649D01*
X126927007Y-59869530D01*
X126982780Y-60037843D01*
X127075865Y-60188757D01*
X127075870Y-60188763D01*
X127201236Y-60314129D01*
X127201242Y-60314134D01*
X127201243Y-60314135D01*
X127352157Y-60407220D01*
X127520469Y-60462992D01*
X127624350Y-60473605D01*
X128825439Y-60473604D01*
X128929321Y-60462992D01*
X129097633Y-60407220D01*
X129248547Y-60314135D01*
X129373925Y-60188757D01*
X129467010Y-60037843D01*
X129522782Y-59869531D01*
X129533395Y-59765650D01*
X129533394Y-58564561D01*
X129522782Y-58460679D01*
X129467010Y-58292367D01*
X129373925Y-58141453D01*
X129373924Y-58141452D01*
X129373919Y-58141446D01*
X129248553Y-58016080D01*
X129248547Y-58016075D01*
X129206156Y-57989928D01*
X129097633Y-57922990D01*
X128977094Y-57883048D01*
X128929322Y-57867218D01*
X128929315Y-57867217D01*
X128825448Y-57856605D01*
X127624350Y-57856605D01*
X127520469Y-57867217D01*
X127352156Y-57922990D01*
X127201242Y-58016075D01*
X127201236Y-58016080D01*
X127075870Y-58141446D01*
X127075865Y-58141452D01*
X126982780Y-58292367D01*
X126927008Y-58460677D01*
X126927007Y-58460684D01*
X126916395Y-58564551D01*
X126916395Y-59765649D01*
X123165192Y-59765649D01*
X123041446Y-52511038D01*
X123060283Y-52442591D01*
X123113138Y-52395190D01*
X123183229Y-52383889D01*
X123211697Y-52390927D01*
X123550728Y-52518167D01*
X123984381Y-52637848D01*
X124427015Y-52718174D01*
X124875068Y-52758500D01*
X124875074Y-52758500D01*
X125324926Y-52758500D01*
X125324932Y-52758500D01*
X125772985Y-52718174D01*
X126215619Y-52637848D01*
X126649272Y-52518167D01*
X127070450Y-52360097D01*
X127475763Y-52164908D01*
X127475781Y-52164897D01*
X127475787Y-52164894D01*
X127861922Y-51934189D01*
X127861927Y-51934185D01*
X127861948Y-51934173D01*
X128225896Y-51669750D01*
X128225896Y-51669749D01*
X128225900Y-51669747D01*
X128305111Y-51600541D01*
X128564676Y-51373767D01*
X128875560Y-51048607D01*
X129156046Y-50696890D01*
X129403874Y-50321445D01*
X129617051Y-49925297D01*
X129793858Y-49511635D01*
X129932874Y-49083788D01*
X130032978Y-48645204D01*
X130093365Y-48199411D01*
X130113548Y-47750000D01*
X130093365Y-47300589D01*
X130091015Y-47283243D01*
X130101692Y-47213056D01*
X130148621Y-47159782D01*
X130215703Y-47140332D01*
X134054969Y-47135224D01*
X134123115Y-47155136D01*
X134169679Y-47208729D01*
X134179995Y-47278137D01*
X134156635Y-47450588D01*
X134156634Y-47450598D01*
X134136452Y-47899997D01*
X134136452Y-47900002D01*
X134156634Y-48349401D01*
X134156635Y-48349410D01*
X134217022Y-48795204D01*
X134317125Y-49233788D01*
X134456140Y-49661631D01*
X134520253Y-49811631D01*
X134632949Y-50075297D01*
X134846126Y-50471445D01*
X135093954Y-50846890D01*
X135253150Y-51046515D01*
X135374437Y-51198604D01*
X135541910Y-51373768D01*
X135685324Y-51523767D01*
X135804992Y-51628318D01*
X136024099Y-51819747D01*
X136181583Y-51934165D01*
X136388052Y-52084173D01*
X136388064Y-52084180D01*
X136388077Y-52084189D01*
X136774212Y-52314894D01*
X136774227Y-52314902D01*
X136774237Y-52314908D01*
X137179550Y-52510097D01*
X137600728Y-52668167D01*
X138034381Y-52787848D01*
X138477015Y-52868174D01*
X138925068Y-52908500D01*
X138925074Y-52908500D01*
X139374926Y-52908500D01*
X139374932Y-52908500D01*
X139822985Y-52868174D01*
X140265619Y-52787848D01*
X140699272Y-52668167D01*
X141120450Y-52510097D01*
X141525763Y-52314908D01*
X141525781Y-52314897D01*
X141525787Y-52314894D01*
X141911922Y-52084189D01*
X141911927Y-52084185D01*
X141911948Y-52084173D01*
X142275896Y-51819750D01*
X142275896Y-51819749D01*
X142275900Y-51819747D01*
X142414555Y-51698607D01*
X142614676Y-51523767D01*
X142925560Y-51198607D01*
X143206046Y-50846890D01*
X143453874Y-50471445D01*
X143667051Y-50075297D01*
X143843858Y-49661635D01*
X143982874Y-49233788D01*
X144082978Y-48795204D01*
X144143365Y-48349411D01*
X144163548Y-47900000D01*
X144143365Y-47450589D01*
X144118168Y-47264580D01*
X144128845Y-47194393D01*
X144175774Y-47141119D01*
X144242857Y-47121669D01*
X157750404Y-47103697D01*
X157818550Y-47123609D01*
X157865114Y-47177202D01*
X157875311Y-47247463D01*
X157873411Y-47257734D01*
X157817023Y-47504790D01*
X157817022Y-47504795D01*
X157756635Y-47950589D01*
X157756634Y-47950598D01*
X157736452Y-48399997D01*
X157736452Y-48400002D01*
X157756634Y-48849401D01*
X157756635Y-48849410D01*
X157817022Y-49295204D01*
X157917125Y-49733788D01*
X158056140Y-50161631D01*
X158056142Y-50161635D01*
X158232949Y-50575297D01*
X158446126Y-50971445D01*
X158693954Y-51346890D01*
X158835009Y-51523767D01*
X158974437Y-51698604D01*
X159233678Y-51969750D01*
X159285324Y-52023767D01*
X159354483Y-52084189D01*
X159624099Y-52319747D01*
X159792509Y-52442103D01*
X159988052Y-52584173D01*
X159988064Y-52584180D01*
X159988077Y-52584189D01*
X160374212Y-52814894D01*
X160374227Y-52814902D01*
X160374237Y-52814908D01*
X160779550Y-53010097D01*
X161200728Y-53168167D01*
X161634381Y-53287848D01*
X162077015Y-53368174D01*
X162525068Y-53408500D01*
X162525074Y-53408500D01*
X162974926Y-53408500D01*
X162974932Y-53408500D01*
X163422985Y-53368174D01*
X163865619Y-53287848D01*
X164299272Y-53168167D01*
X164720450Y-53010097D01*
X165125763Y-52814908D01*
X165125781Y-52814897D01*
X165125787Y-52814894D01*
X165511922Y-52584189D01*
X165511927Y-52584185D01*
X165511948Y-52584173D01*
X165875896Y-52319750D01*
X165875896Y-52319749D01*
X165875900Y-52319747D01*
X165955111Y-52250541D01*
X166214676Y-52023767D01*
X166525560Y-51698607D01*
X166806046Y-51346890D01*
X167053874Y-50971445D01*
X167267051Y-50575297D01*
X167443858Y-50161635D01*
X167582874Y-49733788D01*
X167682978Y-49295204D01*
X167743365Y-48849411D01*
X167763548Y-48400000D01*
X167743365Y-47950589D01*
X167682978Y-47504796D01*
X167623552Y-47244434D01*
X167627894Y-47173572D01*
X167669859Y-47116305D01*
X167736123Y-47090817D01*
X167746216Y-47090398D01*
X170681891Y-47086492D01*
X170750035Y-47106402D01*
X170796599Y-47159996D01*
X170806915Y-47229404D01*
X170756635Y-47600589D01*
X170756634Y-47600598D01*
X170736452Y-48049997D01*
X170736452Y-48050002D01*
X170756634Y-48499401D01*
X170756635Y-48499410D01*
X170817022Y-48945204D01*
X170917125Y-49383788D01*
X171056140Y-49811631D01*
X171232950Y-50225299D01*
X171446125Y-50621443D01*
X171446129Y-50621450D01*
X171523647Y-50738886D01*
X171693954Y-50996890D01*
X171853150Y-51196515D01*
X171974437Y-51348604D01*
X172141910Y-51523768D01*
X172285324Y-51673767D01*
X172313756Y-51698607D01*
X172624099Y-51969747D01*
X172781583Y-52084165D01*
X172988052Y-52234173D01*
X172988064Y-52234180D01*
X172988077Y-52234189D01*
X173374212Y-52464894D01*
X173374227Y-52464902D01*
X173374237Y-52464908D01*
X173779550Y-52660097D01*
X174200728Y-52818167D01*
X174634381Y-52937848D01*
X175077015Y-53018174D01*
X175525068Y-53058500D01*
X175525074Y-53058500D01*
X175974926Y-53058500D01*
X175974932Y-53058500D01*
X176422985Y-53018174D01*
X176865619Y-52937848D01*
X177299272Y-52818167D01*
X177720450Y-52660097D01*
X178125763Y-52464908D01*
X178125781Y-52464897D01*
X178125787Y-52464894D01*
X178511922Y-52234189D01*
X178511927Y-52234185D01*
X178511948Y-52234173D01*
X178875896Y-51969750D01*
X178875896Y-51969749D01*
X178875900Y-51969747D01*
X178955111Y-51900541D01*
X179214676Y-51673767D01*
X179525560Y-51348607D01*
X179806046Y-50996890D01*
X180053874Y-50621445D01*
X180267051Y-50225297D01*
X180443858Y-49811635D01*
X180582874Y-49383788D01*
X180682978Y-48945204D01*
X180743365Y-48499411D01*
X180763548Y-48050000D01*
X180743365Y-47600589D01*
X180691257Y-47215918D01*
X180701934Y-47145732D01*
X180748863Y-47092458D01*
X180815945Y-47073009D01*
X193285962Y-47056417D01*
X193354109Y-47076329D01*
X193400673Y-47129922D01*
X193410989Y-47199330D01*
X193356635Y-47600589D01*
X193356634Y-47600598D01*
X193336452Y-48049997D01*
X193336452Y-48050002D01*
X193356634Y-48499401D01*
X193356635Y-48499410D01*
X193417022Y-48945204D01*
X193517125Y-49383788D01*
X193656140Y-49811631D01*
X193832950Y-50225299D01*
X194046125Y-50621443D01*
X194046129Y-50621450D01*
X194123647Y-50738886D01*
X194293954Y-50996890D01*
X194453150Y-51196515D01*
X194574437Y-51348604D01*
X194741910Y-51523768D01*
X194885324Y-51673767D01*
X194913756Y-51698607D01*
X195224099Y-51969747D01*
X195381583Y-52084165D01*
X195588052Y-52234173D01*
X195588064Y-52234180D01*
X195588077Y-52234189D01*
X195974212Y-52464894D01*
X195974227Y-52464902D01*
X195974237Y-52464908D01*
X196379550Y-52660097D01*
X196800728Y-52818167D01*
X197234381Y-52937848D01*
X197677015Y-53018174D01*
X198125068Y-53058500D01*
X198125074Y-53058500D01*
X198574926Y-53058500D01*
X198574932Y-53058500D01*
X199022985Y-53018174D01*
X199465619Y-52937848D01*
X199899272Y-52818167D01*
X200320450Y-52660097D01*
X200725763Y-52464908D01*
X200725781Y-52464897D01*
X200725787Y-52464894D01*
X201111922Y-52234189D01*
X201111927Y-52234185D01*
X201111948Y-52234173D01*
X201475896Y-51969750D01*
X201475896Y-51969749D01*
X201475900Y-51969747D01*
X201555111Y-51900541D01*
X201814676Y-51673767D01*
X202125560Y-51348607D01*
X202406046Y-50996890D01*
X202653874Y-50621445D01*
X202867051Y-50225297D01*
X203043858Y-49811635D01*
X203182874Y-49383788D01*
X203282978Y-48945204D01*
X203343365Y-48499411D01*
X203363548Y-48050000D01*
X203343365Y-47600589D01*
X203287185Y-47185855D01*
X203297862Y-47115668D01*
X203344791Y-47062394D01*
X203411873Y-47042944D01*
X206897779Y-47038306D01*
X206965924Y-47058218D01*
X207012488Y-47111811D01*
X207022804Y-47181218D01*
X207006635Y-47300585D01*
X207006634Y-47300598D01*
X206986452Y-47749997D01*
X206986452Y-47750002D01*
X207006634Y-48199401D01*
X207006635Y-48199410D01*
X207067022Y-48645204D01*
X207167125Y-49083788D01*
X207306140Y-49511631D01*
X207306142Y-49511635D01*
X207482949Y-49925297D01*
X207696126Y-50321445D01*
X207943954Y-50696890D01*
X208103150Y-50896515D01*
X208224437Y-51048604D01*
X208511268Y-51348607D01*
X208535324Y-51373767D01*
X208654992Y-51478318D01*
X208874099Y-51669747D01*
X208913818Y-51698604D01*
X209238052Y-51934173D01*
X209238064Y-51934180D01*
X209238077Y-51934189D01*
X209624212Y-52164894D01*
X209624227Y-52164902D01*
X209624237Y-52164908D01*
X210029550Y-52360097D01*
X210450728Y-52518167D01*
X210884381Y-52637848D01*
X211327015Y-52718174D01*
X211775068Y-52758500D01*
X211775074Y-52758500D01*
X212224926Y-52758500D01*
X212224932Y-52758500D01*
X212672985Y-52718174D01*
X213115619Y-52637848D01*
X213549272Y-52518167D01*
X213970450Y-52360097D01*
X214375763Y-52164908D01*
X214375781Y-52164897D01*
X214375787Y-52164894D01*
X214761922Y-51934189D01*
X214761927Y-51934185D01*
X214761948Y-51934173D01*
X215125896Y-51669750D01*
X215125896Y-51669749D01*
X215125900Y-51669747D01*
X215205111Y-51600541D01*
X215464676Y-51373767D01*
X215775560Y-51048607D01*
X216056046Y-50696890D01*
X216303874Y-50321445D01*
X216517051Y-49925297D01*
X216693858Y-49511635D01*
X216832874Y-49083788D01*
X216932978Y-48645204D01*
X216993365Y-48199411D01*
X217013548Y-47750000D01*
X216993365Y-47300589D01*
X216975356Y-47167643D01*
X216986033Y-47097456D01*
X217032962Y-47044182D01*
X217100045Y-47024732D01*
X243079857Y-46990166D01*
X243148004Y-47010078D01*
G37*
%TD.AperFunction*%
%TD*%
M02*
