%TF.GenerationSoftware,KiCad,Pcbnew,7.0.7*%
%TF.CreationDate,2024-01-12T20:40:26-05:00*%
%TF.ProjectId,new current sensor,6e657720-6375-4727-9265-6e742073656e,rev?*%
%TF.SameCoordinates,Original*%
%TF.FileFunction,Legend,Top*%
%TF.FilePolarity,Positive*%
%FSLAX46Y46*%
G04 Gerber Fmt 4.6, Leading zero omitted, Abs format (unit mm)*
G04 Created by KiCad (PCBNEW 7.0.7) date 2024-01-12 20:40:26*
%MOMM*%
%LPD*%
G01*
G04 APERTURE LIST*
%ADD10C,0.150000*%
%ADD11C,0.120000*%
G04 APERTURE END LIST*
D10*
X239966666Y-33854819D02*
X239633333Y-33378628D01*
X239395238Y-33854819D02*
X239395238Y-32854819D01*
X239395238Y-32854819D02*
X239776190Y-32854819D01*
X239776190Y-32854819D02*
X239871428Y-32902438D01*
X239871428Y-32902438D02*
X239919047Y-32950057D01*
X239919047Y-32950057D02*
X239966666Y-33045295D01*
X239966666Y-33045295D02*
X239966666Y-33188152D01*
X239966666Y-33188152D02*
X239919047Y-33283390D01*
X239919047Y-33283390D02*
X239871428Y-33331009D01*
X239871428Y-33331009D02*
X239776190Y-33378628D01*
X239776190Y-33378628D02*
X239395238Y-33378628D01*
X240395238Y-33331009D02*
X240728571Y-33331009D01*
X240871428Y-33854819D02*
X240395238Y-33854819D01*
X240395238Y-33854819D02*
X240395238Y-32854819D01*
X240395238Y-32854819D02*
X240871428Y-32854819D01*
X241633333Y-33331009D02*
X241300000Y-33331009D01*
X241300000Y-33854819D02*
X241300000Y-32854819D01*
X241300000Y-32854819D02*
X241776190Y-32854819D01*
X242300000Y-32854819D02*
X242300000Y-33092914D01*
X242061905Y-32997676D02*
X242300000Y-33092914D01*
X242300000Y-33092914D02*
X242538095Y-32997676D01*
X242157143Y-33283390D02*
X242300000Y-33092914D01*
X242300000Y-33092914D02*
X242442857Y-33283390D01*
X243061905Y-32854819D02*
X243061905Y-33092914D01*
X242823810Y-32997676D02*
X243061905Y-33092914D01*
X243061905Y-33092914D02*
X243300000Y-32997676D01*
X242919048Y-33283390D02*
X243061905Y-33092914D01*
X243061905Y-33092914D02*
X243204762Y-33283390D01*
X106616666Y-33854819D02*
X106283333Y-33378628D01*
X106045238Y-33854819D02*
X106045238Y-32854819D01*
X106045238Y-32854819D02*
X106426190Y-32854819D01*
X106426190Y-32854819D02*
X106521428Y-32902438D01*
X106521428Y-32902438D02*
X106569047Y-32950057D01*
X106569047Y-32950057D02*
X106616666Y-33045295D01*
X106616666Y-33045295D02*
X106616666Y-33188152D01*
X106616666Y-33188152D02*
X106569047Y-33283390D01*
X106569047Y-33283390D02*
X106521428Y-33331009D01*
X106521428Y-33331009D02*
X106426190Y-33378628D01*
X106426190Y-33378628D02*
X106045238Y-33378628D01*
X107045238Y-33331009D02*
X107378571Y-33331009D01*
X107521428Y-33854819D02*
X107045238Y-33854819D01*
X107045238Y-33854819D02*
X107045238Y-32854819D01*
X107045238Y-32854819D02*
X107521428Y-32854819D01*
X108283333Y-33331009D02*
X107950000Y-33331009D01*
X107950000Y-33854819D02*
X107950000Y-32854819D01*
X107950000Y-32854819D02*
X108426190Y-32854819D01*
X108950000Y-32854819D02*
X108950000Y-33092914D01*
X108711905Y-32997676D02*
X108950000Y-33092914D01*
X108950000Y-33092914D02*
X109188095Y-32997676D01*
X108807143Y-33283390D02*
X108950000Y-33092914D01*
X108950000Y-33092914D02*
X109092857Y-33283390D01*
X109711905Y-32854819D02*
X109711905Y-33092914D01*
X109473810Y-32997676D02*
X109711905Y-33092914D01*
X109711905Y-33092914D02*
X109950000Y-32997676D01*
X109569048Y-33283390D02*
X109711905Y-33092914D01*
X109711905Y-33092914D02*
X109854762Y-33283390D01*
X106616666Y-78304819D02*
X106283333Y-77828628D01*
X106045238Y-78304819D02*
X106045238Y-77304819D01*
X106045238Y-77304819D02*
X106426190Y-77304819D01*
X106426190Y-77304819D02*
X106521428Y-77352438D01*
X106521428Y-77352438D02*
X106569047Y-77400057D01*
X106569047Y-77400057D02*
X106616666Y-77495295D01*
X106616666Y-77495295D02*
X106616666Y-77638152D01*
X106616666Y-77638152D02*
X106569047Y-77733390D01*
X106569047Y-77733390D02*
X106521428Y-77781009D01*
X106521428Y-77781009D02*
X106426190Y-77828628D01*
X106426190Y-77828628D02*
X106045238Y-77828628D01*
X107045238Y-77781009D02*
X107378571Y-77781009D01*
X107521428Y-78304819D02*
X107045238Y-78304819D01*
X107045238Y-78304819D02*
X107045238Y-77304819D01*
X107045238Y-77304819D02*
X107521428Y-77304819D01*
X108283333Y-77781009D02*
X107950000Y-77781009D01*
X107950000Y-78304819D02*
X107950000Y-77304819D01*
X107950000Y-77304819D02*
X108426190Y-77304819D01*
X108950000Y-77304819D02*
X108950000Y-77542914D01*
X108711905Y-77447676D02*
X108950000Y-77542914D01*
X108950000Y-77542914D02*
X109188095Y-77447676D01*
X108807143Y-77733390D02*
X108950000Y-77542914D01*
X108950000Y-77542914D02*
X109092857Y-77733390D01*
X109711905Y-77304819D02*
X109711905Y-77542914D01*
X109473810Y-77447676D02*
X109711905Y-77542914D01*
X109711905Y-77542914D02*
X109950000Y-77447676D01*
X109569048Y-77733390D02*
X109711905Y-77542914D01*
X109711905Y-77542914D02*
X109854762Y-77733390D01*
X239966666Y-78304819D02*
X239633333Y-77828628D01*
X239395238Y-78304819D02*
X239395238Y-77304819D01*
X239395238Y-77304819D02*
X239776190Y-77304819D01*
X239776190Y-77304819D02*
X239871428Y-77352438D01*
X239871428Y-77352438D02*
X239919047Y-77400057D01*
X239919047Y-77400057D02*
X239966666Y-77495295D01*
X239966666Y-77495295D02*
X239966666Y-77638152D01*
X239966666Y-77638152D02*
X239919047Y-77733390D01*
X239919047Y-77733390D02*
X239871428Y-77781009D01*
X239871428Y-77781009D02*
X239776190Y-77828628D01*
X239776190Y-77828628D02*
X239395238Y-77828628D01*
X240395238Y-77781009D02*
X240728571Y-77781009D01*
X240871428Y-78304819D02*
X240395238Y-78304819D01*
X240395238Y-78304819D02*
X240395238Y-77304819D01*
X240395238Y-77304819D02*
X240871428Y-77304819D01*
X241633333Y-77781009D02*
X241300000Y-77781009D01*
X241300000Y-78304819D02*
X241300000Y-77304819D01*
X241300000Y-77304819D02*
X241776190Y-77304819D01*
X242300000Y-77304819D02*
X242300000Y-77542914D01*
X242061905Y-77447676D02*
X242300000Y-77542914D01*
X242300000Y-77542914D02*
X242538095Y-77447676D01*
X242157143Y-77733390D02*
X242300000Y-77542914D01*
X242300000Y-77542914D02*
X242442857Y-77733390D01*
X243061905Y-77304819D02*
X243061905Y-77542914D01*
X242823810Y-77447676D02*
X243061905Y-77542914D01*
X243061905Y-77542914D02*
X243300000Y-77447676D01*
X242919048Y-77733390D02*
X243061905Y-77542914D01*
X243061905Y-77542914D02*
X243204762Y-77733390D01*
X230234819Y-53466904D02*
X231044342Y-53466904D01*
X231044342Y-53466904D02*
X231139580Y-53419285D01*
X231139580Y-53419285D02*
X231187200Y-53371666D01*
X231187200Y-53371666D02*
X231234819Y-53276428D01*
X231234819Y-53276428D02*
X231234819Y-53085952D01*
X231234819Y-53085952D02*
X231187200Y-52990714D01*
X231187200Y-52990714D02*
X231139580Y-52943095D01*
X231139580Y-52943095D02*
X231044342Y-52895476D01*
X231044342Y-52895476D02*
X230234819Y-52895476D01*
X230234819Y-52514523D02*
X230234819Y-51847857D01*
X230234819Y-51847857D02*
X231234819Y-52276428D01*
X230722261Y-52269580D02*
X230674642Y-52317200D01*
X230674642Y-52317200D02*
X230531785Y-52364819D01*
X230531785Y-52364819D02*
X230436547Y-52364819D01*
X230436547Y-52364819D02*
X230293690Y-52317200D01*
X230293690Y-52317200D02*
X230198452Y-52221961D01*
X230198452Y-52221961D02*
X230150833Y-52126723D01*
X230150833Y-52126723D02*
X230103214Y-51936247D01*
X230103214Y-51936247D02*
X230103214Y-51793390D01*
X230103214Y-51793390D02*
X230150833Y-51602914D01*
X230150833Y-51602914D02*
X230198452Y-51507676D01*
X230198452Y-51507676D02*
X230293690Y-51412438D01*
X230293690Y-51412438D02*
X230436547Y-51364819D01*
X230436547Y-51364819D02*
X230531785Y-51364819D01*
X230531785Y-51364819D02*
X230674642Y-51412438D01*
X230674642Y-51412438D02*
X230722261Y-51460057D01*
X231150833Y-52364819D02*
X231150833Y-51364819D01*
X231150833Y-51364819D02*
X231388928Y-51364819D01*
X231388928Y-51364819D02*
X231531785Y-51412438D01*
X231531785Y-51412438D02*
X231627023Y-51507676D01*
X231627023Y-51507676D02*
X231674642Y-51602914D01*
X231674642Y-51602914D02*
X231722261Y-51793390D01*
X231722261Y-51793390D02*
X231722261Y-51936247D01*
X231722261Y-51936247D02*
X231674642Y-52126723D01*
X231674642Y-52126723D02*
X231627023Y-52221961D01*
X231627023Y-52221961D02*
X231531785Y-52317200D01*
X231531785Y-52317200D02*
X231388928Y-52364819D01*
X231388928Y-52364819D02*
X231150833Y-52364819D01*
X232007976Y-51364819D02*
X232341309Y-52364819D01*
X232341309Y-52364819D02*
X232674642Y-51364819D01*
X233007976Y-52364819D02*
X233007976Y-51364819D01*
X233007976Y-51364819D02*
X233246071Y-51364819D01*
X233246071Y-51364819D02*
X233388928Y-51412438D01*
X233388928Y-51412438D02*
X233484166Y-51507676D01*
X233484166Y-51507676D02*
X233531785Y-51602914D01*
X233531785Y-51602914D02*
X233579404Y-51793390D01*
X233579404Y-51793390D02*
X233579404Y-51936247D01*
X233579404Y-51936247D02*
X233531785Y-52126723D01*
X233531785Y-52126723D02*
X233484166Y-52221961D01*
X233484166Y-52221961D02*
X233388928Y-52317200D01*
X233388928Y-52317200D02*
X233246071Y-52364819D01*
X233246071Y-52364819D02*
X233007976Y-52364819D01*
X234007976Y-52364819D02*
X234007976Y-51364819D01*
X234007976Y-51364819D02*
X234246071Y-51364819D01*
X234246071Y-51364819D02*
X234388928Y-51412438D01*
X234388928Y-51412438D02*
X234484166Y-51507676D01*
X234484166Y-51507676D02*
X234531785Y-51602914D01*
X234531785Y-51602914D02*
X234579404Y-51793390D01*
X234579404Y-51793390D02*
X234579404Y-51936247D01*
X234579404Y-51936247D02*
X234531785Y-52126723D01*
X234531785Y-52126723D02*
X234484166Y-52221961D01*
X234484166Y-52221961D02*
X234388928Y-52317200D01*
X234388928Y-52317200D02*
X234246071Y-52364819D01*
X234246071Y-52364819D02*
X234007976Y-52364819D01*
X235531785Y-52364819D02*
X234960357Y-52364819D01*
X235246071Y-52364819D02*
X235246071Y-51364819D01*
X235246071Y-51364819D02*
X235150833Y-51507676D01*
X235150833Y-51507676D02*
X235055595Y-51602914D01*
X235055595Y-51602914D02*
X234960357Y-51650533D01*
X164704819Y-67941904D02*
X165514342Y-67941904D01*
X165514342Y-67941904D02*
X165609580Y-67894285D01*
X165609580Y-67894285D02*
X165657200Y-67846666D01*
X165657200Y-67846666D02*
X165704819Y-67751428D01*
X165704819Y-67751428D02*
X165704819Y-67560952D01*
X165704819Y-67560952D02*
X165657200Y-67465714D01*
X165657200Y-67465714D02*
X165609580Y-67418095D01*
X165609580Y-67418095D02*
X165514342Y-67370476D01*
X165514342Y-67370476D02*
X164704819Y-67370476D01*
X164704819Y-66989523D02*
X164704819Y-66370476D01*
X164704819Y-66370476D02*
X165085771Y-66703809D01*
X165085771Y-66703809D02*
X165085771Y-66560952D01*
X165085771Y-66560952D02*
X165133390Y-66465714D01*
X165133390Y-66465714D02*
X165181009Y-66418095D01*
X165181009Y-66418095D02*
X165276247Y-66370476D01*
X165276247Y-66370476D02*
X165514342Y-66370476D01*
X165514342Y-66370476D02*
X165609580Y-66418095D01*
X165609580Y-66418095D02*
X165657200Y-66465714D01*
X165657200Y-66465714D02*
X165704819Y-66560952D01*
X165704819Y-66560952D02*
X165704819Y-66846666D01*
X165704819Y-66846666D02*
X165657200Y-66941904D01*
X165657200Y-66941904D02*
X165609580Y-66989523D01*
X225930833Y-58339819D02*
X225597500Y-57863628D01*
X225359405Y-58339819D02*
X225359405Y-57339819D01*
X225359405Y-57339819D02*
X225740357Y-57339819D01*
X225740357Y-57339819D02*
X225835595Y-57387438D01*
X225835595Y-57387438D02*
X225883214Y-57435057D01*
X225883214Y-57435057D02*
X225930833Y-57530295D01*
X225930833Y-57530295D02*
X225930833Y-57673152D01*
X225930833Y-57673152D02*
X225883214Y-57768390D01*
X225883214Y-57768390D02*
X225835595Y-57816009D01*
X225835595Y-57816009D02*
X225740357Y-57863628D01*
X225740357Y-57863628D02*
X225359405Y-57863628D01*
X226883214Y-58339819D02*
X226311786Y-58339819D01*
X226597500Y-58339819D02*
X226597500Y-57339819D01*
X226597500Y-57339819D02*
X226502262Y-57482676D01*
X226502262Y-57482676D02*
X226407024Y-57577914D01*
X226407024Y-57577914D02*
X226311786Y-57625533D01*
X135234819Y-67118928D02*
X134758628Y-67452261D01*
X135234819Y-67690356D02*
X134234819Y-67690356D01*
X134234819Y-67690356D02*
X134234819Y-67309404D01*
X134234819Y-67309404D02*
X134282438Y-67214166D01*
X134282438Y-67214166D02*
X134330057Y-67166547D01*
X134330057Y-67166547D02*
X134425295Y-67118928D01*
X134425295Y-67118928D02*
X134568152Y-67118928D01*
X134568152Y-67118928D02*
X134663390Y-67166547D01*
X134663390Y-67166547D02*
X134711009Y-67214166D01*
X134711009Y-67214166D02*
X134758628Y-67309404D01*
X134758628Y-67309404D02*
X134758628Y-67690356D01*
X134568152Y-66690356D02*
X135568152Y-66690356D01*
X134615771Y-66690356D02*
X134568152Y-66595118D01*
X134568152Y-66595118D02*
X134568152Y-66404642D01*
X134568152Y-66404642D02*
X134615771Y-66309404D01*
X134615771Y-66309404D02*
X134663390Y-66261785D01*
X134663390Y-66261785D02*
X134758628Y-66214166D01*
X134758628Y-66214166D02*
X135044342Y-66214166D01*
X135044342Y-66214166D02*
X135139580Y-66261785D01*
X135139580Y-66261785D02*
X135187200Y-66309404D01*
X135187200Y-66309404D02*
X135234819Y-66404642D01*
X135234819Y-66404642D02*
X135234819Y-66595118D01*
X135234819Y-66595118D02*
X135187200Y-66690356D01*
X134568152Y-65357023D02*
X135234819Y-65357023D01*
X134568152Y-65785594D02*
X135091961Y-65785594D01*
X135091961Y-65785594D02*
X135187200Y-65737975D01*
X135187200Y-65737975D02*
X135234819Y-65642737D01*
X135234819Y-65642737D02*
X135234819Y-65499880D01*
X135234819Y-65499880D02*
X135187200Y-65404642D01*
X135187200Y-65404642D02*
X135139580Y-65357023D01*
X135234819Y-64357023D02*
X135234819Y-64928451D01*
X135234819Y-64642737D02*
X134234819Y-64642737D01*
X134234819Y-64642737D02*
X134377676Y-64737975D01*
X134377676Y-64737975D02*
X134472914Y-64833213D01*
X134472914Y-64833213D02*
X134520533Y-64928451D01*
X136687234Y-61909619D02*
X137258662Y-61909619D01*
X136972948Y-62909619D02*
X136972948Y-61909619D01*
X137591996Y-62909619D02*
X137591996Y-61909619D01*
X137591996Y-61909619D02*
X137972948Y-61909619D01*
X137972948Y-61909619D02*
X138068186Y-61957238D01*
X138068186Y-61957238D02*
X138115805Y-62004857D01*
X138115805Y-62004857D02*
X138163424Y-62100095D01*
X138163424Y-62100095D02*
X138163424Y-62242952D01*
X138163424Y-62242952D02*
X138115805Y-62338190D01*
X138115805Y-62338190D02*
X138068186Y-62385809D01*
X138068186Y-62385809D02*
X137972948Y-62433428D01*
X137972948Y-62433428D02*
X137591996Y-62433428D01*
X139115805Y-62909619D02*
X138544377Y-62909619D01*
X138830091Y-62909619D02*
X138830091Y-61909619D01*
X138830091Y-61909619D02*
X138734853Y-62052476D01*
X138734853Y-62052476D02*
X138639615Y-62147714D01*
X138639615Y-62147714D02*
X138544377Y-62195333D01*
X164768216Y-76174286D02*
X163768216Y-76174286D01*
X164244406Y-76174286D02*
X164244406Y-75602858D01*
X164768216Y-75602858D02*
X163768216Y-75602858D01*
X163768216Y-74698096D02*
X163768216Y-74888572D01*
X163768216Y-74888572D02*
X163815835Y-74983810D01*
X163815835Y-74983810D02*
X163863454Y-75031429D01*
X163863454Y-75031429D02*
X164006311Y-75126667D01*
X164006311Y-75126667D02*
X164196787Y-75174286D01*
X164196787Y-75174286D02*
X164577739Y-75174286D01*
X164577739Y-75174286D02*
X164672977Y-75126667D01*
X164672977Y-75126667D02*
X164720597Y-75079048D01*
X164720597Y-75079048D02*
X164768216Y-74983810D01*
X164768216Y-74983810D02*
X164768216Y-74793334D01*
X164768216Y-74793334D02*
X164720597Y-74698096D01*
X164720597Y-74698096D02*
X164672977Y-74650477D01*
X164672977Y-74650477D02*
X164577739Y-74602858D01*
X164577739Y-74602858D02*
X164339644Y-74602858D01*
X164339644Y-74602858D02*
X164244406Y-74650477D01*
X164244406Y-74650477D02*
X164196787Y-74698096D01*
X164196787Y-74698096D02*
X164149168Y-74793334D01*
X164149168Y-74793334D02*
X164149168Y-74983810D01*
X164149168Y-74983810D02*
X164196787Y-75079048D01*
X164196787Y-75079048D02*
X164244406Y-75126667D01*
X164244406Y-75126667D02*
X164339644Y-75174286D01*
X164672977Y-74174286D02*
X164720597Y-74126667D01*
X164720597Y-74126667D02*
X164768216Y-74174286D01*
X164768216Y-74174286D02*
X164720597Y-74221905D01*
X164720597Y-74221905D02*
X164672977Y-74174286D01*
X164672977Y-74174286D02*
X164768216Y-74174286D01*
X164768216Y-73174287D02*
X164768216Y-73745715D01*
X164768216Y-73460001D02*
X163768216Y-73460001D01*
X163768216Y-73460001D02*
X163911073Y-73555239D01*
X163911073Y-73555239D02*
X164006311Y-73650477D01*
X164006311Y-73650477D02*
X164053930Y-73745715D01*
X214279819Y-75876189D02*
X213279819Y-75876189D01*
X213756009Y-75876189D02*
X213756009Y-75304761D01*
X214279819Y-75304761D02*
X213279819Y-75304761D01*
X213279819Y-74352380D02*
X213279819Y-74828570D01*
X213279819Y-74828570D02*
X213756009Y-74876189D01*
X213756009Y-74876189D02*
X213708390Y-74828570D01*
X213708390Y-74828570D02*
X213660771Y-74733332D01*
X213660771Y-74733332D02*
X213660771Y-74495237D01*
X213660771Y-74495237D02*
X213708390Y-74399999D01*
X213708390Y-74399999D02*
X213756009Y-74352380D01*
X213756009Y-74352380D02*
X213851247Y-74304761D01*
X213851247Y-74304761D02*
X214089342Y-74304761D01*
X214089342Y-74304761D02*
X214184580Y-74352380D01*
X214184580Y-74352380D02*
X214232200Y-74399999D01*
X214232200Y-74399999D02*
X214279819Y-74495237D01*
X214279819Y-74495237D02*
X214279819Y-74733332D01*
X214279819Y-74733332D02*
X214232200Y-74828570D01*
X214232200Y-74828570D02*
X214184580Y-74876189D01*
X214184580Y-73876189D02*
X214232200Y-73828570D01*
X214232200Y-73828570D02*
X214279819Y-73876189D01*
X214279819Y-73876189D02*
X214232200Y-73923808D01*
X214232200Y-73923808D02*
X214184580Y-73876189D01*
X214184580Y-73876189D02*
X214279819Y-73876189D01*
X213375057Y-73447618D02*
X213327438Y-73399999D01*
X213327438Y-73399999D02*
X213279819Y-73304761D01*
X213279819Y-73304761D02*
X213279819Y-73066666D01*
X213279819Y-73066666D02*
X213327438Y-72971428D01*
X213327438Y-72971428D02*
X213375057Y-72923809D01*
X213375057Y-72923809D02*
X213470295Y-72876190D01*
X213470295Y-72876190D02*
X213565533Y-72876190D01*
X213565533Y-72876190D02*
X213708390Y-72923809D01*
X213708390Y-72923809D02*
X214279819Y-73495237D01*
X214279819Y-73495237D02*
X214279819Y-72876190D01*
X230793690Y-54174580D02*
X230746071Y-54222200D01*
X230746071Y-54222200D02*
X230603214Y-54269819D01*
X230603214Y-54269819D02*
X230507976Y-54269819D01*
X230507976Y-54269819D02*
X230365119Y-54222200D01*
X230365119Y-54222200D02*
X230269881Y-54126961D01*
X230269881Y-54126961D02*
X230222262Y-54031723D01*
X230222262Y-54031723D02*
X230174643Y-53841247D01*
X230174643Y-53841247D02*
X230174643Y-53698390D01*
X230174643Y-53698390D02*
X230222262Y-53507914D01*
X230222262Y-53507914D02*
X230269881Y-53412676D01*
X230269881Y-53412676D02*
X230365119Y-53317438D01*
X230365119Y-53317438D02*
X230507976Y-53269819D01*
X230507976Y-53269819D02*
X230603214Y-53269819D01*
X230603214Y-53269819D02*
X230746071Y-53317438D01*
X230746071Y-53317438D02*
X230793690Y-53365057D01*
X231174643Y-53984104D02*
X231650833Y-53984104D01*
X231079405Y-54269819D02*
X231412738Y-53269819D01*
X231412738Y-53269819D02*
X231746071Y-54269819D01*
X231936548Y-53269819D02*
X232269881Y-54269819D01*
X232269881Y-54269819D02*
X232603214Y-53269819D01*
X232936548Y-54269819D02*
X232936548Y-53269819D01*
X232936548Y-53269819D02*
X233174643Y-53269819D01*
X233174643Y-53269819D02*
X233317500Y-53317438D01*
X233317500Y-53317438D02*
X233412738Y-53412676D01*
X233412738Y-53412676D02*
X233460357Y-53507914D01*
X233460357Y-53507914D02*
X233507976Y-53698390D01*
X233507976Y-53698390D02*
X233507976Y-53841247D01*
X233507976Y-53841247D02*
X233460357Y-54031723D01*
X233460357Y-54031723D02*
X233412738Y-54126961D01*
X233412738Y-54126961D02*
X233317500Y-54222200D01*
X233317500Y-54222200D02*
X233174643Y-54269819D01*
X233174643Y-54269819D02*
X232936548Y-54269819D01*
X233936548Y-54269819D02*
X233936548Y-53269819D01*
X233936548Y-53269819D02*
X234174643Y-53269819D01*
X234174643Y-53269819D02*
X234317500Y-53317438D01*
X234317500Y-53317438D02*
X234412738Y-53412676D01*
X234412738Y-53412676D02*
X234460357Y-53507914D01*
X234460357Y-53507914D02*
X234507976Y-53698390D01*
X234507976Y-53698390D02*
X234507976Y-53841247D01*
X234507976Y-53841247D02*
X234460357Y-54031723D01*
X234460357Y-54031723D02*
X234412738Y-54126961D01*
X234412738Y-54126961D02*
X234317500Y-54222200D01*
X234317500Y-54222200D02*
X234174643Y-54269819D01*
X234174643Y-54269819D02*
X233936548Y-54269819D01*
X235460357Y-54269819D02*
X234888929Y-54269819D01*
X235174643Y-54269819D02*
X235174643Y-53269819D01*
X235174643Y-53269819D02*
X235079405Y-53412676D01*
X235079405Y-53412676D02*
X234984167Y-53507914D01*
X234984167Y-53507914D02*
X234888929Y-53555533D01*
X134819714Y-55736799D02*
X135629237Y-55736799D01*
X135629237Y-55736799D02*
X135724475Y-55689180D01*
X135724475Y-55689180D02*
X135772095Y-55641561D01*
X135772095Y-55641561D02*
X135819714Y-55546323D01*
X135819714Y-55546323D02*
X135819714Y-55355847D01*
X135819714Y-55355847D02*
X135772095Y-55260609D01*
X135772095Y-55260609D02*
X135724475Y-55212990D01*
X135724475Y-55212990D02*
X135629237Y-55165371D01*
X135629237Y-55165371D02*
X134819714Y-55165371D01*
X134819714Y-54260609D02*
X134819714Y-54451085D01*
X134819714Y-54451085D02*
X134867333Y-54546323D01*
X134867333Y-54546323D02*
X134914952Y-54593942D01*
X134914952Y-54593942D02*
X135057809Y-54689180D01*
X135057809Y-54689180D02*
X135248285Y-54736799D01*
X135248285Y-54736799D02*
X135629237Y-54736799D01*
X135629237Y-54736799D02*
X135724475Y-54689180D01*
X135724475Y-54689180D02*
X135772095Y-54641561D01*
X135772095Y-54641561D02*
X135819714Y-54546323D01*
X135819714Y-54546323D02*
X135819714Y-54355847D01*
X135819714Y-54355847D02*
X135772095Y-54260609D01*
X135772095Y-54260609D02*
X135724475Y-54212990D01*
X135724475Y-54212990D02*
X135629237Y-54165371D01*
X135629237Y-54165371D02*
X135391142Y-54165371D01*
X135391142Y-54165371D02*
X135295904Y-54212990D01*
X135295904Y-54212990D02*
X135248285Y-54260609D01*
X135248285Y-54260609D02*
X135200666Y-54355847D01*
X135200666Y-54355847D02*
X135200666Y-54546323D01*
X135200666Y-54546323D02*
X135248285Y-54641561D01*
X135248285Y-54641561D02*
X135295904Y-54689180D01*
X135295904Y-54689180D02*
X135391142Y-54736799D01*
X229740833Y-59609819D02*
X229407500Y-59133628D01*
X229169405Y-59609819D02*
X229169405Y-58609819D01*
X229169405Y-58609819D02*
X229550357Y-58609819D01*
X229550357Y-58609819D02*
X229645595Y-58657438D01*
X229645595Y-58657438D02*
X229693214Y-58705057D01*
X229693214Y-58705057D02*
X229740833Y-58800295D01*
X229740833Y-58800295D02*
X229740833Y-58943152D01*
X229740833Y-58943152D02*
X229693214Y-59038390D01*
X229693214Y-59038390D02*
X229645595Y-59086009D01*
X229645595Y-59086009D02*
X229550357Y-59133628D01*
X229550357Y-59133628D02*
X229169405Y-59133628D01*
X230121786Y-58705057D02*
X230169405Y-58657438D01*
X230169405Y-58657438D02*
X230264643Y-58609819D01*
X230264643Y-58609819D02*
X230502738Y-58609819D01*
X230502738Y-58609819D02*
X230597976Y-58657438D01*
X230597976Y-58657438D02*
X230645595Y-58705057D01*
X230645595Y-58705057D02*
X230693214Y-58800295D01*
X230693214Y-58800295D02*
X230693214Y-58895533D01*
X230693214Y-58895533D02*
X230645595Y-59038390D01*
X230645595Y-59038390D02*
X230074167Y-59609819D01*
X230074167Y-59609819D02*
X230693214Y-59609819D01*
X187348216Y-75474286D02*
X186348216Y-75474286D01*
X186824406Y-75474286D02*
X186824406Y-74902858D01*
X187348216Y-74902858D02*
X186348216Y-74902858D01*
X186348216Y-73998096D02*
X186348216Y-74188572D01*
X186348216Y-74188572D02*
X186395835Y-74283810D01*
X186395835Y-74283810D02*
X186443454Y-74331429D01*
X186443454Y-74331429D02*
X186586311Y-74426667D01*
X186586311Y-74426667D02*
X186776787Y-74474286D01*
X186776787Y-74474286D02*
X187157739Y-74474286D01*
X187157739Y-74474286D02*
X187252977Y-74426667D01*
X187252977Y-74426667D02*
X187300597Y-74379048D01*
X187300597Y-74379048D02*
X187348216Y-74283810D01*
X187348216Y-74283810D02*
X187348216Y-74093334D01*
X187348216Y-74093334D02*
X187300597Y-73998096D01*
X187300597Y-73998096D02*
X187252977Y-73950477D01*
X187252977Y-73950477D02*
X187157739Y-73902858D01*
X187157739Y-73902858D02*
X186919644Y-73902858D01*
X186919644Y-73902858D02*
X186824406Y-73950477D01*
X186824406Y-73950477D02*
X186776787Y-73998096D01*
X186776787Y-73998096D02*
X186729168Y-74093334D01*
X186729168Y-74093334D02*
X186729168Y-74283810D01*
X186729168Y-74283810D02*
X186776787Y-74379048D01*
X186776787Y-74379048D02*
X186824406Y-74426667D01*
X186824406Y-74426667D02*
X186919644Y-74474286D01*
X187252977Y-73474286D02*
X187300597Y-73426667D01*
X187300597Y-73426667D02*
X187348216Y-73474286D01*
X187348216Y-73474286D02*
X187300597Y-73521905D01*
X187300597Y-73521905D02*
X187252977Y-73474286D01*
X187252977Y-73474286D02*
X187348216Y-73474286D01*
X186443454Y-73045715D02*
X186395835Y-72998096D01*
X186395835Y-72998096D02*
X186348216Y-72902858D01*
X186348216Y-72902858D02*
X186348216Y-72664763D01*
X186348216Y-72664763D02*
X186395835Y-72569525D01*
X186395835Y-72569525D02*
X186443454Y-72521906D01*
X186443454Y-72521906D02*
X186538692Y-72474287D01*
X186538692Y-72474287D02*
X186633930Y-72474287D01*
X186633930Y-72474287D02*
X186776787Y-72521906D01*
X186776787Y-72521906D02*
X187348216Y-73093334D01*
X187348216Y-73093334D02*
X187348216Y-72474287D01*
X128454819Y-67941904D02*
X129264342Y-67941904D01*
X129264342Y-67941904D02*
X129359580Y-67894285D01*
X129359580Y-67894285D02*
X129407200Y-67846666D01*
X129407200Y-67846666D02*
X129454819Y-67751428D01*
X129454819Y-67751428D02*
X129454819Y-67560952D01*
X129454819Y-67560952D02*
X129407200Y-67465714D01*
X129407200Y-67465714D02*
X129359580Y-67418095D01*
X129359580Y-67418095D02*
X129264342Y-67370476D01*
X129264342Y-67370476D02*
X128454819Y-67370476D01*
X129454819Y-66370476D02*
X129454819Y-66941904D01*
X129454819Y-66656190D02*
X128454819Y-66656190D01*
X128454819Y-66656190D02*
X128597676Y-66751428D01*
X128597676Y-66751428D02*
X128692914Y-66846666D01*
X128692914Y-66846666D02*
X128740533Y-66941904D01*
X201004819Y-67891904D02*
X201814342Y-67891904D01*
X201814342Y-67891904D02*
X201909580Y-67844285D01*
X201909580Y-67844285D02*
X201957200Y-67796666D01*
X201957200Y-67796666D02*
X202004819Y-67701428D01*
X202004819Y-67701428D02*
X202004819Y-67510952D01*
X202004819Y-67510952D02*
X201957200Y-67415714D01*
X201957200Y-67415714D02*
X201909580Y-67368095D01*
X201909580Y-67368095D02*
X201814342Y-67320476D01*
X201814342Y-67320476D02*
X201004819Y-67320476D01*
X201100057Y-66891904D02*
X201052438Y-66844285D01*
X201052438Y-66844285D02*
X201004819Y-66749047D01*
X201004819Y-66749047D02*
X201004819Y-66510952D01*
X201004819Y-66510952D02*
X201052438Y-66415714D01*
X201052438Y-66415714D02*
X201100057Y-66368095D01*
X201100057Y-66368095D02*
X201195295Y-66320476D01*
X201195295Y-66320476D02*
X201290533Y-66320476D01*
X201290533Y-66320476D02*
X201433390Y-66368095D01*
X201433390Y-66368095D02*
X202004819Y-66939523D01*
X202004819Y-66939523D02*
X202004819Y-66320476D01*
X125301785Y-62004580D02*
X125254166Y-62052200D01*
X125254166Y-62052200D02*
X125111309Y-62099819D01*
X125111309Y-62099819D02*
X125016071Y-62099819D01*
X125016071Y-62099819D02*
X124873214Y-62052200D01*
X124873214Y-62052200D02*
X124777976Y-61956961D01*
X124777976Y-61956961D02*
X124730357Y-61861723D01*
X124730357Y-61861723D02*
X124682738Y-61671247D01*
X124682738Y-61671247D02*
X124682738Y-61528390D01*
X124682738Y-61528390D02*
X124730357Y-61337914D01*
X124730357Y-61337914D02*
X124777976Y-61242676D01*
X124777976Y-61242676D02*
X124873214Y-61147438D01*
X124873214Y-61147438D02*
X125016071Y-61099819D01*
X125016071Y-61099819D02*
X125111309Y-61099819D01*
X125111309Y-61099819D02*
X125254166Y-61147438D01*
X125254166Y-61147438D02*
X125301785Y-61195057D01*
X125873214Y-62099819D02*
X125777976Y-62052200D01*
X125777976Y-62052200D02*
X125730357Y-61956961D01*
X125730357Y-61956961D02*
X125730357Y-61099819D01*
X126397024Y-62099819D02*
X126301786Y-62052200D01*
X126301786Y-62052200D02*
X126254167Y-62004580D01*
X126254167Y-62004580D02*
X126206548Y-61909342D01*
X126206548Y-61909342D02*
X126206548Y-61623628D01*
X126206548Y-61623628D02*
X126254167Y-61528390D01*
X126254167Y-61528390D02*
X126301786Y-61480771D01*
X126301786Y-61480771D02*
X126397024Y-61433152D01*
X126397024Y-61433152D02*
X126539881Y-61433152D01*
X126539881Y-61433152D02*
X126635119Y-61480771D01*
X126635119Y-61480771D02*
X126682738Y-61528390D01*
X126682738Y-61528390D02*
X126730357Y-61623628D01*
X126730357Y-61623628D02*
X126730357Y-61909342D01*
X126730357Y-61909342D02*
X126682738Y-62004580D01*
X126682738Y-62004580D02*
X126635119Y-62052200D01*
X126635119Y-62052200D02*
X126539881Y-62099819D01*
X126539881Y-62099819D02*
X126397024Y-62099819D01*
X127587500Y-62099819D02*
X127587500Y-61576009D01*
X127587500Y-61576009D02*
X127539881Y-61480771D01*
X127539881Y-61480771D02*
X127444643Y-61433152D01*
X127444643Y-61433152D02*
X127254167Y-61433152D01*
X127254167Y-61433152D02*
X127158929Y-61480771D01*
X127587500Y-62052200D02*
X127492262Y-62099819D01*
X127492262Y-62099819D02*
X127254167Y-62099819D01*
X127254167Y-62099819D02*
X127158929Y-62052200D01*
X127158929Y-62052200D02*
X127111310Y-61956961D01*
X127111310Y-61956961D02*
X127111310Y-61861723D01*
X127111310Y-61861723D02*
X127158929Y-61766485D01*
X127158929Y-61766485D02*
X127254167Y-61718866D01*
X127254167Y-61718866D02*
X127492262Y-61718866D01*
X127492262Y-61718866D02*
X127587500Y-61671247D01*
X128492262Y-62099819D02*
X128492262Y-61099819D01*
X128492262Y-62052200D02*
X128397024Y-62099819D01*
X128397024Y-62099819D02*
X128206548Y-62099819D01*
X128206548Y-62099819D02*
X128111310Y-62052200D01*
X128111310Y-62052200D02*
X128063691Y-62004580D01*
X128063691Y-62004580D02*
X128016072Y-61909342D01*
X128016072Y-61909342D02*
X128016072Y-61623628D01*
X128016072Y-61623628D02*
X128063691Y-61528390D01*
X128063691Y-61528390D02*
X128111310Y-61480771D01*
X128111310Y-61480771D02*
X128206548Y-61433152D01*
X128206548Y-61433152D02*
X128397024Y-61433152D01*
X128397024Y-61433152D02*
X128492262Y-61480771D01*
X129492262Y-62099819D02*
X128920834Y-62099819D01*
X129206548Y-62099819D02*
X129206548Y-61099819D01*
X129206548Y-61099819D02*
X129111310Y-61242676D01*
X129111310Y-61242676D02*
X129016072Y-61337914D01*
X129016072Y-61337914D02*
X128920834Y-61385533D01*
X161201785Y-65384580D02*
X161154166Y-65432200D01*
X161154166Y-65432200D02*
X161011309Y-65479819D01*
X161011309Y-65479819D02*
X160916071Y-65479819D01*
X160916071Y-65479819D02*
X160773214Y-65432200D01*
X160773214Y-65432200D02*
X160677976Y-65336961D01*
X160677976Y-65336961D02*
X160630357Y-65241723D01*
X160630357Y-65241723D02*
X160582738Y-65051247D01*
X160582738Y-65051247D02*
X160582738Y-64908390D01*
X160582738Y-64908390D02*
X160630357Y-64717914D01*
X160630357Y-64717914D02*
X160677976Y-64622676D01*
X160677976Y-64622676D02*
X160773214Y-64527438D01*
X160773214Y-64527438D02*
X160916071Y-64479819D01*
X160916071Y-64479819D02*
X161011309Y-64479819D01*
X161011309Y-64479819D02*
X161154166Y-64527438D01*
X161154166Y-64527438D02*
X161201785Y-64575057D01*
X161773214Y-65479819D02*
X161677976Y-65432200D01*
X161677976Y-65432200D02*
X161630357Y-65336961D01*
X161630357Y-65336961D02*
X161630357Y-64479819D01*
X162297024Y-65479819D02*
X162201786Y-65432200D01*
X162201786Y-65432200D02*
X162154167Y-65384580D01*
X162154167Y-65384580D02*
X162106548Y-65289342D01*
X162106548Y-65289342D02*
X162106548Y-65003628D01*
X162106548Y-65003628D02*
X162154167Y-64908390D01*
X162154167Y-64908390D02*
X162201786Y-64860771D01*
X162201786Y-64860771D02*
X162297024Y-64813152D01*
X162297024Y-64813152D02*
X162439881Y-64813152D01*
X162439881Y-64813152D02*
X162535119Y-64860771D01*
X162535119Y-64860771D02*
X162582738Y-64908390D01*
X162582738Y-64908390D02*
X162630357Y-65003628D01*
X162630357Y-65003628D02*
X162630357Y-65289342D01*
X162630357Y-65289342D02*
X162582738Y-65384580D01*
X162582738Y-65384580D02*
X162535119Y-65432200D01*
X162535119Y-65432200D02*
X162439881Y-65479819D01*
X162439881Y-65479819D02*
X162297024Y-65479819D01*
X163487500Y-65479819D02*
X163487500Y-64956009D01*
X163487500Y-64956009D02*
X163439881Y-64860771D01*
X163439881Y-64860771D02*
X163344643Y-64813152D01*
X163344643Y-64813152D02*
X163154167Y-64813152D01*
X163154167Y-64813152D02*
X163058929Y-64860771D01*
X163487500Y-65432200D02*
X163392262Y-65479819D01*
X163392262Y-65479819D02*
X163154167Y-65479819D01*
X163154167Y-65479819D02*
X163058929Y-65432200D01*
X163058929Y-65432200D02*
X163011310Y-65336961D01*
X163011310Y-65336961D02*
X163011310Y-65241723D01*
X163011310Y-65241723D02*
X163058929Y-65146485D01*
X163058929Y-65146485D02*
X163154167Y-65098866D01*
X163154167Y-65098866D02*
X163392262Y-65098866D01*
X163392262Y-65098866D02*
X163487500Y-65051247D01*
X164392262Y-65479819D02*
X164392262Y-64479819D01*
X164392262Y-65432200D02*
X164297024Y-65479819D01*
X164297024Y-65479819D02*
X164106548Y-65479819D01*
X164106548Y-65479819D02*
X164011310Y-65432200D01*
X164011310Y-65432200D02*
X163963691Y-65384580D01*
X163963691Y-65384580D02*
X163916072Y-65289342D01*
X163916072Y-65289342D02*
X163916072Y-65003628D01*
X163916072Y-65003628D02*
X163963691Y-64908390D01*
X163963691Y-64908390D02*
X164011310Y-64860771D01*
X164011310Y-64860771D02*
X164106548Y-64813152D01*
X164106548Y-64813152D02*
X164297024Y-64813152D01*
X164297024Y-64813152D02*
X164392262Y-64860771D01*
X164773215Y-64479819D02*
X165392262Y-64479819D01*
X165392262Y-64479819D02*
X165058929Y-64860771D01*
X165058929Y-64860771D02*
X165201786Y-64860771D01*
X165201786Y-64860771D02*
X165297024Y-64908390D01*
X165297024Y-64908390D02*
X165344643Y-64956009D01*
X165344643Y-64956009D02*
X165392262Y-65051247D01*
X165392262Y-65051247D02*
X165392262Y-65289342D01*
X165392262Y-65289342D02*
X165344643Y-65384580D01*
X165344643Y-65384580D02*
X165297024Y-65432200D01*
X165297024Y-65432200D02*
X165201786Y-65479819D01*
X165201786Y-65479819D02*
X164916072Y-65479819D01*
X164916072Y-65479819D02*
X164820834Y-65432200D01*
X164820834Y-65432200D02*
X164773215Y-65384580D01*
X163098095Y-55659819D02*
X163669523Y-55659819D01*
X163383809Y-56659819D02*
X163383809Y-55659819D01*
X164002857Y-56659819D02*
X164002857Y-55659819D01*
X164002857Y-55659819D02*
X164383809Y-55659819D01*
X164383809Y-55659819D02*
X164479047Y-55707438D01*
X164479047Y-55707438D02*
X164526666Y-55755057D01*
X164526666Y-55755057D02*
X164574285Y-55850295D01*
X164574285Y-55850295D02*
X164574285Y-55993152D01*
X164574285Y-55993152D02*
X164526666Y-56088390D01*
X164526666Y-56088390D02*
X164479047Y-56136009D01*
X164479047Y-56136009D02*
X164383809Y-56183628D01*
X164383809Y-56183628D02*
X164002857Y-56183628D01*
X165431428Y-55993152D02*
X165431428Y-56659819D01*
X165193333Y-55612200D02*
X164955238Y-56326485D01*
X164955238Y-56326485D02*
X165574285Y-56326485D01*
X127353958Y-76430989D02*
X126353958Y-76430989D01*
X126830148Y-76430989D02*
X126830148Y-75859561D01*
X127353958Y-75859561D02*
X126353958Y-75859561D01*
X126687291Y-74954799D02*
X127353958Y-74954799D01*
X126306339Y-75192894D02*
X127020624Y-75430989D01*
X127020624Y-75430989D02*
X127020624Y-74811942D01*
X127258719Y-74430989D02*
X127306339Y-74383370D01*
X127306339Y-74383370D02*
X127353958Y-74430989D01*
X127353958Y-74430989D02*
X127306339Y-74478608D01*
X127306339Y-74478608D02*
X127258719Y-74430989D01*
X127258719Y-74430989D02*
X127353958Y-74430989D01*
X127353958Y-73430990D02*
X127353958Y-74002418D01*
X127353958Y-73716704D02*
X126353958Y-73716704D01*
X126353958Y-73716704D02*
X126496815Y-73811942D01*
X126496815Y-73811942D02*
X126592053Y-73907180D01*
X126592053Y-73907180D02*
X126639672Y-74002418D01*
X196604819Y-49526189D02*
X195604819Y-49526189D01*
X196081009Y-49526189D02*
X196081009Y-48954761D01*
X196604819Y-48954761D02*
X195604819Y-48954761D01*
X195700057Y-48526189D02*
X195652438Y-48478570D01*
X195652438Y-48478570D02*
X195604819Y-48383332D01*
X195604819Y-48383332D02*
X195604819Y-48145237D01*
X195604819Y-48145237D02*
X195652438Y-48049999D01*
X195652438Y-48049999D02*
X195700057Y-48002380D01*
X195700057Y-48002380D02*
X195795295Y-47954761D01*
X195795295Y-47954761D02*
X195890533Y-47954761D01*
X195890533Y-47954761D02*
X196033390Y-48002380D01*
X196033390Y-48002380D02*
X196604819Y-48573808D01*
X196604819Y-48573808D02*
X196604819Y-47954761D01*
X196509580Y-47526189D02*
X196557200Y-47478570D01*
X196557200Y-47478570D02*
X196604819Y-47526189D01*
X196604819Y-47526189D02*
X196557200Y-47573808D01*
X196557200Y-47573808D02*
X196509580Y-47526189D01*
X196509580Y-47526189D02*
X196604819Y-47526189D01*
X195700057Y-47097618D02*
X195652438Y-47049999D01*
X195652438Y-47049999D02*
X195604819Y-46954761D01*
X195604819Y-46954761D02*
X195604819Y-46716666D01*
X195604819Y-46716666D02*
X195652438Y-46621428D01*
X195652438Y-46621428D02*
X195700057Y-46573809D01*
X195700057Y-46573809D02*
X195795295Y-46526190D01*
X195795295Y-46526190D02*
X195890533Y-46526190D01*
X195890533Y-46526190D02*
X196033390Y-46573809D01*
X196033390Y-46573809D02*
X196604819Y-47145237D01*
X196604819Y-47145237D02*
X196604819Y-46526190D01*
X173501492Y-62052916D02*
X174072920Y-62052916D01*
X173787206Y-63052916D02*
X173787206Y-62052916D01*
X174406254Y-63052916D02*
X174406254Y-62052916D01*
X174406254Y-62052916D02*
X174787206Y-62052916D01*
X174787206Y-62052916D02*
X174882444Y-62100535D01*
X174882444Y-62100535D02*
X174930063Y-62148154D01*
X174930063Y-62148154D02*
X174977682Y-62243392D01*
X174977682Y-62243392D02*
X174977682Y-62386249D01*
X174977682Y-62386249D02*
X174930063Y-62481487D01*
X174930063Y-62481487D02*
X174882444Y-62529106D01*
X174882444Y-62529106D02*
X174787206Y-62576725D01*
X174787206Y-62576725D02*
X174406254Y-62576725D01*
X175311016Y-62052916D02*
X175930063Y-62052916D01*
X175930063Y-62052916D02*
X175596730Y-62433868D01*
X175596730Y-62433868D02*
X175739587Y-62433868D01*
X175739587Y-62433868D02*
X175834825Y-62481487D01*
X175834825Y-62481487D02*
X175882444Y-62529106D01*
X175882444Y-62529106D02*
X175930063Y-62624344D01*
X175930063Y-62624344D02*
X175930063Y-62862439D01*
X175930063Y-62862439D02*
X175882444Y-62957677D01*
X175882444Y-62957677D02*
X175834825Y-63005297D01*
X175834825Y-63005297D02*
X175739587Y-63052916D01*
X175739587Y-63052916D02*
X175453873Y-63052916D01*
X175453873Y-63052916D02*
X175358635Y-63005297D01*
X175358635Y-63005297D02*
X175311016Y-62957677D01*
X161387499Y-67489580D02*
X161339880Y-67537200D01*
X161339880Y-67537200D02*
X161197023Y-67584819D01*
X161197023Y-67584819D02*
X161101785Y-67584819D01*
X161101785Y-67584819D02*
X160958928Y-67537200D01*
X160958928Y-67537200D02*
X160863690Y-67441961D01*
X160863690Y-67441961D02*
X160816071Y-67346723D01*
X160816071Y-67346723D02*
X160768452Y-67156247D01*
X160768452Y-67156247D02*
X160768452Y-67013390D01*
X160768452Y-67013390D02*
X160816071Y-66822914D01*
X160816071Y-66822914D02*
X160863690Y-66727676D01*
X160863690Y-66727676D02*
X160958928Y-66632438D01*
X160958928Y-66632438D02*
X161101785Y-66584819D01*
X161101785Y-66584819D02*
X161197023Y-66584819D01*
X161197023Y-66584819D02*
X161339880Y-66632438D01*
X161339880Y-66632438D02*
X161387499Y-66680057D01*
X162149404Y-67061009D02*
X162292261Y-67108628D01*
X162292261Y-67108628D02*
X162339880Y-67156247D01*
X162339880Y-67156247D02*
X162387499Y-67251485D01*
X162387499Y-67251485D02*
X162387499Y-67394342D01*
X162387499Y-67394342D02*
X162339880Y-67489580D01*
X162339880Y-67489580D02*
X162292261Y-67537200D01*
X162292261Y-67537200D02*
X162197023Y-67584819D01*
X162197023Y-67584819D02*
X161816071Y-67584819D01*
X161816071Y-67584819D02*
X161816071Y-66584819D01*
X161816071Y-66584819D02*
X162149404Y-66584819D01*
X162149404Y-66584819D02*
X162244642Y-66632438D01*
X162244642Y-66632438D02*
X162292261Y-66680057D01*
X162292261Y-66680057D02*
X162339880Y-66775295D01*
X162339880Y-66775295D02*
X162339880Y-66870533D01*
X162339880Y-66870533D02*
X162292261Y-66965771D01*
X162292261Y-66965771D02*
X162244642Y-67013390D01*
X162244642Y-67013390D02*
X162149404Y-67061009D01*
X162149404Y-67061009D02*
X161816071Y-67061009D01*
X162720833Y-66918152D02*
X162958928Y-67584819D01*
X163197023Y-66918152D02*
X162958928Y-67584819D01*
X162958928Y-67584819D02*
X162863690Y-67822914D01*
X162863690Y-67822914D02*
X162816071Y-67870533D01*
X162816071Y-67870533D02*
X162720833Y-67918152D01*
X163577976Y-66918152D02*
X163577976Y-67918152D01*
X163577976Y-66965771D02*
X163673214Y-66918152D01*
X163673214Y-66918152D02*
X163863690Y-66918152D01*
X163863690Y-66918152D02*
X163958928Y-66965771D01*
X163958928Y-66965771D02*
X164006547Y-67013390D01*
X164006547Y-67013390D02*
X164054166Y-67108628D01*
X164054166Y-67108628D02*
X164054166Y-67394342D01*
X164054166Y-67394342D02*
X164006547Y-67489580D01*
X164006547Y-67489580D02*
X163958928Y-67537200D01*
X163958928Y-67537200D02*
X163863690Y-67584819D01*
X163863690Y-67584819D02*
X163673214Y-67584819D01*
X163673214Y-67584819D02*
X163577976Y-67537200D01*
X164387500Y-66584819D02*
X165006547Y-66584819D01*
X165006547Y-66584819D02*
X164673214Y-66965771D01*
X164673214Y-66965771D02*
X164816071Y-66965771D01*
X164816071Y-66965771D02*
X164911309Y-67013390D01*
X164911309Y-67013390D02*
X164958928Y-67061009D01*
X164958928Y-67061009D02*
X165006547Y-67156247D01*
X165006547Y-67156247D02*
X165006547Y-67394342D01*
X165006547Y-67394342D02*
X164958928Y-67489580D01*
X164958928Y-67489580D02*
X164911309Y-67537200D01*
X164911309Y-67537200D02*
X164816071Y-67584819D01*
X164816071Y-67584819D02*
X164530357Y-67584819D01*
X164530357Y-67584819D02*
X164435119Y-67537200D01*
X164435119Y-67537200D02*
X164387500Y-67489580D01*
X163326071Y-54949819D02*
X162992738Y-54473628D01*
X162754643Y-54949819D02*
X162754643Y-53949819D01*
X162754643Y-53949819D02*
X163135595Y-53949819D01*
X163135595Y-53949819D02*
X163230833Y-53997438D01*
X163230833Y-53997438D02*
X163278452Y-54045057D01*
X163278452Y-54045057D02*
X163326071Y-54140295D01*
X163326071Y-54140295D02*
X163326071Y-54283152D01*
X163326071Y-54283152D02*
X163278452Y-54378390D01*
X163278452Y-54378390D02*
X163230833Y-54426009D01*
X163230833Y-54426009D02*
X163135595Y-54473628D01*
X163135595Y-54473628D02*
X162754643Y-54473628D01*
X163754643Y-54283152D02*
X163754643Y-55283152D01*
X163754643Y-54330771D02*
X163849881Y-54283152D01*
X163849881Y-54283152D02*
X164040357Y-54283152D01*
X164040357Y-54283152D02*
X164135595Y-54330771D01*
X164135595Y-54330771D02*
X164183214Y-54378390D01*
X164183214Y-54378390D02*
X164230833Y-54473628D01*
X164230833Y-54473628D02*
X164230833Y-54759342D01*
X164230833Y-54759342D02*
X164183214Y-54854580D01*
X164183214Y-54854580D02*
X164135595Y-54902200D01*
X164135595Y-54902200D02*
X164040357Y-54949819D01*
X164040357Y-54949819D02*
X163849881Y-54949819D01*
X163849881Y-54949819D02*
X163754643Y-54902200D01*
X165087976Y-54283152D02*
X165087976Y-54949819D01*
X164659405Y-54283152D02*
X164659405Y-54806961D01*
X164659405Y-54806961D02*
X164707024Y-54902200D01*
X164707024Y-54902200D02*
X164802262Y-54949819D01*
X164802262Y-54949819D02*
X164945119Y-54949819D01*
X164945119Y-54949819D02*
X165040357Y-54902200D01*
X165040357Y-54902200D02*
X165087976Y-54854580D01*
X165992738Y-54283152D02*
X165992738Y-54949819D01*
X165754643Y-53902200D02*
X165516548Y-54616485D01*
X165516548Y-54616485D02*
X166135595Y-54616485D01*
X208462499Y-54999580D02*
X208414880Y-55047200D01*
X208414880Y-55047200D02*
X208272023Y-55094819D01*
X208272023Y-55094819D02*
X208176785Y-55094819D01*
X208176785Y-55094819D02*
X208033928Y-55047200D01*
X208033928Y-55047200D02*
X207938690Y-54951961D01*
X207938690Y-54951961D02*
X207891071Y-54856723D01*
X207891071Y-54856723D02*
X207843452Y-54666247D01*
X207843452Y-54666247D02*
X207843452Y-54523390D01*
X207843452Y-54523390D02*
X207891071Y-54332914D01*
X207891071Y-54332914D02*
X207938690Y-54237676D01*
X207938690Y-54237676D02*
X208033928Y-54142438D01*
X208033928Y-54142438D02*
X208176785Y-54094819D01*
X208176785Y-54094819D02*
X208272023Y-54094819D01*
X208272023Y-54094819D02*
X208414880Y-54142438D01*
X208414880Y-54142438D02*
X208462499Y-54190057D01*
X209224404Y-54571009D02*
X209367261Y-54618628D01*
X209367261Y-54618628D02*
X209414880Y-54666247D01*
X209414880Y-54666247D02*
X209462499Y-54761485D01*
X209462499Y-54761485D02*
X209462499Y-54904342D01*
X209462499Y-54904342D02*
X209414880Y-54999580D01*
X209414880Y-54999580D02*
X209367261Y-55047200D01*
X209367261Y-55047200D02*
X209272023Y-55094819D01*
X209272023Y-55094819D02*
X208891071Y-55094819D01*
X208891071Y-55094819D02*
X208891071Y-54094819D01*
X208891071Y-54094819D02*
X209224404Y-54094819D01*
X209224404Y-54094819D02*
X209319642Y-54142438D01*
X209319642Y-54142438D02*
X209367261Y-54190057D01*
X209367261Y-54190057D02*
X209414880Y-54285295D01*
X209414880Y-54285295D02*
X209414880Y-54380533D01*
X209414880Y-54380533D02*
X209367261Y-54475771D01*
X209367261Y-54475771D02*
X209319642Y-54523390D01*
X209319642Y-54523390D02*
X209224404Y-54571009D01*
X209224404Y-54571009D02*
X208891071Y-54571009D01*
X209795833Y-54428152D02*
X210033928Y-55094819D01*
X210272023Y-54428152D02*
X210033928Y-55094819D01*
X210033928Y-55094819D02*
X209938690Y-55332914D01*
X209938690Y-55332914D02*
X209891071Y-55380533D01*
X209891071Y-55380533D02*
X209795833Y-55428152D01*
X210652976Y-54428152D02*
X210652976Y-55428152D01*
X210652976Y-54475771D02*
X210748214Y-54428152D01*
X210748214Y-54428152D02*
X210938690Y-54428152D01*
X210938690Y-54428152D02*
X211033928Y-54475771D01*
X211033928Y-54475771D02*
X211081547Y-54523390D01*
X211081547Y-54523390D02*
X211129166Y-54618628D01*
X211129166Y-54618628D02*
X211129166Y-54904342D01*
X211129166Y-54904342D02*
X211081547Y-54999580D01*
X211081547Y-54999580D02*
X211033928Y-55047200D01*
X211033928Y-55047200D02*
X210938690Y-55094819D01*
X210938690Y-55094819D02*
X210748214Y-55094819D01*
X210748214Y-55094819D02*
X210652976Y-55047200D01*
X212033928Y-54094819D02*
X211557738Y-54094819D01*
X211557738Y-54094819D02*
X211510119Y-54571009D01*
X211510119Y-54571009D02*
X211557738Y-54523390D01*
X211557738Y-54523390D02*
X211652976Y-54475771D01*
X211652976Y-54475771D02*
X211891071Y-54475771D01*
X211891071Y-54475771D02*
X211986309Y-54523390D01*
X211986309Y-54523390D02*
X212033928Y-54571009D01*
X212033928Y-54571009D02*
X212081547Y-54666247D01*
X212081547Y-54666247D02*
X212081547Y-54904342D01*
X212081547Y-54904342D02*
X212033928Y-54999580D01*
X212033928Y-54999580D02*
X211986309Y-55047200D01*
X211986309Y-55047200D02*
X211891071Y-55094819D01*
X211891071Y-55094819D02*
X211652976Y-55094819D01*
X211652976Y-55094819D02*
X211557738Y-55047200D01*
X211557738Y-55047200D02*
X211510119Y-54999580D01*
X197687499Y-67689580D02*
X197639880Y-67737200D01*
X197639880Y-67737200D02*
X197497023Y-67784819D01*
X197497023Y-67784819D02*
X197401785Y-67784819D01*
X197401785Y-67784819D02*
X197258928Y-67737200D01*
X197258928Y-67737200D02*
X197163690Y-67641961D01*
X197163690Y-67641961D02*
X197116071Y-67546723D01*
X197116071Y-67546723D02*
X197068452Y-67356247D01*
X197068452Y-67356247D02*
X197068452Y-67213390D01*
X197068452Y-67213390D02*
X197116071Y-67022914D01*
X197116071Y-67022914D02*
X197163690Y-66927676D01*
X197163690Y-66927676D02*
X197258928Y-66832438D01*
X197258928Y-66832438D02*
X197401785Y-66784819D01*
X197401785Y-66784819D02*
X197497023Y-66784819D01*
X197497023Y-66784819D02*
X197639880Y-66832438D01*
X197639880Y-66832438D02*
X197687499Y-66880057D01*
X198449404Y-67261009D02*
X198592261Y-67308628D01*
X198592261Y-67308628D02*
X198639880Y-67356247D01*
X198639880Y-67356247D02*
X198687499Y-67451485D01*
X198687499Y-67451485D02*
X198687499Y-67594342D01*
X198687499Y-67594342D02*
X198639880Y-67689580D01*
X198639880Y-67689580D02*
X198592261Y-67737200D01*
X198592261Y-67737200D02*
X198497023Y-67784819D01*
X198497023Y-67784819D02*
X198116071Y-67784819D01*
X198116071Y-67784819D02*
X198116071Y-66784819D01*
X198116071Y-66784819D02*
X198449404Y-66784819D01*
X198449404Y-66784819D02*
X198544642Y-66832438D01*
X198544642Y-66832438D02*
X198592261Y-66880057D01*
X198592261Y-66880057D02*
X198639880Y-66975295D01*
X198639880Y-66975295D02*
X198639880Y-67070533D01*
X198639880Y-67070533D02*
X198592261Y-67165771D01*
X198592261Y-67165771D02*
X198544642Y-67213390D01*
X198544642Y-67213390D02*
X198449404Y-67261009D01*
X198449404Y-67261009D02*
X198116071Y-67261009D01*
X199020833Y-67118152D02*
X199258928Y-67784819D01*
X199497023Y-67118152D02*
X199258928Y-67784819D01*
X199258928Y-67784819D02*
X199163690Y-68022914D01*
X199163690Y-68022914D02*
X199116071Y-68070533D01*
X199116071Y-68070533D02*
X199020833Y-68118152D01*
X199877976Y-67118152D02*
X199877976Y-68118152D01*
X199877976Y-67165771D02*
X199973214Y-67118152D01*
X199973214Y-67118152D02*
X200163690Y-67118152D01*
X200163690Y-67118152D02*
X200258928Y-67165771D01*
X200258928Y-67165771D02*
X200306547Y-67213390D01*
X200306547Y-67213390D02*
X200354166Y-67308628D01*
X200354166Y-67308628D02*
X200354166Y-67594342D01*
X200354166Y-67594342D02*
X200306547Y-67689580D01*
X200306547Y-67689580D02*
X200258928Y-67737200D01*
X200258928Y-67737200D02*
X200163690Y-67784819D01*
X200163690Y-67784819D02*
X199973214Y-67784819D01*
X199973214Y-67784819D02*
X199877976Y-67737200D01*
X200735119Y-66880057D02*
X200782738Y-66832438D01*
X200782738Y-66832438D02*
X200877976Y-66784819D01*
X200877976Y-66784819D02*
X201116071Y-66784819D01*
X201116071Y-66784819D02*
X201211309Y-66832438D01*
X201211309Y-66832438D02*
X201258928Y-66880057D01*
X201258928Y-66880057D02*
X201306547Y-66975295D01*
X201306547Y-66975295D02*
X201306547Y-67070533D01*
X201306547Y-67070533D02*
X201258928Y-67213390D01*
X201258928Y-67213390D02*
X200687500Y-67784819D01*
X200687500Y-67784819D02*
X201306547Y-67784819D01*
X174004819Y-49526189D02*
X173004819Y-49526189D01*
X173481009Y-49526189D02*
X173481009Y-48954761D01*
X174004819Y-48954761D02*
X173004819Y-48954761D01*
X174004819Y-47954761D02*
X174004819Y-48526189D01*
X174004819Y-48240475D02*
X173004819Y-48240475D01*
X173004819Y-48240475D02*
X173147676Y-48335713D01*
X173147676Y-48335713D02*
X173242914Y-48430951D01*
X173242914Y-48430951D02*
X173290533Y-48526189D01*
X173909580Y-47526189D02*
X173957200Y-47478570D01*
X173957200Y-47478570D02*
X174004819Y-47526189D01*
X174004819Y-47526189D02*
X173957200Y-47573808D01*
X173957200Y-47573808D02*
X173909580Y-47526189D01*
X173909580Y-47526189D02*
X174004819Y-47526189D01*
X174004819Y-46526190D02*
X174004819Y-47097618D01*
X174004819Y-46811904D02*
X173004819Y-46811904D01*
X173004819Y-46811904D02*
X173147676Y-46907142D01*
X173147676Y-46907142D02*
X173242914Y-47002380D01*
X173242914Y-47002380D02*
X173290533Y-47097618D01*
X171651785Y-57029580D02*
X171604166Y-57077200D01*
X171604166Y-57077200D02*
X171461309Y-57124819D01*
X171461309Y-57124819D02*
X171366071Y-57124819D01*
X171366071Y-57124819D02*
X171223214Y-57077200D01*
X171223214Y-57077200D02*
X171127976Y-56981961D01*
X171127976Y-56981961D02*
X171080357Y-56886723D01*
X171080357Y-56886723D02*
X171032738Y-56696247D01*
X171032738Y-56696247D02*
X171032738Y-56553390D01*
X171032738Y-56553390D02*
X171080357Y-56362914D01*
X171080357Y-56362914D02*
X171127976Y-56267676D01*
X171127976Y-56267676D02*
X171223214Y-56172438D01*
X171223214Y-56172438D02*
X171366071Y-56124819D01*
X171366071Y-56124819D02*
X171461309Y-56124819D01*
X171461309Y-56124819D02*
X171604166Y-56172438D01*
X171604166Y-56172438D02*
X171651785Y-56220057D01*
X172223214Y-57124819D02*
X172127976Y-57077200D01*
X172127976Y-57077200D02*
X172080357Y-56981961D01*
X172080357Y-56981961D02*
X172080357Y-56124819D01*
X172747024Y-57124819D02*
X172651786Y-57077200D01*
X172651786Y-57077200D02*
X172604167Y-57029580D01*
X172604167Y-57029580D02*
X172556548Y-56934342D01*
X172556548Y-56934342D02*
X172556548Y-56648628D01*
X172556548Y-56648628D02*
X172604167Y-56553390D01*
X172604167Y-56553390D02*
X172651786Y-56505771D01*
X172651786Y-56505771D02*
X172747024Y-56458152D01*
X172747024Y-56458152D02*
X172889881Y-56458152D01*
X172889881Y-56458152D02*
X172985119Y-56505771D01*
X172985119Y-56505771D02*
X173032738Y-56553390D01*
X173032738Y-56553390D02*
X173080357Y-56648628D01*
X173080357Y-56648628D02*
X173080357Y-56934342D01*
X173080357Y-56934342D02*
X173032738Y-57029580D01*
X173032738Y-57029580D02*
X172985119Y-57077200D01*
X172985119Y-57077200D02*
X172889881Y-57124819D01*
X172889881Y-57124819D02*
X172747024Y-57124819D01*
X173937500Y-57124819D02*
X173937500Y-56601009D01*
X173937500Y-56601009D02*
X173889881Y-56505771D01*
X173889881Y-56505771D02*
X173794643Y-56458152D01*
X173794643Y-56458152D02*
X173604167Y-56458152D01*
X173604167Y-56458152D02*
X173508929Y-56505771D01*
X173937500Y-57077200D02*
X173842262Y-57124819D01*
X173842262Y-57124819D02*
X173604167Y-57124819D01*
X173604167Y-57124819D02*
X173508929Y-57077200D01*
X173508929Y-57077200D02*
X173461310Y-56981961D01*
X173461310Y-56981961D02*
X173461310Y-56886723D01*
X173461310Y-56886723D02*
X173508929Y-56791485D01*
X173508929Y-56791485D02*
X173604167Y-56743866D01*
X173604167Y-56743866D02*
X173842262Y-56743866D01*
X173842262Y-56743866D02*
X173937500Y-56696247D01*
X174842262Y-57124819D02*
X174842262Y-56124819D01*
X174842262Y-57077200D02*
X174747024Y-57124819D01*
X174747024Y-57124819D02*
X174556548Y-57124819D01*
X174556548Y-57124819D02*
X174461310Y-57077200D01*
X174461310Y-57077200D02*
X174413691Y-57029580D01*
X174413691Y-57029580D02*
X174366072Y-56934342D01*
X174366072Y-56934342D02*
X174366072Y-56648628D01*
X174366072Y-56648628D02*
X174413691Y-56553390D01*
X174413691Y-56553390D02*
X174461310Y-56505771D01*
X174461310Y-56505771D02*
X174556548Y-56458152D01*
X174556548Y-56458152D02*
X174747024Y-56458152D01*
X174747024Y-56458152D02*
X174842262Y-56505771D01*
X175747024Y-56458152D02*
X175747024Y-57124819D01*
X175508929Y-56077200D02*
X175270834Y-56791485D01*
X175270834Y-56791485D02*
X175889881Y-56791485D01*
X135687499Y-55264283D02*
X135639880Y-55311903D01*
X135639880Y-55311903D02*
X135497023Y-55359522D01*
X135497023Y-55359522D02*
X135401785Y-55359522D01*
X135401785Y-55359522D02*
X135258928Y-55311903D01*
X135258928Y-55311903D02*
X135163690Y-55216664D01*
X135163690Y-55216664D02*
X135116071Y-55121426D01*
X135116071Y-55121426D02*
X135068452Y-54930950D01*
X135068452Y-54930950D02*
X135068452Y-54788093D01*
X135068452Y-54788093D02*
X135116071Y-54597617D01*
X135116071Y-54597617D02*
X135163690Y-54502379D01*
X135163690Y-54502379D02*
X135258928Y-54407141D01*
X135258928Y-54407141D02*
X135401785Y-54359522D01*
X135401785Y-54359522D02*
X135497023Y-54359522D01*
X135497023Y-54359522D02*
X135639880Y-54407141D01*
X135639880Y-54407141D02*
X135687499Y-54454760D01*
X136449404Y-54835712D02*
X136592261Y-54883331D01*
X136592261Y-54883331D02*
X136639880Y-54930950D01*
X136639880Y-54930950D02*
X136687499Y-55026188D01*
X136687499Y-55026188D02*
X136687499Y-55169045D01*
X136687499Y-55169045D02*
X136639880Y-55264283D01*
X136639880Y-55264283D02*
X136592261Y-55311903D01*
X136592261Y-55311903D02*
X136497023Y-55359522D01*
X136497023Y-55359522D02*
X136116071Y-55359522D01*
X136116071Y-55359522D02*
X136116071Y-54359522D01*
X136116071Y-54359522D02*
X136449404Y-54359522D01*
X136449404Y-54359522D02*
X136544642Y-54407141D01*
X136544642Y-54407141D02*
X136592261Y-54454760D01*
X136592261Y-54454760D02*
X136639880Y-54549998D01*
X136639880Y-54549998D02*
X136639880Y-54645236D01*
X136639880Y-54645236D02*
X136592261Y-54740474D01*
X136592261Y-54740474D02*
X136544642Y-54788093D01*
X136544642Y-54788093D02*
X136449404Y-54835712D01*
X136449404Y-54835712D02*
X136116071Y-54835712D01*
X137020833Y-54692855D02*
X137258928Y-55359522D01*
X137497023Y-54692855D02*
X137258928Y-55359522D01*
X137258928Y-55359522D02*
X137163690Y-55597617D01*
X137163690Y-55597617D02*
X137116071Y-55645236D01*
X137116071Y-55645236D02*
X137020833Y-55692855D01*
X137877976Y-54692855D02*
X137877976Y-55692855D01*
X137877976Y-54740474D02*
X137973214Y-54692855D01*
X137973214Y-54692855D02*
X138163690Y-54692855D01*
X138163690Y-54692855D02*
X138258928Y-54740474D01*
X138258928Y-54740474D02*
X138306547Y-54788093D01*
X138306547Y-54788093D02*
X138354166Y-54883331D01*
X138354166Y-54883331D02*
X138354166Y-55169045D01*
X138354166Y-55169045D02*
X138306547Y-55264283D01*
X138306547Y-55264283D02*
X138258928Y-55311903D01*
X138258928Y-55311903D02*
X138163690Y-55359522D01*
X138163690Y-55359522D02*
X137973214Y-55359522D01*
X137973214Y-55359522D02*
X137877976Y-55311903D01*
X139211309Y-54359522D02*
X139020833Y-54359522D01*
X139020833Y-54359522D02*
X138925595Y-54407141D01*
X138925595Y-54407141D02*
X138877976Y-54454760D01*
X138877976Y-54454760D02*
X138782738Y-54597617D01*
X138782738Y-54597617D02*
X138735119Y-54788093D01*
X138735119Y-54788093D02*
X138735119Y-55169045D01*
X138735119Y-55169045D02*
X138782738Y-55264283D01*
X138782738Y-55264283D02*
X138830357Y-55311903D01*
X138830357Y-55311903D02*
X138925595Y-55359522D01*
X138925595Y-55359522D02*
X139116071Y-55359522D01*
X139116071Y-55359522D02*
X139211309Y-55311903D01*
X139211309Y-55311903D02*
X139258928Y-55264283D01*
X139258928Y-55264283D02*
X139306547Y-55169045D01*
X139306547Y-55169045D02*
X139306547Y-54930950D01*
X139306547Y-54930950D02*
X139258928Y-54835712D01*
X139258928Y-54835712D02*
X139211309Y-54788093D01*
X139211309Y-54788093D02*
X139116071Y-54740474D01*
X139116071Y-54740474D02*
X138925595Y-54740474D01*
X138925595Y-54740474D02*
X138830357Y-54788093D01*
X138830357Y-54788093D02*
X138782738Y-54835712D01*
X138782738Y-54835712D02*
X138735119Y-54930950D01*
X231148690Y-65459580D02*
X231101071Y-65507200D01*
X231101071Y-65507200D02*
X230958214Y-65554819D01*
X230958214Y-65554819D02*
X230862976Y-65554819D01*
X230862976Y-65554819D02*
X230720119Y-65507200D01*
X230720119Y-65507200D02*
X230624881Y-65411961D01*
X230624881Y-65411961D02*
X230577262Y-65316723D01*
X230577262Y-65316723D02*
X230529643Y-65126247D01*
X230529643Y-65126247D02*
X230529643Y-64983390D01*
X230529643Y-64983390D02*
X230577262Y-64792914D01*
X230577262Y-64792914D02*
X230624881Y-64697676D01*
X230624881Y-64697676D02*
X230720119Y-64602438D01*
X230720119Y-64602438D02*
X230862976Y-64554819D01*
X230862976Y-64554819D02*
X230958214Y-64554819D01*
X230958214Y-64554819D02*
X231101071Y-64602438D01*
X231101071Y-64602438D02*
X231148690Y-64650057D01*
X231529643Y-65269104D02*
X232005833Y-65269104D01*
X231434405Y-65554819D02*
X231767738Y-64554819D01*
X231767738Y-64554819D02*
X232101071Y-65554819D01*
X232291548Y-64554819D02*
X232624881Y-65554819D01*
X232624881Y-65554819D02*
X232958214Y-64554819D01*
X233291548Y-65554819D02*
X233291548Y-64554819D01*
X233291548Y-64554819D02*
X233529643Y-64554819D01*
X233529643Y-64554819D02*
X233672500Y-64602438D01*
X233672500Y-64602438D02*
X233767738Y-64697676D01*
X233767738Y-64697676D02*
X233815357Y-64792914D01*
X233815357Y-64792914D02*
X233862976Y-64983390D01*
X233862976Y-64983390D02*
X233862976Y-65126247D01*
X233862976Y-65126247D02*
X233815357Y-65316723D01*
X233815357Y-65316723D02*
X233767738Y-65411961D01*
X233767738Y-65411961D02*
X233672500Y-65507200D01*
X233672500Y-65507200D02*
X233529643Y-65554819D01*
X233529643Y-65554819D02*
X233291548Y-65554819D01*
X234291548Y-65554819D02*
X234291548Y-64554819D01*
X234291548Y-64554819D02*
X234529643Y-64554819D01*
X234529643Y-64554819D02*
X234672500Y-64602438D01*
X234672500Y-64602438D02*
X234767738Y-64697676D01*
X234767738Y-64697676D02*
X234815357Y-64792914D01*
X234815357Y-64792914D02*
X234862976Y-64983390D01*
X234862976Y-64983390D02*
X234862976Y-65126247D01*
X234862976Y-65126247D02*
X234815357Y-65316723D01*
X234815357Y-65316723D02*
X234767738Y-65411961D01*
X234767738Y-65411961D02*
X234672500Y-65507200D01*
X234672500Y-65507200D02*
X234529643Y-65554819D01*
X234529643Y-65554819D02*
X234291548Y-65554819D01*
X235243929Y-64650057D02*
X235291548Y-64602438D01*
X235291548Y-64602438D02*
X235386786Y-64554819D01*
X235386786Y-64554819D02*
X235624881Y-64554819D01*
X235624881Y-64554819D02*
X235720119Y-64602438D01*
X235720119Y-64602438D02*
X235767738Y-64650057D01*
X235767738Y-64650057D02*
X235815357Y-64745295D01*
X235815357Y-64745295D02*
X235815357Y-64840533D01*
X235815357Y-64840533D02*
X235767738Y-64983390D01*
X235767738Y-64983390D02*
X235196310Y-65554819D01*
X235196310Y-65554819D02*
X235815357Y-65554819D01*
X236504819Y-58833333D02*
X237219104Y-58833333D01*
X237219104Y-58833333D02*
X237361961Y-58880952D01*
X237361961Y-58880952D02*
X237457200Y-58976190D01*
X237457200Y-58976190D02*
X237504819Y-59119047D01*
X237504819Y-59119047D02*
X237504819Y-59214285D01*
X237504819Y-57833333D02*
X237504819Y-58404761D01*
X237504819Y-58119047D02*
X236504819Y-58119047D01*
X236504819Y-58119047D02*
X236647676Y-58214285D01*
X236647676Y-58214285D02*
X236742914Y-58309523D01*
X236742914Y-58309523D02*
X236790533Y-58404761D01*
X135376680Y-57154685D02*
X135329061Y-57202305D01*
X135329061Y-57202305D02*
X135186204Y-57249924D01*
X135186204Y-57249924D02*
X135090966Y-57249924D01*
X135090966Y-57249924D02*
X134948109Y-57202305D01*
X134948109Y-57202305D02*
X134852871Y-57107066D01*
X134852871Y-57107066D02*
X134805252Y-57011828D01*
X134805252Y-57011828D02*
X134757633Y-56821352D01*
X134757633Y-56821352D02*
X134757633Y-56678495D01*
X134757633Y-56678495D02*
X134805252Y-56488019D01*
X134805252Y-56488019D02*
X134852871Y-56392781D01*
X134852871Y-56392781D02*
X134948109Y-56297543D01*
X134948109Y-56297543D02*
X135090966Y-56249924D01*
X135090966Y-56249924D02*
X135186204Y-56249924D01*
X135186204Y-56249924D02*
X135329061Y-56297543D01*
X135329061Y-56297543D02*
X135376680Y-56345162D01*
X135948109Y-57249924D02*
X135852871Y-57202305D01*
X135852871Y-57202305D02*
X135805252Y-57107066D01*
X135805252Y-57107066D02*
X135805252Y-56249924D01*
X136471919Y-57249924D02*
X136376681Y-57202305D01*
X136376681Y-57202305D02*
X136329062Y-57154685D01*
X136329062Y-57154685D02*
X136281443Y-57059447D01*
X136281443Y-57059447D02*
X136281443Y-56773733D01*
X136281443Y-56773733D02*
X136329062Y-56678495D01*
X136329062Y-56678495D02*
X136376681Y-56630876D01*
X136376681Y-56630876D02*
X136471919Y-56583257D01*
X136471919Y-56583257D02*
X136614776Y-56583257D01*
X136614776Y-56583257D02*
X136710014Y-56630876D01*
X136710014Y-56630876D02*
X136757633Y-56678495D01*
X136757633Y-56678495D02*
X136805252Y-56773733D01*
X136805252Y-56773733D02*
X136805252Y-57059447D01*
X136805252Y-57059447D02*
X136757633Y-57154685D01*
X136757633Y-57154685D02*
X136710014Y-57202305D01*
X136710014Y-57202305D02*
X136614776Y-57249924D01*
X136614776Y-57249924D02*
X136471919Y-57249924D01*
X137662395Y-57249924D02*
X137662395Y-56726114D01*
X137662395Y-56726114D02*
X137614776Y-56630876D01*
X137614776Y-56630876D02*
X137519538Y-56583257D01*
X137519538Y-56583257D02*
X137329062Y-56583257D01*
X137329062Y-56583257D02*
X137233824Y-56630876D01*
X137662395Y-57202305D02*
X137567157Y-57249924D01*
X137567157Y-57249924D02*
X137329062Y-57249924D01*
X137329062Y-57249924D02*
X137233824Y-57202305D01*
X137233824Y-57202305D02*
X137186205Y-57107066D01*
X137186205Y-57107066D02*
X137186205Y-57011828D01*
X137186205Y-57011828D02*
X137233824Y-56916590D01*
X137233824Y-56916590D02*
X137329062Y-56868971D01*
X137329062Y-56868971D02*
X137567157Y-56868971D01*
X137567157Y-56868971D02*
X137662395Y-56821352D01*
X138567157Y-57249924D02*
X138567157Y-56249924D01*
X138567157Y-57202305D02*
X138471919Y-57249924D01*
X138471919Y-57249924D02*
X138281443Y-57249924D01*
X138281443Y-57249924D02*
X138186205Y-57202305D01*
X138186205Y-57202305D02*
X138138586Y-57154685D01*
X138138586Y-57154685D02*
X138090967Y-57059447D01*
X138090967Y-57059447D02*
X138090967Y-56773733D01*
X138090967Y-56773733D02*
X138138586Y-56678495D01*
X138138586Y-56678495D02*
X138186205Y-56630876D01*
X138186205Y-56630876D02*
X138281443Y-56583257D01*
X138281443Y-56583257D02*
X138471919Y-56583257D01*
X138471919Y-56583257D02*
X138567157Y-56630876D01*
X139471919Y-56249924D02*
X139281443Y-56249924D01*
X139281443Y-56249924D02*
X139186205Y-56297543D01*
X139186205Y-56297543D02*
X139138586Y-56345162D01*
X139138586Y-56345162D02*
X139043348Y-56488019D01*
X139043348Y-56488019D02*
X138995729Y-56678495D01*
X138995729Y-56678495D02*
X138995729Y-57059447D01*
X138995729Y-57059447D02*
X139043348Y-57154685D01*
X139043348Y-57154685D02*
X139090967Y-57202305D01*
X139090967Y-57202305D02*
X139186205Y-57249924D01*
X139186205Y-57249924D02*
X139376681Y-57249924D01*
X139376681Y-57249924D02*
X139471919Y-57202305D01*
X139471919Y-57202305D02*
X139519538Y-57154685D01*
X139519538Y-57154685D02*
X139567157Y-57059447D01*
X139567157Y-57059447D02*
X139567157Y-56821352D01*
X139567157Y-56821352D02*
X139519538Y-56726114D01*
X139519538Y-56726114D02*
X139471919Y-56678495D01*
X139471919Y-56678495D02*
X139376681Y-56630876D01*
X139376681Y-56630876D02*
X139186205Y-56630876D01*
X139186205Y-56630876D02*
X139090967Y-56678495D01*
X139090967Y-56678495D02*
X139043348Y-56726114D01*
X139043348Y-56726114D02*
X138995729Y-56821352D01*
X171884819Y-67518928D02*
X171408628Y-67852261D01*
X171884819Y-68090356D02*
X170884819Y-68090356D01*
X170884819Y-68090356D02*
X170884819Y-67709404D01*
X170884819Y-67709404D02*
X170932438Y-67614166D01*
X170932438Y-67614166D02*
X170980057Y-67566547D01*
X170980057Y-67566547D02*
X171075295Y-67518928D01*
X171075295Y-67518928D02*
X171218152Y-67518928D01*
X171218152Y-67518928D02*
X171313390Y-67566547D01*
X171313390Y-67566547D02*
X171361009Y-67614166D01*
X171361009Y-67614166D02*
X171408628Y-67709404D01*
X171408628Y-67709404D02*
X171408628Y-68090356D01*
X171218152Y-67090356D02*
X172218152Y-67090356D01*
X171265771Y-67090356D02*
X171218152Y-66995118D01*
X171218152Y-66995118D02*
X171218152Y-66804642D01*
X171218152Y-66804642D02*
X171265771Y-66709404D01*
X171265771Y-66709404D02*
X171313390Y-66661785D01*
X171313390Y-66661785D02*
X171408628Y-66614166D01*
X171408628Y-66614166D02*
X171694342Y-66614166D01*
X171694342Y-66614166D02*
X171789580Y-66661785D01*
X171789580Y-66661785D02*
X171837200Y-66709404D01*
X171837200Y-66709404D02*
X171884819Y-66804642D01*
X171884819Y-66804642D02*
X171884819Y-66995118D01*
X171884819Y-66995118D02*
X171837200Y-67090356D01*
X171218152Y-65757023D02*
X171884819Y-65757023D01*
X171218152Y-66185594D02*
X171741961Y-66185594D01*
X171741961Y-66185594D02*
X171837200Y-66137975D01*
X171837200Y-66137975D02*
X171884819Y-66042737D01*
X171884819Y-66042737D02*
X171884819Y-65899880D01*
X171884819Y-65899880D02*
X171837200Y-65804642D01*
X171837200Y-65804642D02*
X171789580Y-65757023D01*
X170884819Y-65376070D02*
X170884819Y-64757023D01*
X170884819Y-64757023D02*
X171265771Y-65090356D01*
X171265771Y-65090356D02*
X171265771Y-64947499D01*
X171265771Y-64947499D02*
X171313390Y-64852261D01*
X171313390Y-64852261D02*
X171361009Y-64804642D01*
X171361009Y-64804642D02*
X171456247Y-64757023D01*
X171456247Y-64757023D02*
X171694342Y-64757023D01*
X171694342Y-64757023D02*
X171789580Y-64804642D01*
X171789580Y-64804642D02*
X171837200Y-64852261D01*
X171837200Y-64852261D02*
X171884819Y-64947499D01*
X171884819Y-64947499D02*
X171884819Y-65233213D01*
X171884819Y-65233213D02*
X171837200Y-65328451D01*
X171837200Y-65328451D02*
X171789580Y-65376070D01*
X123354819Y-49226189D02*
X122354819Y-49226189D01*
X122831009Y-49226189D02*
X122831009Y-48654761D01*
X123354819Y-48654761D02*
X122354819Y-48654761D01*
X122354819Y-48273808D02*
X122354819Y-47654761D01*
X122354819Y-47654761D02*
X122735771Y-47988094D01*
X122735771Y-47988094D02*
X122735771Y-47845237D01*
X122735771Y-47845237D02*
X122783390Y-47749999D01*
X122783390Y-47749999D02*
X122831009Y-47702380D01*
X122831009Y-47702380D02*
X122926247Y-47654761D01*
X122926247Y-47654761D02*
X123164342Y-47654761D01*
X123164342Y-47654761D02*
X123259580Y-47702380D01*
X123259580Y-47702380D02*
X123307200Y-47749999D01*
X123307200Y-47749999D02*
X123354819Y-47845237D01*
X123354819Y-47845237D02*
X123354819Y-48130951D01*
X123354819Y-48130951D02*
X123307200Y-48226189D01*
X123307200Y-48226189D02*
X123259580Y-48273808D01*
X123259580Y-47226189D02*
X123307200Y-47178570D01*
X123307200Y-47178570D02*
X123354819Y-47226189D01*
X123354819Y-47226189D02*
X123307200Y-47273808D01*
X123307200Y-47273808D02*
X123259580Y-47226189D01*
X123259580Y-47226189D02*
X123354819Y-47226189D01*
X122450057Y-46797618D02*
X122402438Y-46749999D01*
X122402438Y-46749999D02*
X122354819Y-46654761D01*
X122354819Y-46654761D02*
X122354819Y-46416666D01*
X122354819Y-46416666D02*
X122402438Y-46321428D01*
X122402438Y-46321428D02*
X122450057Y-46273809D01*
X122450057Y-46273809D02*
X122545295Y-46226190D01*
X122545295Y-46226190D02*
X122640533Y-46226190D01*
X122640533Y-46226190D02*
X122783390Y-46273809D01*
X122783390Y-46273809D02*
X123354819Y-46845237D01*
X123354819Y-46845237D02*
X123354819Y-46226190D01*
X207204819Y-55781904D02*
X208014342Y-55781904D01*
X208014342Y-55781904D02*
X208109580Y-55734285D01*
X208109580Y-55734285D02*
X208157200Y-55686666D01*
X208157200Y-55686666D02*
X208204819Y-55591428D01*
X208204819Y-55591428D02*
X208204819Y-55400952D01*
X208204819Y-55400952D02*
X208157200Y-55305714D01*
X208157200Y-55305714D02*
X208109580Y-55258095D01*
X208109580Y-55258095D02*
X208014342Y-55210476D01*
X208014342Y-55210476D02*
X207204819Y-55210476D01*
X207204819Y-54258095D02*
X207204819Y-54734285D01*
X207204819Y-54734285D02*
X207681009Y-54781904D01*
X207681009Y-54781904D02*
X207633390Y-54734285D01*
X207633390Y-54734285D02*
X207585771Y-54639047D01*
X207585771Y-54639047D02*
X207585771Y-54400952D01*
X207585771Y-54400952D02*
X207633390Y-54305714D01*
X207633390Y-54305714D02*
X207681009Y-54258095D01*
X207681009Y-54258095D02*
X207776247Y-54210476D01*
X207776247Y-54210476D02*
X208014342Y-54210476D01*
X208014342Y-54210476D02*
X208109580Y-54258095D01*
X208109580Y-54258095D02*
X208157200Y-54305714D01*
X208157200Y-54305714D02*
X208204819Y-54400952D01*
X208204819Y-54400952D02*
X208204819Y-54639047D01*
X208204819Y-54639047D02*
X208157200Y-54734285D01*
X208157200Y-54734285D02*
X208109580Y-54781904D01*
X171937499Y-55124580D02*
X171889880Y-55172200D01*
X171889880Y-55172200D02*
X171747023Y-55219819D01*
X171747023Y-55219819D02*
X171651785Y-55219819D01*
X171651785Y-55219819D02*
X171508928Y-55172200D01*
X171508928Y-55172200D02*
X171413690Y-55076961D01*
X171413690Y-55076961D02*
X171366071Y-54981723D01*
X171366071Y-54981723D02*
X171318452Y-54791247D01*
X171318452Y-54791247D02*
X171318452Y-54648390D01*
X171318452Y-54648390D02*
X171366071Y-54457914D01*
X171366071Y-54457914D02*
X171413690Y-54362676D01*
X171413690Y-54362676D02*
X171508928Y-54267438D01*
X171508928Y-54267438D02*
X171651785Y-54219819D01*
X171651785Y-54219819D02*
X171747023Y-54219819D01*
X171747023Y-54219819D02*
X171889880Y-54267438D01*
X171889880Y-54267438D02*
X171937499Y-54315057D01*
X172699404Y-54696009D02*
X172842261Y-54743628D01*
X172842261Y-54743628D02*
X172889880Y-54791247D01*
X172889880Y-54791247D02*
X172937499Y-54886485D01*
X172937499Y-54886485D02*
X172937499Y-55029342D01*
X172937499Y-55029342D02*
X172889880Y-55124580D01*
X172889880Y-55124580D02*
X172842261Y-55172200D01*
X172842261Y-55172200D02*
X172747023Y-55219819D01*
X172747023Y-55219819D02*
X172366071Y-55219819D01*
X172366071Y-55219819D02*
X172366071Y-54219819D01*
X172366071Y-54219819D02*
X172699404Y-54219819D01*
X172699404Y-54219819D02*
X172794642Y-54267438D01*
X172794642Y-54267438D02*
X172842261Y-54315057D01*
X172842261Y-54315057D02*
X172889880Y-54410295D01*
X172889880Y-54410295D02*
X172889880Y-54505533D01*
X172889880Y-54505533D02*
X172842261Y-54600771D01*
X172842261Y-54600771D02*
X172794642Y-54648390D01*
X172794642Y-54648390D02*
X172699404Y-54696009D01*
X172699404Y-54696009D02*
X172366071Y-54696009D01*
X173270833Y-54553152D02*
X173508928Y-55219819D01*
X173747023Y-54553152D02*
X173508928Y-55219819D01*
X173508928Y-55219819D02*
X173413690Y-55457914D01*
X173413690Y-55457914D02*
X173366071Y-55505533D01*
X173366071Y-55505533D02*
X173270833Y-55553152D01*
X174127976Y-54553152D02*
X174127976Y-55553152D01*
X174127976Y-54600771D02*
X174223214Y-54553152D01*
X174223214Y-54553152D02*
X174413690Y-54553152D01*
X174413690Y-54553152D02*
X174508928Y-54600771D01*
X174508928Y-54600771D02*
X174556547Y-54648390D01*
X174556547Y-54648390D02*
X174604166Y-54743628D01*
X174604166Y-54743628D02*
X174604166Y-55029342D01*
X174604166Y-55029342D02*
X174556547Y-55124580D01*
X174556547Y-55124580D02*
X174508928Y-55172200D01*
X174508928Y-55172200D02*
X174413690Y-55219819D01*
X174413690Y-55219819D02*
X174223214Y-55219819D01*
X174223214Y-55219819D02*
X174127976Y-55172200D01*
X175461309Y-54553152D02*
X175461309Y-55219819D01*
X175223214Y-54172200D02*
X174985119Y-54886485D01*
X174985119Y-54886485D02*
X175604166Y-54886485D01*
X165404819Y-49876189D02*
X164404819Y-49876189D01*
X164881009Y-49876189D02*
X164881009Y-49304761D01*
X165404819Y-49304761D02*
X164404819Y-49304761D01*
X165404819Y-48304761D02*
X165404819Y-48876189D01*
X165404819Y-48590475D02*
X164404819Y-48590475D01*
X164404819Y-48590475D02*
X164547676Y-48685713D01*
X164547676Y-48685713D02*
X164642914Y-48780951D01*
X164642914Y-48780951D02*
X164690533Y-48876189D01*
X165309580Y-47876189D02*
X165357200Y-47828570D01*
X165357200Y-47828570D02*
X165404819Y-47876189D01*
X165404819Y-47876189D02*
X165357200Y-47923808D01*
X165357200Y-47923808D02*
X165309580Y-47876189D01*
X165309580Y-47876189D02*
X165404819Y-47876189D01*
X164500057Y-47447618D02*
X164452438Y-47399999D01*
X164452438Y-47399999D02*
X164404819Y-47304761D01*
X164404819Y-47304761D02*
X164404819Y-47066666D01*
X164404819Y-47066666D02*
X164452438Y-46971428D01*
X164452438Y-46971428D02*
X164500057Y-46923809D01*
X164500057Y-46923809D02*
X164595295Y-46876190D01*
X164595295Y-46876190D02*
X164690533Y-46876190D01*
X164690533Y-46876190D02*
X164833390Y-46923809D01*
X164833390Y-46923809D02*
X165404819Y-47495237D01*
X165404819Y-47495237D02*
X165404819Y-46876190D01*
X126555966Y-55909924D02*
X126222633Y-55433733D01*
X125984538Y-55909924D02*
X125984538Y-54909924D01*
X125984538Y-54909924D02*
X126365490Y-54909924D01*
X126365490Y-54909924D02*
X126460728Y-54957543D01*
X126460728Y-54957543D02*
X126508347Y-55005162D01*
X126508347Y-55005162D02*
X126555966Y-55100400D01*
X126555966Y-55100400D02*
X126555966Y-55243257D01*
X126555966Y-55243257D02*
X126508347Y-55338495D01*
X126508347Y-55338495D02*
X126460728Y-55386114D01*
X126460728Y-55386114D02*
X126365490Y-55433733D01*
X126365490Y-55433733D02*
X125984538Y-55433733D01*
X126984538Y-55243257D02*
X126984538Y-56243257D01*
X126984538Y-55290876D02*
X127079776Y-55243257D01*
X127079776Y-55243257D02*
X127270252Y-55243257D01*
X127270252Y-55243257D02*
X127365490Y-55290876D01*
X127365490Y-55290876D02*
X127413109Y-55338495D01*
X127413109Y-55338495D02*
X127460728Y-55433733D01*
X127460728Y-55433733D02*
X127460728Y-55719447D01*
X127460728Y-55719447D02*
X127413109Y-55814685D01*
X127413109Y-55814685D02*
X127365490Y-55862305D01*
X127365490Y-55862305D02*
X127270252Y-55909924D01*
X127270252Y-55909924D02*
X127079776Y-55909924D01*
X127079776Y-55909924D02*
X126984538Y-55862305D01*
X128317871Y-55243257D02*
X128317871Y-55909924D01*
X127889300Y-55243257D02*
X127889300Y-55767066D01*
X127889300Y-55767066D02*
X127936919Y-55862305D01*
X127936919Y-55862305D02*
X128032157Y-55909924D01*
X128032157Y-55909924D02*
X128175014Y-55909924D01*
X128175014Y-55909924D02*
X128270252Y-55862305D01*
X128270252Y-55862305D02*
X128317871Y-55814685D01*
X129222633Y-54909924D02*
X129032157Y-54909924D01*
X129032157Y-54909924D02*
X128936919Y-54957543D01*
X128936919Y-54957543D02*
X128889300Y-55005162D01*
X128889300Y-55005162D02*
X128794062Y-55148019D01*
X128794062Y-55148019D02*
X128746443Y-55338495D01*
X128746443Y-55338495D02*
X128746443Y-55719447D01*
X128746443Y-55719447D02*
X128794062Y-55814685D01*
X128794062Y-55814685D02*
X128841681Y-55862305D01*
X128841681Y-55862305D02*
X128936919Y-55909924D01*
X128936919Y-55909924D02*
X129127395Y-55909924D01*
X129127395Y-55909924D02*
X129222633Y-55862305D01*
X129222633Y-55862305D02*
X129270252Y-55814685D01*
X129270252Y-55814685D02*
X129317871Y-55719447D01*
X129317871Y-55719447D02*
X129317871Y-55481352D01*
X129317871Y-55481352D02*
X129270252Y-55386114D01*
X129270252Y-55386114D02*
X129222633Y-55338495D01*
X129222633Y-55338495D02*
X129127395Y-55290876D01*
X129127395Y-55290876D02*
X128936919Y-55290876D01*
X128936919Y-55290876D02*
X128841681Y-55338495D01*
X128841681Y-55338495D02*
X128794062Y-55386114D01*
X128794062Y-55386114D02*
X128746443Y-55481352D01*
X199238095Y-55604819D02*
X199809523Y-55604819D01*
X199523809Y-56604819D02*
X199523809Y-55604819D01*
X200142857Y-56604819D02*
X200142857Y-55604819D01*
X200142857Y-55604819D02*
X200523809Y-55604819D01*
X200523809Y-55604819D02*
X200619047Y-55652438D01*
X200619047Y-55652438D02*
X200666666Y-55700057D01*
X200666666Y-55700057D02*
X200714285Y-55795295D01*
X200714285Y-55795295D02*
X200714285Y-55938152D01*
X200714285Y-55938152D02*
X200666666Y-56033390D01*
X200666666Y-56033390D02*
X200619047Y-56081009D01*
X200619047Y-56081009D02*
X200523809Y-56128628D01*
X200523809Y-56128628D02*
X200142857Y-56128628D01*
X201619047Y-55604819D02*
X201142857Y-55604819D01*
X201142857Y-55604819D02*
X201095238Y-56081009D01*
X201095238Y-56081009D02*
X201142857Y-56033390D01*
X201142857Y-56033390D02*
X201238095Y-55985771D01*
X201238095Y-55985771D02*
X201476190Y-55985771D01*
X201476190Y-55985771D02*
X201571428Y-56033390D01*
X201571428Y-56033390D02*
X201619047Y-56081009D01*
X201619047Y-56081009D02*
X201666666Y-56176247D01*
X201666666Y-56176247D02*
X201666666Y-56414342D01*
X201666666Y-56414342D02*
X201619047Y-56509580D01*
X201619047Y-56509580D02*
X201571428Y-56557200D01*
X201571428Y-56557200D02*
X201476190Y-56604819D01*
X201476190Y-56604819D02*
X201238095Y-56604819D01*
X201238095Y-56604819D02*
X201142857Y-56557200D01*
X201142857Y-56557200D02*
X201095238Y-56509580D01*
X210254819Y-49226189D02*
X209254819Y-49226189D01*
X209731009Y-49226189D02*
X209731009Y-48654761D01*
X210254819Y-48654761D02*
X209254819Y-48654761D01*
X209350057Y-48226189D02*
X209302438Y-48178570D01*
X209302438Y-48178570D02*
X209254819Y-48083332D01*
X209254819Y-48083332D02*
X209254819Y-47845237D01*
X209254819Y-47845237D02*
X209302438Y-47749999D01*
X209302438Y-47749999D02*
X209350057Y-47702380D01*
X209350057Y-47702380D02*
X209445295Y-47654761D01*
X209445295Y-47654761D02*
X209540533Y-47654761D01*
X209540533Y-47654761D02*
X209683390Y-47702380D01*
X209683390Y-47702380D02*
X210254819Y-48273808D01*
X210254819Y-48273808D02*
X210254819Y-47654761D01*
X210159580Y-47226189D02*
X210207200Y-47178570D01*
X210207200Y-47178570D02*
X210254819Y-47226189D01*
X210254819Y-47226189D02*
X210207200Y-47273808D01*
X210207200Y-47273808D02*
X210159580Y-47226189D01*
X210159580Y-47226189D02*
X210254819Y-47226189D01*
X210254819Y-46226190D02*
X210254819Y-46797618D01*
X210254819Y-46511904D02*
X209254819Y-46511904D01*
X209254819Y-46511904D02*
X209397676Y-46607142D01*
X209397676Y-46607142D02*
X209492914Y-46702380D01*
X209492914Y-46702380D02*
X209540533Y-46797618D01*
X166984819Y-46841904D02*
X167794342Y-46841904D01*
X167794342Y-46841904D02*
X167889580Y-46794285D01*
X167889580Y-46794285D02*
X167937200Y-46746666D01*
X167937200Y-46746666D02*
X167984819Y-46651428D01*
X167984819Y-46651428D02*
X167984819Y-46460952D01*
X167984819Y-46460952D02*
X167937200Y-46365714D01*
X167937200Y-46365714D02*
X167889580Y-46318095D01*
X167889580Y-46318095D02*
X167794342Y-46270476D01*
X167794342Y-46270476D02*
X166984819Y-46270476D01*
X167318152Y-45365714D02*
X167984819Y-45365714D01*
X166937200Y-45603809D02*
X167651485Y-45841904D01*
X167651485Y-45841904D02*
X167651485Y-45222857D01*
X223334819Y-66166904D02*
X224144342Y-66166904D01*
X224144342Y-66166904D02*
X224239580Y-66119285D01*
X224239580Y-66119285D02*
X224287200Y-66071666D01*
X224287200Y-66071666D02*
X224334819Y-65976428D01*
X224334819Y-65976428D02*
X224334819Y-65785952D01*
X224334819Y-65785952D02*
X224287200Y-65690714D01*
X224287200Y-65690714D02*
X224239580Y-65643095D01*
X224239580Y-65643095D02*
X224144342Y-65595476D01*
X224144342Y-65595476D02*
X223334819Y-65595476D01*
X223763390Y-64976428D02*
X223715771Y-65071666D01*
X223715771Y-65071666D02*
X223668152Y-65119285D01*
X223668152Y-65119285D02*
X223572914Y-65166904D01*
X223572914Y-65166904D02*
X223525295Y-65166904D01*
X223525295Y-65166904D02*
X223430057Y-65119285D01*
X223430057Y-65119285D02*
X223382438Y-65071666D01*
X223382438Y-65071666D02*
X223334819Y-64976428D01*
X223334819Y-64976428D02*
X223334819Y-64785952D01*
X223334819Y-64785952D02*
X223382438Y-64690714D01*
X223382438Y-64690714D02*
X223430057Y-64643095D01*
X223430057Y-64643095D02*
X223525295Y-64595476D01*
X223525295Y-64595476D02*
X223572914Y-64595476D01*
X223572914Y-64595476D02*
X223668152Y-64643095D01*
X223668152Y-64643095D02*
X223715771Y-64690714D01*
X223715771Y-64690714D02*
X223763390Y-64785952D01*
X223763390Y-64785952D02*
X223763390Y-64976428D01*
X223763390Y-64976428D02*
X223811009Y-65071666D01*
X223811009Y-65071666D02*
X223858628Y-65119285D01*
X223858628Y-65119285D02*
X223953866Y-65166904D01*
X223953866Y-65166904D02*
X224144342Y-65166904D01*
X224144342Y-65166904D02*
X224239580Y-65119285D01*
X224239580Y-65119285D02*
X224287200Y-65071666D01*
X224287200Y-65071666D02*
X224334819Y-64976428D01*
X224334819Y-64976428D02*
X224334819Y-64785952D01*
X224334819Y-64785952D02*
X224287200Y-64690714D01*
X224287200Y-64690714D02*
X224239580Y-64643095D01*
X224239580Y-64643095D02*
X224144342Y-64595476D01*
X224144342Y-64595476D02*
X223953866Y-64595476D01*
X223953866Y-64595476D02*
X223858628Y-64643095D01*
X223858628Y-64643095D02*
X223811009Y-64690714D01*
X223811009Y-64690714D02*
X223763390Y-64785952D01*
X199296071Y-55449819D02*
X198962738Y-54973628D01*
X198724643Y-55449819D02*
X198724643Y-54449819D01*
X198724643Y-54449819D02*
X199105595Y-54449819D01*
X199105595Y-54449819D02*
X199200833Y-54497438D01*
X199200833Y-54497438D02*
X199248452Y-54545057D01*
X199248452Y-54545057D02*
X199296071Y-54640295D01*
X199296071Y-54640295D02*
X199296071Y-54783152D01*
X199296071Y-54783152D02*
X199248452Y-54878390D01*
X199248452Y-54878390D02*
X199200833Y-54926009D01*
X199200833Y-54926009D02*
X199105595Y-54973628D01*
X199105595Y-54973628D02*
X198724643Y-54973628D01*
X199724643Y-54783152D02*
X199724643Y-55783152D01*
X199724643Y-54830771D02*
X199819881Y-54783152D01*
X199819881Y-54783152D02*
X200010357Y-54783152D01*
X200010357Y-54783152D02*
X200105595Y-54830771D01*
X200105595Y-54830771D02*
X200153214Y-54878390D01*
X200153214Y-54878390D02*
X200200833Y-54973628D01*
X200200833Y-54973628D02*
X200200833Y-55259342D01*
X200200833Y-55259342D02*
X200153214Y-55354580D01*
X200153214Y-55354580D02*
X200105595Y-55402200D01*
X200105595Y-55402200D02*
X200010357Y-55449819D01*
X200010357Y-55449819D02*
X199819881Y-55449819D01*
X199819881Y-55449819D02*
X199724643Y-55402200D01*
X201057976Y-54783152D02*
X201057976Y-55449819D01*
X200629405Y-54783152D02*
X200629405Y-55306961D01*
X200629405Y-55306961D02*
X200677024Y-55402200D01*
X200677024Y-55402200D02*
X200772262Y-55449819D01*
X200772262Y-55449819D02*
X200915119Y-55449819D01*
X200915119Y-55449819D02*
X201010357Y-55402200D01*
X201010357Y-55402200D02*
X201057976Y-55354580D01*
X202010357Y-54449819D02*
X201534167Y-54449819D01*
X201534167Y-54449819D02*
X201486548Y-54926009D01*
X201486548Y-54926009D02*
X201534167Y-54878390D01*
X201534167Y-54878390D02*
X201629405Y-54830771D01*
X201629405Y-54830771D02*
X201867500Y-54830771D01*
X201867500Y-54830771D02*
X201962738Y-54878390D01*
X201962738Y-54878390D02*
X202010357Y-54926009D01*
X202010357Y-54926009D02*
X202057976Y-55021247D01*
X202057976Y-55021247D02*
X202057976Y-55259342D01*
X202057976Y-55259342D02*
X202010357Y-55354580D01*
X202010357Y-55354580D02*
X201962738Y-55402200D01*
X201962738Y-55402200D02*
X201867500Y-55449819D01*
X201867500Y-55449819D02*
X201629405Y-55449819D01*
X201629405Y-55449819D02*
X201534167Y-55402200D01*
X201534167Y-55402200D02*
X201486548Y-55354580D01*
X137404819Y-49376189D02*
X136404819Y-49376189D01*
X136881009Y-49376189D02*
X136881009Y-48804761D01*
X137404819Y-48804761D02*
X136404819Y-48804761D01*
X136404819Y-48423808D02*
X136404819Y-47804761D01*
X136404819Y-47804761D02*
X136785771Y-48138094D01*
X136785771Y-48138094D02*
X136785771Y-47995237D01*
X136785771Y-47995237D02*
X136833390Y-47899999D01*
X136833390Y-47899999D02*
X136881009Y-47852380D01*
X136881009Y-47852380D02*
X136976247Y-47804761D01*
X136976247Y-47804761D02*
X137214342Y-47804761D01*
X137214342Y-47804761D02*
X137309580Y-47852380D01*
X137309580Y-47852380D02*
X137357200Y-47899999D01*
X137357200Y-47899999D02*
X137404819Y-47995237D01*
X137404819Y-47995237D02*
X137404819Y-48280951D01*
X137404819Y-48280951D02*
X137357200Y-48376189D01*
X137357200Y-48376189D02*
X137309580Y-48423808D01*
X137309580Y-47376189D02*
X137357200Y-47328570D01*
X137357200Y-47328570D02*
X137404819Y-47376189D01*
X137404819Y-47376189D02*
X137357200Y-47423808D01*
X137357200Y-47423808D02*
X137309580Y-47376189D01*
X137309580Y-47376189D02*
X137404819Y-47376189D01*
X137404819Y-46376190D02*
X137404819Y-46947618D01*
X137404819Y-46661904D02*
X136404819Y-46661904D01*
X136404819Y-46661904D02*
X136547676Y-46757142D01*
X136547676Y-46757142D02*
X136642914Y-46852380D01*
X136642914Y-46852380D02*
X136690533Y-46947618D01*
X209143095Y-62282319D02*
X209714523Y-62282319D01*
X209428809Y-63282319D02*
X209428809Y-62282319D01*
X210047857Y-63282319D02*
X210047857Y-62282319D01*
X210047857Y-62282319D02*
X210428809Y-62282319D01*
X210428809Y-62282319D02*
X210524047Y-62329938D01*
X210524047Y-62329938D02*
X210571666Y-62377557D01*
X210571666Y-62377557D02*
X210619285Y-62472795D01*
X210619285Y-62472795D02*
X210619285Y-62615652D01*
X210619285Y-62615652D02*
X210571666Y-62710890D01*
X210571666Y-62710890D02*
X210524047Y-62758509D01*
X210524047Y-62758509D02*
X210428809Y-62806128D01*
X210428809Y-62806128D02*
X210047857Y-62806128D01*
X211000238Y-62377557D02*
X211047857Y-62329938D01*
X211047857Y-62329938D02*
X211143095Y-62282319D01*
X211143095Y-62282319D02*
X211381190Y-62282319D01*
X211381190Y-62282319D02*
X211476428Y-62329938D01*
X211476428Y-62329938D02*
X211524047Y-62377557D01*
X211524047Y-62377557D02*
X211571666Y-62472795D01*
X211571666Y-62472795D02*
X211571666Y-62568033D01*
X211571666Y-62568033D02*
X211524047Y-62710890D01*
X211524047Y-62710890D02*
X210952619Y-63282319D01*
X210952619Y-63282319D02*
X211571666Y-63282319D01*
X201204819Y-75776189D02*
X200204819Y-75776189D01*
X200681009Y-75776189D02*
X200681009Y-75204761D01*
X201204819Y-75204761D02*
X200204819Y-75204761D01*
X200204819Y-74252380D02*
X200204819Y-74728570D01*
X200204819Y-74728570D02*
X200681009Y-74776189D01*
X200681009Y-74776189D02*
X200633390Y-74728570D01*
X200633390Y-74728570D02*
X200585771Y-74633332D01*
X200585771Y-74633332D02*
X200585771Y-74395237D01*
X200585771Y-74395237D02*
X200633390Y-74299999D01*
X200633390Y-74299999D02*
X200681009Y-74252380D01*
X200681009Y-74252380D02*
X200776247Y-74204761D01*
X200776247Y-74204761D02*
X201014342Y-74204761D01*
X201014342Y-74204761D02*
X201109580Y-74252380D01*
X201109580Y-74252380D02*
X201157200Y-74299999D01*
X201157200Y-74299999D02*
X201204819Y-74395237D01*
X201204819Y-74395237D02*
X201204819Y-74633332D01*
X201204819Y-74633332D02*
X201157200Y-74728570D01*
X201157200Y-74728570D02*
X201109580Y-74776189D01*
X201109580Y-73776189D02*
X201157200Y-73728570D01*
X201157200Y-73728570D02*
X201204819Y-73776189D01*
X201204819Y-73776189D02*
X201157200Y-73823808D01*
X201157200Y-73823808D02*
X201109580Y-73776189D01*
X201109580Y-73776189D02*
X201204819Y-73776189D01*
X201204819Y-72776190D02*
X201204819Y-73347618D01*
X201204819Y-73061904D02*
X200204819Y-73061904D01*
X200204819Y-73061904D02*
X200347676Y-73157142D01*
X200347676Y-73157142D02*
X200442914Y-73252380D01*
X200442914Y-73252380D02*
X200490533Y-73347618D01*
X141603958Y-76630989D02*
X140603958Y-76630989D01*
X141080148Y-76630989D02*
X141080148Y-76059561D01*
X141603958Y-76059561D02*
X140603958Y-76059561D01*
X140937291Y-75154799D02*
X141603958Y-75154799D01*
X140556339Y-75392894D02*
X141270624Y-75630989D01*
X141270624Y-75630989D02*
X141270624Y-75011942D01*
X141508719Y-74630989D02*
X141556339Y-74583370D01*
X141556339Y-74583370D02*
X141603958Y-74630989D01*
X141603958Y-74630989D02*
X141556339Y-74678608D01*
X141556339Y-74678608D02*
X141508719Y-74630989D01*
X141508719Y-74630989D02*
X141603958Y-74630989D01*
X140699196Y-74202418D02*
X140651577Y-74154799D01*
X140651577Y-74154799D02*
X140603958Y-74059561D01*
X140603958Y-74059561D02*
X140603958Y-73821466D01*
X140603958Y-73821466D02*
X140651577Y-73726228D01*
X140651577Y-73726228D02*
X140699196Y-73678609D01*
X140699196Y-73678609D02*
X140794434Y-73630990D01*
X140794434Y-73630990D02*
X140889672Y-73630990D01*
X140889672Y-73630990D02*
X141032529Y-73678609D01*
X141032529Y-73678609D02*
X141603958Y-74250037D01*
X141603958Y-74250037D02*
X141603958Y-73630990D01*
X125687499Y-66839580D02*
X125639880Y-66887200D01*
X125639880Y-66887200D02*
X125497023Y-66934819D01*
X125497023Y-66934819D02*
X125401785Y-66934819D01*
X125401785Y-66934819D02*
X125258928Y-66887200D01*
X125258928Y-66887200D02*
X125163690Y-66791961D01*
X125163690Y-66791961D02*
X125116071Y-66696723D01*
X125116071Y-66696723D02*
X125068452Y-66506247D01*
X125068452Y-66506247D02*
X125068452Y-66363390D01*
X125068452Y-66363390D02*
X125116071Y-66172914D01*
X125116071Y-66172914D02*
X125163690Y-66077676D01*
X125163690Y-66077676D02*
X125258928Y-65982438D01*
X125258928Y-65982438D02*
X125401785Y-65934819D01*
X125401785Y-65934819D02*
X125497023Y-65934819D01*
X125497023Y-65934819D02*
X125639880Y-65982438D01*
X125639880Y-65982438D02*
X125687499Y-66030057D01*
X126449404Y-66411009D02*
X126592261Y-66458628D01*
X126592261Y-66458628D02*
X126639880Y-66506247D01*
X126639880Y-66506247D02*
X126687499Y-66601485D01*
X126687499Y-66601485D02*
X126687499Y-66744342D01*
X126687499Y-66744342D02*
X126639880Y-66839580D01*
X126639880Y-66839580D02*
X126592261Y-66887200D01*
X126592261Y-66887200D02*
X126497023Y-66934819D01*
X126497023Y-66934819D02*
X126116071Y-66934819D01*
X126116071Y-66934819D02*
X126116071Y-65934819D01*
X126116071Y-65934819D02*
X126449404Y-65934819D01*
X126449404Y-65934819D02*
X126544642Y-65982438D01*
X126544642Y-65982438D02*
X126592261Y-66030057D01*
X126592261Y-66030057D02*
X126639880Y-66125295D01*
X126639880Y-66125295D02*
X126639880Y-66220533D01*
X126639880Y-66220533D02*
X126592261Y-66315771D01*
X126592261Y-66315771D02*
X126544642Y-66363390D01*
X126544642Y-66363390D02*
X126449404Y-66411009D01*
X126449404Y-66411009D02*
X126116071Y-66411009D01*
X127020833Y-66268152D02*
X127258928Y-66934819D01*
X127497023Y-66268152D02*
X127258928Y-66934819D01*
X127258928Y-66934819D02*
X127163690Y-67172914D01*
X127163690Y-67172914D02*
X127116071Y-67220533D01*
X127116071Y-67220533D02*
X127020833Y-67268152D01*
X127877976Y-66268152D02*
X127877976Y-67268152D01*
X127877976Y-66315771D02*
X127973214Y-66268152D01*
X127973214Y-66268152D02*
X128163690Y-66268152D01*
X128163690Y-66268152D02*
X128258928Y-66315771D01*
X128258928Y-66315771D02*
X128306547Y-66363390D01*
X128306547Y-66363390D02*
X128354166Y-66458628D01*
X128354166Y-66458628D02*
X128354166Y-66744342D01*
X128354166Y-66744342D02*
X128306547Y-66839580D01*
X128306547Y-66839580D02*
X128258928Y-66887200D01*
X128258928Y-66887200D02*
X128163690Y-66934819D01*
X128163690Y-66934819D02*
X127973214Y-66934819D01*
X127973214Y-66934819D02*
X127877976Y-66887200D01*
X129306547Y-66934819D02*
X128735119Y-66934819D01*
X129020833Y-66934819D02*
X129020833Y-65934819D01*
X129020833Y-65934819D02*
X128925595Y-66077676D01*
X128925595Y-66077676D02*
X128830357Y-66172914D01*
X128830357Y-66172914D02*
X128735119Y-66220533D01*
X208404285Y-56904580D02*
X208356666Y-56952200D01*
X208356666Y-56952200D02*
X208213809Y-56999819D01*
X208213809Y-56999819D02*
X208118571Y-56999819D01*
X208118571Y-56999819D02*
X207975714Y-56952200D01*
X207975714Y-56952200D02*
X207880476Y-56856961D01*
X207880476Y-56856961D02*
X207832857Y-56761723D01*
X207832857Y-56761723D02*
X207785238Y-56571247D01*
X207785238Y-56571247D02*
X207785238Y-56428390D01*
X207785238Y-56428390D02*
X207832857Y-56237914D01*
X207832857Y-56237914D02*
X207880476Y-56142676D01*
X207880476Y-56142676D02*
X207975714Y-56047438D01*
X207975714Y-56047438D02*
X208118571Y-55999819D01*
X208118571Y-55999819D02*
X208213809Y-55999819D01*
X208213809Y-55999819D02*
X208356666Y-56047438D01*
X208356666Y-56047438D02*
X208404285Y-56095057D01*
X208975714Y-56999819D02*
X208880476Y-56952200D01*
X208880476Y-56952200D02*
X208832857Y-56856961D01*
X208832857Y-56856961D02*
X208832857Y-55999819D01*
X209499524Y-56999819D02*
X209404286Y-56952200D01*
X209404286Y-56952200D02*
X209356667Y-56904580D01*
X209356667Y-56904580D02*
X209309048Y-56809342D01*
X209309048Y-56809342D02*
X209309048Y-56523628D01*
X209309048Y-56523628D02*
X209356667Y-56428390D01*
X209356667Y-56428390D02*
X209404286Y-56380771D01*
X209404286Y-56380771D02*
X209499524Y-56333152D01*
X209499524Y-56333152D02*
X209642381Y-56333152D01*
X209642381Y-56333152D02*
X209737619Y-56380771D01*
X209737619Y-56380771D02*
X209785238Y-56428390D01*
X209785238Y-56428390D02*
X209832857Y-56523628D01*
X209832857Y-56523628D02*
X209832857Y-56809342D01*
X209832857Y-56809342D02*
X209785238Y-56904580D01*
X209785238Y-56904580D02*
X209737619Y-56952200D01*
X209737619Y-56952200D02*
X209642381Y-56999819D01*
X209642381Y-56999819D02*
X209499524Y-56999819D01*
X210690000Y-56999819D02*
X210690000Y-56476009D01*
X210690000Y-56476009D02*
X210642381Y-56380771D01*
X210642381Y-56380771D02*
X210547143Y-56333152D01*
X210547143Y-56333152D02*
X210356667Y-56333152D01*
X210356667Y-56333152D02*
X210261429Y-56380771D01*
X210690000Y-56952200D02*
X210594762Y-56999819D01*
X210594762Y-56999819D02*
X210356667Y-56999819D01*
X210356667Y-56999819D02*
X210261429Y-56952200D01*
X210261429Y-56952200D02*
X210213810Y-56856961D01*
X210213810Y-56856961D02*
X210213810Y-56761723D01*
X210213810Y-56761723D02*
X210261429Y-56666485D01*
X210261429Y-56666485D02*
X210356667Y-56618866D01*
X210356667Y-56618866D02*
X210594762Y-56618866D01*
X210594762Y-56618866D02*
X210690000Y-56571247D01*
X211594762Y-56999819D02*
X211594762Y-55999819D01*
X211594762Y-56952200D02*
X211499524Y-56999819D01*
X211499524Y-56999819D02*
X211309048Y-56999819D01*
X211309048Y-56999819D02*
X211213810Y-56952200D01*
X211213810Y-56952200D02*
X211166191Y-56904580D01*
X211166191Y-56904580D02*
X211118572Y-56809342D01*
X211118572Y-56809342D02*
X211118572Y-56523628D01*
X211118572Y-56523628D02*
X211166191Y-56428390D01*
X211166191Y-56428390D02*
X211213810Y-56380771D01*
X211213810Y-56380771D02*
X211309048Y-56333152D01*
X211309048Y-56333152D02*
X211499524Y-56333152D01*
X211499524Y-56333152D02*
X211594762Y-56380771D01*
X212547143Y-55999819D02*
X212070953Y-55999819D01*
X212070953Y-55999819D02*
X212023334Y-56476009D01*
X212023334Y-56476009D02*
X212070953Y-56428390D01*
X212070953Y-56428390D02*
X212166191Y-56380771D01*
X212166191Y-56380771D02*
X212404286Y-56380771D01*
X212404286Y-56380771D02*
X212499524Y-56428390D01*
X212499524Y-56428390D02*
X212547143Y-56476009D01*
X212547143Y-56476009D02*
X212594762Y-56571247D01*
X212594762Y-56571247D02*
X212594762Y-56809342D01*
X212594762Y-56809342D02*
X212547143Y-56904580D01*
X212547143Y-56904580D02*
X212499524Y-56952200D01*
X212499524Y-56952200D02*
X212404286Y-56999819D01*
X212404286Y-56999819D02*
X212166191Y-56999819D01*
X212166191Y-56999819D02*
X212070953Y-56952200D01*
X212070953Y-56952200D02*
X212023334Y-56904580D01*
X197401785Y-65784580D02*
X197354166Y-65832200D01*
X197354166Y-65832200D02*
X197211309Y-65879819D01*
X197211309Y-65879819D02*
X197116071Y-65879819D01*
X197116071Y-65879819D02*
X196973214Y-65832200D01*
X196973214Y-65832200D02*
X196877976Y-65736961D01*
X196877976Y-65736961D02*
X196830357Y-65641723D01*
X196830357Y-65641723D02*
X196782738Y-65451247D01*
X196782738Y-65451247D02*
X196782738Y-65308390D01*
X196782738Y-65308390D02*
X196830357Y-65117914D01*
X196830357Y-65117914D02*
X196877976Y-65022676D01*
X196877976Y-65022676D02*
X196973214Y-64927438D01*
X196973214Y-64927438D02*
X197116071Y-64879819D01*
X197116071Y-64879819D02*
X197211309Y-64879819D01*
X197211309Y-64879819D02*
X197354166Y-64927438D01*
X197354166Y-64927438D02*
X197401785Y-64975057D01*
X197973214Y-65879819D02*
X197877976Y-65832200D01*
X197877976Y-65832200D02*
X197830357Y-65736961D01*
X197830357Y-65736961D02*
X197830357Y-64879819D01*
X198497024Y-65879819D02*
X198401786Y-65832200D01*
X198401786Y-65832200D02*
X198354167Y-65784580D01*
X198354167Y-65784580D02*
X198306548Y-65689342D01*
X198306548Y-65689342D02*
X198306548Y-65403628D01*
X198306548Y-65403628D02*
X198354167Y-65308390D01*
X198354167Y-65308390D02*
X198401786Y-65260771D01*
X198401786Y-65260771D02*
X198497024Y-65213152D01*
X198497024Y-65213152D02*
X198639881Y-65213152D01*
X198639881Y-65213152D02*
X198735119Y-65260771D01*
X198735119Y-65260771D02*
X198782738Y-65308390D01*
X198782738Y-65308390D02*
X198830357Y-65403628D01*
X198830357Y-65403628D02*
X198830357Y-65689342D01*
X198830357Y-65689342D02*
X198782738Y-65784580D01*
X198782738Y-65784580D02*
X198735119Y-65832200D01*
X198735119Y-65832200D02*
X198639881Y-65879819D01*
X198639881Y-65879819D02*
X198497024Y-65879819D01*
X199687500Y-65879819D02*
X199687500Y-65356009D01*
X199687500Y-65356009D02*
X199639881Y-65260771D01*
X199639881Y-65260771D02*
X199544643Y-65213152D01*
X199544643Y-65213152D02*
X199354167Y-65213152D01*
X199354167Y-65213152D02*
X199258929Y-65260771D01*
X199687500Y-65832200D02*
X199592262Y-65879819D01*
X199592262Y-65879819D02*
X199354167Y-65879819D01*
X199354167Y-65879819D02*
X199258929Y-65832200D01*
X199258929Y-65832200D02*
X199211310Y-65736961D01*
X199211310Y-65736961D02*
X199211310Y-65641723D01*
X199211310Y-65641723D02*
X199258929Y-65546485D01*
X199258929Y-65546485D02*
X199354167Y-65498866D01*
X199354167Y-65498866D02*
X199592262Y-65498866D01*
X199592262Y-65498866D02*
X199687500Y-65451247D01*
X200592262Y-65879819D02*
X200592262Y-64879819D01*
X200592262Y-65832200D02*
X200497024Y-65879819D01*
X200497024Y-65879819D02*
X200306548Y-65879819D01*
X200306548Y-65879819D02*
X200211310Y-65832200D01*
X200211310Y-65832200D02*
X200163691Y-65784580D01*
X200163691Y-65784580D02*
X200116072Y-65689342D01*
X200116072Y-65689342D02*
X200116072Y-65403628D01*
X200116072Y-65403628D02*
X200163691Y-65308390D01*
X200163691Y-65308390D02*
X200211310Y-65260771D01*
X200211310Y-65260771D02*
X200306548Y-65213152D01*
X200306548Y-65213152D02*
X200497024Y-65213152D01*
X200497024Y-65213152D02*
X200592262Y-65260771D01*
X201020834Y-64975057D02*
X201068453Y-64927438D01*
X201068453Y-64927438D02*
X201163691Y-64879819D01*
X201163691Y-64879819D02*
X201401786Y-64879819D01*
X201401786Y-64879819D02*
X201497024Y-64927438D01*
X201497024Y-64927438D02*
X201544643Y-64975057D01*
X201544643Y-64975057D02*
X201592262Y-65070295D01*
X201592262Y-65070295D02*
X201592262Y-65165533D01*
X201592262Y-65165533D02*
X201544643Y-65308390D01*
X201544643Y-65308390D02*
X200973215Y-65879819D01*
X200973215Y-65879819D02*
X201592262Y-65879819D01*
X127107990Y-56479924D02*
X127679418Y-56479924D01*
X127393704Y-57479924D02*
X127393704Y-56479924D01*
X128012752Y-57479924D02*
X128012752Y-56479924D01*
X128012752Y-56479924D02*
X128393704Y-56479924D01*
X128393704Y-56479924D02*
X128488942Y-56527543D01*
X128488942Y-56527543D02*
X128536561Y-56575162D01*
X128536561Y-56575162D02*
X128584180Y-56670400D01*
X128584180Y-56670400D02*
X128584180Y-56813257D01*
X128584180Y-56813257D02*
X128536561Y-56908495D01*
X128536561Y-56908495D02*
X128488942Y-56956114D01*
X128488942Y-56956114D02*
X128393704Y-57003733D01*
X128393704Y-57003733D02*
X128012752Y-57003733D01*
X129441323Y-56479924D02*
X129250847Y-56479924D01*
X129250847Y-56479924D02*
X129155609Y-56527543D01*
X129155609Y-56527543D02*
X129107990Y-56575162D01*
X129107990Y-56575162D02*
X129012752Y-56718019D01*
X129012752Y-56718019D02*
X128965133Y-56908495D01*
X128965133Y-56908495D02*
X128965133Y-57289447D01*
X128965133Y-57289447D02*
X129012752Y-57384685D01*
X129012752Y-57384685D02*
X129060371Y-57432305D01*
X129060371Y-57432305D02*
X129155609Y-57479924D01*
X129155609Y-57479924D02*
X129346085Y-57479924D01*
X129346085Y-57479924D02*
X129441323Y-57432305D01*
X129441323Y-57432305D02*
X129488942Y-57384685D01*
X129488942Y-57384685D02*
X129536561Y-57289447D01*
X129536561Y-57289447D02*
X129536561Y-57051352D01*
X129536561Y-57051352D02*
X129488942Y-56956114D01*
X129488942Y-56956114D02*
X129441323Y-56908495D01*
X129441323Y-56908495D02*
X129346085Y-56860876D01*
X129346085Y-56860876D02*
X129155609Y-56860876D01*
X129155609Y-56860876D02*
X129060371Y-56908495D01*
X129060371Y-56908495D02*
X129012752Y-56956114D01*
X129012752Y-56956114D02*
X128965133Y-57051352D01*
X207884819Y-67468928D02*
X207408628Y-67802261D01*
X207884819Y-68040356D02*
X206884819Y-68040356D01*
X206884819Y-68040356D02*
X206884819Y-67659404D01*
X206884819Y-67659404D02*
X206932438Y-67564166D01*
X206932438Y-67564166D02*
X206980057Y-67516547D01*
X206980057Y-67516547D02*
X207075295Y-67468928D01*
X207075295Y-67468928D02*
X207218152Y-67468928D01*
X207218152Y-67468928D02*
X207313390Y-67516547D01*
X207313390Y-67516547D02*
X207361009Y-67564166D01*
X207361009Y-67564166D02*
X207408628Y-67659404D01*
X207408628Y-67659404D02*
X207408628Y-68040356D01*
X207218152Y-67040356D02*
X208218152Y-67040356D01*
X207265771Y-67040356D02*
X207218152Y-66945118D01*
X207218152Y-66945118D02*
X207218152Y-66754642D01*
X207218152Y-66754642D02*
X207265771Y-66659404D01*
X207265771Y-66659404D02*
X207313390Y-66611785D01*
X207313390Y-66611785D02*
X207408628Y-66564166D01*
X207408628Y-66564166D02*
X207694342Y-66564166D01*
X207694342Y-66564166D02*
X207789580Y-66611785D01*
X207789580Y-66611785D02*
X207837200Y-66659404D01*
X207837200Y-66659404D02*
X207884819Y-66754642D01*
X207884819Y-66754642D02*
X207884819Y-66945118D01*
X207884819Y-66945118D02*
X207837200Y-67040356D01*
X207218152Y-65707023D02*
X207884819Y-65707023D01*
X207218152Y-66135594D02*
X207741961Y-66135594D01*
X207741961Y-66135594D02*
X207837200Y-66087975D01*
X207837200Y-66087975D02*
X207884819Y-65992737D01*
X207884819Y-65992737D02*
X207884819Y-65849880D01*
X207884819Y-65849880D02*
X207837200Y-65754642D01*
X207837200Y-65754642D02*
X207789580Y-65707023D01*
X206980057Y-65278451D02*
X206932438Y-65230832D01*
X206932438Y-65230832D02*
X206884819Y-65135594D01*
X206884819Y-65135594D02*
X206884819Y-64897499D01*
X206884819Y-64897499D02*
X206932438Y-64802261D01*
X206932438Y-64802261D02*
X206980057Y-64754642D01*
X206980057Y-64754642D02*
X207075295Y-64707023D01*
X207075295Y-64707023D02*
X207170533Y-64707023D01*
X207170533Y-64707023D02*
X207313390Y-64754642D01*
X207313390Y-64754642D02*
X207884819Y-65326070D01*
X207884819Y-65326070D02*
X207884819Y-64707023D01*
X231519761Y-67357080D02*
X231472142Y-67404700D01*
X231472142Y-67404700D02*
X231329285Y-67452319D01*
X231329285Y-67452319D02*
X231234047Y-67452319D01*
X231234047Y-67452319D02*
X231091190Y-67404700D01*
X231091190Y-67404700D02*
X230995952Y-67309461D01*
X230995952Y-67309461D02*
X230948333Y-67214223D01*
X230948333Y-67214223D02*
X230900714Y-67023747D01*
X230900714Y-67023747D02*
X230900714Y-66880890D01*
X230900714Y-66880890D02*
X230948333Y-66690414D01*
X230948333Y-66690414D02*
X230995952Y-66595176D01*
X230995952Y-66595176D02*
X231091190Y-66499938D01*
X231091190Y-66499938D02*
X231234047Y-66452319D01*
X231234047Y-66452319D02*
X231329285Y-66452319D01*
X231329285Y-66452319D02*
X231472142Y-66499938D01*
X231472142Y-66499938D02*
X231519761Y-66547557D01*
X231948333Y-67452319D02*
X231948333Y-66452319D01*
X231948333Y-66452319D02*
X232186428Y-66452319D01*
X232186428Y-66452319D02*
X232329285Y-66499938D01*
X232329285Y-66499938D02*
X232424523Y-66595176D01*
X232424523Y-66595176D02*
X232472142Y-66690414D01*
X232472142Y-66690414D02*
X232519761Y-66880890D01*
X232519761Y-66880890D02*
X232519761Y-67023747D01*
X232519761Y-67023747D02*
X232472142Y-67214223D01*
X232472142Y-67214223D02*
X232424523Y-67309461D01*
X232424523Y-67309461D02*
X232329285Y-67404700D01*
X232329285Y-67404700D02*
X232186428Y-67452319D01*
X232186428Y-67452319D02*
X231948333Y-67452319D01*
X232805476Y-66452319D02*
X233138809Y-67452319D01*
X233138809Y-67452319D02*
X233472142Y-66452319D01*
X233805476Y-67452319D02*
X233805476Y-66452319D01*
X233805476Y-66452319D02*
X234043571Y-66452319D01*
X234043571Y-66452319D02*
X234186428Y-66499938D01*
X234186428Y-66499938D02*
X234281666Y-66595176D01*
X234281666Y-66595176D02*
X234329285Y-66690414D01*
X234329285Y-66690414D02*
X234376904Y-66880890D01*
X234376904Y-66880890D02*
X234376904Y-67023747D01*
X234376904Y-67023747D02*
X234329285Y-67214223D01*
X234329285Y-67214223D02*
X234281666Y-67309461D01*
X234281666Y-67309461D02*
X234186428Y-67404700D01*
X234186428Y-67404700D02*
X234043571Y-67452319D01*
X234043571Y-67452319D02*
X233805476Y-67452319D01*
X234805476Y-67452319D02*
X234805476Y-66452319D01*
X234805476Y-66452319D02*
X235043571Y-66452319D01*
X235043571Y-66452319D02*
X235186428Y-66499938D01*
X235186428Y-66499938D02*
X235281666Y-66595176D01*
X235281666Y-66595176D02*
X235329285Y-66690414D01*
X235329285Y-66690414D02*
X235376904Y-66880890D01*
X235376904Y-66880890D02*
X235376904Y-67023747D01*
X235376904Y-67023747D02*
X235329285Y-67214223D01*
X235329285Y-67214223D02*
X235281666Y-67309461D01*
X235281666Y-67309461D02*
X235186428Y-67404700D01*
X235186428Y-67404700D02*
X235043571Y-67452319D01*
X235043571Y-67452319D02*
X234805476Y-67452319D01*
X235757857Y-66547557D02*
X235805476Y-66499938D01*
X235805476Y-66499938D02*
X235900714Y-66452319D01*
X235900714Y-66452319D02*
X236138809Y-66452319D01*
X236138809Y-66452319D02*
X236234047Y-66499938D01*
X236234047Y-66499938D02*
X236281666Y-66547557D01*
X236281666Y-66547557D02*
X236329285Y-66642795D01*
X236329285Y-66642795D02*
X236329285Y-66738033D01*
X236329285Y-66738033D02*
X236281666Y-66880890D01*
X236281666Y-66880890D02*
X235710238Y-67452319D01*
X235710238Y-67452319D02*
X236329285Y-67452319D01*
D11*
%TO.C,U7*%
X224595000Y-52705000D02*
X224595000Y-50505000D01*
X230065000Y-52705000D02*
X230065000Y-54905000D01*
X224595000Y-52705000D02*
X224595000Y-54905000D01*
X230065000Y-52705000D02*
X230065000Y-49105000D01*
%TO.C,CDVDD1*%
X232671233Y-52830000D02*
X232963767Y-52830000D01*
X232671233Y-53850000D02*
X232963767Y-53850000D01*
%TO.C,U3*%
X169670000Y-65480000D02*
X169670000Y-65980000D01*
X169670000Y-68720000D02*
X169670000Y-67430000D01*
X166430000Y-65480000D02*
X166800000Y-65480000D01*
X166430000Y-68720000D02*
X166800000Y-68720000D01*
X166430000Y-65480000D02*
X166430000Y-65980000D01*
X166800000Y-68720000D02*
X166800000Y-68980000D01*
X166430000Y-68720000D02*
X166430000Y-67430000D01*
X169300000Y-68720000D02*
X169670000Y-68720000D01*
X169300000Y-65480000D02*
X169670000Y-65480000D01*
%TO.C,R1*%
X225929879Y-58675000D02*
X226265121Y-58675000D01*
X225929879Y-59435000D02*
X226265121Y-59435000D01*
%TO.C,Rpu1*%
X136330000Y-66215121D02*
X136330000Y-65879879D01*
X135570000Y-66215121D02*
X135570000Y-65879879D01*
%TO.C,CAVDD1*%
X232671233Y-54735000D02*
X232963767Y-54735000D01*
X232671233Y-55755000D02*
X232963767Y-55755000D01*
%TO.C,U6*%
X134184895Y-53434895D02*
X133814895Y-53434895D01*
X131314895Y-53434895D02*
X130944895Y-53434895D01*
X130944895Y-53434895D02*
X130944895Y-54724895D01*
X130944895Y-56674895D02*
X130944895Y-56174895D01*
X134184895Y-56674895D02*
X134184895Y-56174895D01*
X134184895Y-53434895D02*
X134184895Y-54724895D01*
X131314895Y-56674895D02*
X130944895Y-56674895D01*
X133814895Y-53434895D02*
X133814895Y-53174895D01*
X134184895Y-56674895D02*
X133814895Y-56674895D01*
%TO.C,R2*%
X229739879Y-59945000D02*
X230075121Y-59945000D01*
X229739879Y-60705000D02*
X230075121Y-60705000D01*
%TO.C,U1*%
X130180000Y-65480000D02*
X130180000Y-65980000D01*
X133050000Y-68720000D02*
X133420000Y-68720000D01*
X133050000Y-65480000D02*
X133420000Y-65480000D01*
X130550000Y-68720000D02*
X130550000Y-68980000D01*
X133420000Y-65480000D02*
X133420000Y-65980000D01*
X130180000Y-68720000D02*
X130550000Y-68720000D01*
X130180000Y-65480000D02*
X130550000Y-65480000D01*
X130180000Y-68720000D02*
X130180000Y-67430000D01*
X133420000Y-68720000D02*
X133420000Y-67430000D01*
%TO.C,U2*%
X202730000Y-65430000D02*
X203100000Y-65430000D01*
X205970000Y-65430000D02*
X205970000Y-65930000D01*
X202730000Y-68670000D02*
X203100000Y-68670000D01*
X205600000Y-68670000D02*
X205970000Y-68670000D01*
X202730000Y-65430000D02*
X202730000Y-65930000D01*
X205970000Y-68670000D02*
X205970000Y-67380000D01*
X202730000Y-68670000D02*
X202730000Y-67380000D01*
X203100000Y-68670000D02*
X203100000Y-68930000D01*
X205600000Y-65430000D02*
X205970000Y-65430000D01*
%TO.C,Cload1*%
X127333767Y-62635000D02*
X127041233Y-62635000D01*
X127333767Y-63655000D02*
X127041233Y-63655000D01*
%TO.C,Cload3*%
X163033767Y-64305000D02*
X162741233Y-64305000D01*
X163033767Y-63285000D02*
X162741233Y-63285000D01*
%TO.C,CByp3*%
X163033767Y-66210000D02*
X162741233Y-66210000D01*
X163033767Y-65190000D02*
X162741233Y-65190000D01*
%TO.C,Rpu4*%
X164229879Y-56045000D02*
X164565121Y-56045000D01*
X164229879Y-55285000D02*
X164565121Y-55285000D01*
%TO.C,CByp5*%
X209816233Y-55560000D02*
X210108767Y-55560000D01*
X209816233Y-56580000D02*
X210108767Y-56580000D01*
%TO.C,CByp2*%
X199333767Y-66410000D02*
X199041233Y-66410000D01*
X199333767Y-65390000D02*
X199041233Y-65390000D01*
%TO.C,Cload4*%
X173291233Y-57590000D02*
X173583767Y-57590000D01*
X173291233Y-58610000D02*
X173583767Y-58610000D01*
%TO.C,CByp6*%
X137041233Y-56844703D02*
X137333767Y-56844703D01*
X137041233Y-55824703D02*
X137333767Y-55824703D01*
%TO.C,CAVDD2*%
X233126233Y-62990000D02*
X233418767Y-62990000D01*
X233126233Y-64010000D02*
X233418767Y-64010000D01*
%TO.C,J1*%
X243750000Y-59500000D02*
X243750000Y-60000000D01*
X242640000Y-53610000D02*
X242640000Y-58500000D01*
X238140000Y-52190000D02*
X238140000Y-53610000D01*
X243750000Y-55000000D02*
X249250000Y-55000000D01*
X249860000Y-58500000D02*
X249860000Y-64810000D01*
X249250000Y-57500000D02*
X249250000Y-57000000D01*
X238450000Y-62550000D02*
X238450000Y-61950000D01*
X249860000Y-64810000D02*
X238140000Y-64810000D01*
X243750000Y-62500000D02*
X249250000Y-62500000D01*
X249250000Y-59500000D02*
X243750000Y-59500000D01*
X249250000Y-57000000D02*
X243750000Y-57000000D01*
X243750000Y-57500000D02*
X249250000Y-57500000D01*
X243750000Y-60000000D02*
X249250000Y-60000000D01*
X243750000Y-62000000D02*
X243750000Y-62500000D01*
X238140000Y-63390000D02*
X242640000Y-63390000D01*
X238140000Y-64810000D02*
X238140000Y-63390000D01*
X243750000Y-57000000D02*
X243750000Y-57500000D01*
X249250000Y-54500000D02*
X243750000Y-54500000D01*
X238140000Y-53610000D02*
X242640000Y-53610000D01*
X249250000Y-60000000D02*
X249250000Y-59500000D01*
X238450000Y-61950000D02*
X239050000Y-62250000D01*
X249860000Y-58500000D02*
X249860000Y-52190000D01*
X249860000Y-52190000D02*
X238140000Y-52190000D01*
X239050000Y-62250000D02*
X238450000Y-62550000D01*
X243750000Y-54500000D02*
X243750000Y-55000000D01*
X249250000Y-62500000D02*
X249250000Y-62000000D01*
X249250000Y-55000000D02*
X249250000Y-54500000D01*
X242640000Y-63390000D02*
X242640000Y-58500000D01*
X249250000Y-62000000D02*
X243750000Y-62000000D01*
%TO.C,Cload6*%
X137016128Y-57715105D02*
X137308662Y-57715105D01*
X137016128Y-58735105D02*
X137308662Y-58735105D01*
%TO.C,Rpu3*%
X172980000Y-66615121D02*
X172980000Y-66279879D01*
X172220000Y-66615121D02*
X172220000Y-66279879D01*
%TO.C,U5*%
X206570000Y-56720000D02*
X206200000Y-56720000D01*
X203700000Y-56720000D02*
X203330000Y-56720000D01*
X206200000Y-53480000D02*
X206200000Y-53220000D01*
X203330000Y-56720000D02*
X203330000Y-56220000D01*
X203330000Y-53480000D02*
X203330000Y-54770000D01*
X206570000Y-56720000D02*
X206570000Y-56220000D01*
X203700000Y-53480000D02*
X203330000Y-53480000D01*
X206570000Y-53480000D02*
X206570000Y-54770000D01*
X206570000Y-53480000D02*
X206200000Y-53480000D01*
%TO.C,CByp4*%
X173291233Y-55685000D02*
X173583767Y-55685000D01*
X173291233Y-56705000D02*
X173583767Y-56705000D01*
%TO.C,Rpu6*%
X127459774Y-56245105D02*
X127795016Y-56245105D01*
X127459774Y-57005105D02*
X127795016Y-57005105D01*
%TO.C,U4*%
X167180000Y-53430000D02*
X167180000Y-54720000D01*
X170050000Y-53430000D02*
X170050000Y-53170000D01*
X167550000Y-53430000D02*
X167180000Y-53430000D01*
X170420000Y-53430000D02*
X170050000Y-53430000D01*
X170420000Y-56670000D02*
X170050000Y-56670000D01*
X170420000Y-56670000D02*
X170420000Y-56170000D01*
X167550000Y-56670000D02*
X167180000Y-56670000D01*
X170420000Y-53430000D02*
X170420000Y-54720000D01*
X167180000Y-56670000D02*
X167180000Y-56170000D01*
%TO.C,U8*%
X230065000Y-65405000D02*
X230065000Y-67605000D01*
X224595000Y-65405000D02*
X224595000Y-69005000D01*
X230065000Y-65405000D02*
X230065000Y-63205000D01*
X224595000Y-65405000D02*
X224595000Y-63205000D01*
%TO.C,Rpu5*%
X200199879Y-56545000D02*
X200535121Y-56545000D01*
X200199879Y-55785000D02*
X200535121Y-55785000D01*
%TO.C,CByp1*%
X127333767Y-65560000D02*
X127041233Y-65560000D01*
X127333767Y-64540000D02*
X127041233Y-64540000D01*
%TO.C,Cload5*%
X210043733Y-57465000D02*
X210336267Y-57465000D01*
X210043733Y-58485000D02*
X210336267Y-58485000D01*
%TO.C,Cload2*%
X199333767Y-63485000D02*
X199041233Y-63485000D01*
X199333767Y-64505000D02*
X199041233Y-64505000D01*
%TO.C,Rpu2*%
X208980000Y-66565121D02*
X208980000Y-66229879D01*
X208220000Y-66565121D02*
X208220000Y-66229879D01*
%TO.C,CDVDD2*%
X233761267Y-66077500D02*
X233468733Y-66077500D01*
X233761267Y-65057500D02*
X233468733Y-65057500D01*
%TD*%
M02*
